<svg width="219" height="43" viewBox="0 0 219 43" fill="none" xmlns="http://www.w3.org/2000/svg">
<path d="M9.41423 34.1929H12.3155C30.0451 33.3769 29.7228 27.0349 30.0451 21.8427C30.303 13.5648 23.0607 9.93761 19.4073 9.15877C15.7539 8.37993 2 9.15877 2 9.15877V34.1929H9.41423ZM9.41423 34.1929V15.167" stroke="#F9832A" stroke-width="4"/>
<path d="M7.81079 2.19927C17.7207 1.36347 37.9938 2.26728 37.1743 22.9421C36.6053 30.1965 31.0489 42.2871 7.81079 40.8886" stroke="#F9832A" stroke-width="4"/>
<path d="M63.7618 33.5H55.5118V10.2273H63.83C66.1709 10.2273 68.1861 10.6932 69.8755 11.625C71.5649 12.5492 72.8641 13.8788 73.7732 15.6136C74.6899 17.3485 75.1482 19.4242 75.1482 21.8409C75.1482 24.2652 74.6899 26.3485 73.7732 28.0909C72.8641 29.8333 71.5573 31.1705 69.8527 32.1023C68.1558 33.0341 66.1255 33.5 63.7618 33.5ZM60.4323 29.2841H63.5573C65.0118 29.2841 66.2353 29.0265 67.2277 28.5114C68.2277 27.9886 68.9777 27.1818 69.4777 26.0909C69.9853 24.9924 70.2391 23.5758 70.2391 21.8409C70.2391 20.1212 69.9853 18.7159 69.4777 17.625C68.9777 16.5341 68.2315 15.7311 67.2391 15.2159C66.2467 14.7008 65.0232 14.4432 63.5687 14.4432H60.4323V29.2841ZM80.9931 33.5V10.2273H85.9135V20.4886H86.2204L94.5954 10.2273H100.493L91.8567 20.6477L100.595 33.5H94.709L88.334 23.9318L85.9135 26.8864V33.5H80.9931ZM110.142 33.8295C109.028 33.8295 108.036 33.6364 107.165 33.25C106.293 32.8561 105.604 32.2765 105.097 31.5114C104.597 30.7386 104.347 29.7765 104.347 28.625C104.347 27.6553 104.525 26.8409 104.881 26.1818C105.237 25.5227 105.722 24.9924 106.335 24.5909C106.949 24.1894 107.646 23.8864 108.426 23.6818C109.214 23.4773 110.04 23.3333 110.903 23.25C111.918 23.1439 112.737 23.0455 113.358 22.9545C113.979 22.8561 114.43 22.7121 114.71 22.5227C114.99 22.3333 115.131 22.053 115.131 21.6818V21.6136C115.131 20.8939 114.903 20.3371 114.449 19.9432C114.002 19.5492 113.365 19.3523 112.54 19.3523C111.668 19.3523 110.975 19.5455 110.46 19.9318C109.945 20.3106 109.604 20.7879 109.437 21.3636L104.96 21C105.187 19.9394 105.634 19.0227 106.301 18.25C106.968 17.4697 107.828 16.8712 108.881 16.4545C109.941 16.0303 111.168 15.8182 112.562 15.8182C113.532 15.8182 114.46 15.9318 115.347 16.1591C116.24 16.3864 117.032 16.7386 117.722 17.2159C118.418 17.6932 118.968 18.3068 119.369 19.0568C119.771 19.7992 119.972 20.6894 119.972 21.7273V33.5H115.381V31.0795H115.244C114.964 31.625 114.589 32.1061 114.119 32.5227C113.65 32.9318 113.085 33.2538 112.426 33.4886C111.767 33.7159 111.006 33.8295 110.142 33.8295ZM111.528 30.4886C112.24 30.4886 112.869 30.3485 113.415 30.0682C113.96 29.7803 114.388 29.3939 114.699 28.9091C115.009 28.4242 115.165 27.875 115.165 27.2614V25.4091C115.013 25.5076 114.805 25.5985 114.54 25.6818C114.282 25.7576 113.99 25.8295 113.665 25.8977C113.339 25.9583 113.013 26.0152 112.687 26.0682C112.362 26.1136 112.066 26.1553 111.801 26.1932C111.233 26.2765 110.737 26.4091 110.312 26.5909C109.888 26.7727 109.559 27.0189 109.324 27.3295C109.089 27.6326 108.972 28.0114 108.972 28.4659C108.972 29.125 109.21 29.6288 109.687 29.9773C110.172 30.3182 110.786 30.4886 111.528 30.4886ZM125.927 33.5V16.0455H130.541V19.125H130.745C131.109 18.1023 131.715 17.2955 132.564 16.7045C133.412 16.1136 134.427 15.8182 135.609 15.8182C136.806 15.8182 137.825 16.1174 138.666 16.7159C139.507 17.3068 140.067 18.1098 140.348 19.125H140.529C140.886 18.125 141.529 17.3258 142.461 16.7273C143.401 16.1212 144.511 15.8182 145.791 15.8182C147.42 15.8182 148.742 16.3371 149.757 17.375C150.779 18.4053 151.291 19.8674 151.291 21.7614V33.5H146.461V22.7159C146.461 21.7462 146.204 21.0189 145.689 20.5341C145.173 20.0492 144.529 19.8068 143.757 19.8068C142.878 19.8068 142.192 20.0871 141.7 20.6477C141.207 21.2008 140.961 21.9318 140.961 22.8409V33.5H136.268V22.6136C136.268 21.7576 136.022 21.0758 135.529 20.5682C135.045 20.0606 134.404 19.8068 133.609 19.8068C133.071 19.8068 132.586 19.9432 132.154 20.2159C131.73 20.4811 131.393 20.8561 131.143 21.3409C130.893 21.8182 130.768 22.3788 130.768 23.0227V33.5H125.927ZM157.315 40.0455V16.0455H162.087V18.9773H162.303C162.515 18.5076 162.822 18.0303 163.224 17.5455C163.633 17.053 164.163 16.6439 164.815 16.3182C165.474 15.9848 166.292 15.8182 167.269 15.8182C168.542 15.8182 169.716 16.1515 170.792 16.8182C171.868 17.4773 172.728 18.4735 173.372 19.8068C174.015 21.1326 174.337 22.7955 174.337 24.7955C174.337 26.7424 174.023 28.3864 173.394 29.7273C172.773 31.0606 171.925 32.072 170.849 32.7614C169.781 33.4432 168.584 33.7841 167.258 33.7841C166.318 33.7841 165.519 33.6288 164.86 33.3182C164.209 33.0076 163.675 32.6174 163.258 32.1477C162.841 31.6705 162.523 31.1894 162.303 30.7045H162.156V40.0455H157.315ZM162.053 24.7727C162.053 25.8106 162.197 26.7159 162.485 27.4886C162.773 28.2614 163.19 28.8636 163.735 29.2955C164.281 29.7197 164.943 29.9318 165.724 29.9318C166.512 29.9318 167.178 29.7159 167.724 29.2841C168.269 28.8447 168.682 28.2386 168.962 27.4659C169.25 26.6856 169.394 25.7879 169.394 24.7727C169.394 23.7652 169.254 22.8788 168.974 22.1136C168.693 21.3485 168.281 20.75 167.735 20.3182C167.19 19.8864 166.519 19.6705 165.724 19.6705C164.936 19.6705 164.269 19.8788 163.724 20.2955C163.186 20.7121 162.773 21.303 162.485 22.0682C162.197 22.8333 162.053 23.7348 162.053 24.7727ZM190.958 26.0682V16.0455H195.799V33.5H191.151V30.3295H190.969C190.575 31.3523 189.92 32.1742 189.003 32.7955C188.094 33.4167 186.984 33.7273 185.674 33.7273C184.507 33.7273 183.481 33.4621 182.594 32.9318C181.708 32.4015 181.015 31.6477 180.515 30.6705C180.022 29.6932 179.772 28.5227 179.765 27.1591V16.0455H184.606V26.2955C184.613 27.3258 184.89 28.1402 185.435 28.7386C185.981 29.3371 186.712 29.6364 187.628 29.6364C188.212 29.6364 188.757 29.5038 189.265 29.2386C189.772 28.9659 190.181 28.5644 190.492 28.0341C190.81 27.5038 190.965 26.8485 190.958 26.0682ZM216.394 21.0227L211.962 21.2955C211.886 20.9167 211.723 20.5758 211.473 20.2727C211.223 19.9621 210.894 19.7159 210.485 19.5341C210.083 19.3447 209.602 19.25 209.041 19.25C208.291 19.25 207.659 19.4091 207.144 19.7273C206.629 20.0379 206.371 20.4545 206.371 20.9773C206.371 21.3939 206.538 21.7462 206.871 22.0341C207.204 22.322 207.776 22.553 208.587 22.7273L211.746 23.3636C213.443 23.7121 214.708 24.2727 215.541 25.0455C216.375 25.8182 216.791 26.8333 216.791 28.0909C216.791 29.2348 216.454 30.2386 215.78 31.1023C215.113 31.9659 214.197 32.6402 213.03 33.125C211.871 33.6023 210.534 33.8409 209.019 33.8409C206.708 33.8409 204.867 33.3598 203.496 32.3977C202.132 31.428 201.333 30.1098 201.098 28.4432L205.86 28.1932C206.004 28.8977 206.352 29.4356 206.905 29.8068C207.458 30.1705 208.166 30.3523 209.03 30.3523C209.879 30.3523 210.56 30.1894 211.075 29.8636C211.598 29.5303 211.863 29.1023 211.871 28.5795C211.863 28.1402 211.678 27.7803 211.314 27.5C210.95 27.2121 210.39 26.9924 209.632 26.8409L206.61 26.2386C204.905 25.8977 203.636 25.3068 202.803 24.4659C201.977 23.625 201.564 22.553 201.564 21.25C201.564 20.1288 201.867 19.1629 202.473 18.3523C203.087 17.5417 203.947 16.9167 205.053 16.4773C206.166 16.0379 207.469 15.8182 208.962 15.8182C211.166 15.8182 212.901 16.2841 214.166 17.2159C215.439 18.1477 216.182 19.4167 216.394 21.0227Z" fill="#F9832A"/>
</svg>
