<svg width="30" height="37" viewBox="0 0 30 37" fill="none" xmlns="http://www.w3.org/2000/svg">
<path d="M13.0909 20.5363H16.3636V22.1726H13.0909V20.5363ZM29.4545 7.44536V17.2635C29.4545 26.2635 23.2364 34.7726 14.7273 36.8999C6.21818 34.7726 0 26.2635 0 17.2635V7.44536L14.7273 0.899902L29.4545 7.44536ZM22.9091 15.6272H19.3091C18.9818 14.6454 18.3273 13.8272 17.5091 13.1726L19.4727 11.209L18.3273 10.0635L16.0364 12.3544H14.7273C14.4 12.3544 13.9091 12.3544 13.5818 12.5181L11.2909 10.0635L9.98182 11.3726L11.9455 13.3363C11.1273 13.8272 10.4727 14.6454 10.1455 15.6272H6.54545V17.2635H9.81818V18.8999H6.54545V20.5363H9.81818V22.1726H6.54545V23.809H10.1455C10.8 25.7726 12.6 27.0817 14.7273 27.0817C16.8545 27.0817 18.6545 25.7726 19.3091 23.809H22.9091V22.1726H19.6364V20.5363H22.9091V18.8999H19.6364V17.2635H22.9091V15.6272ZM13.0909 18.8999H16.3636V17.2635H13.0909V18.8999Z" fill="url(#paint0_linear_2443_15732)"/>
<defs>
<linearGradient id="paint0_linear_2443_15732" x1="14.7273" y1="0.899902" x2="14.7273" y2="36.8999" gradientUnits="userSpaceOnUse">
<stop stop-color="#156246"/>
<stop offset="1" stop-color="#0A40FF"/>
</linearGradient>
</defs>
</svg>
