<svg width="30" height="36" viewBox="0 0 30 36" fill="none" xmlns="http://www.w3.org/2000/svg">
<path d="M13.0909 19.6364H16.3636V21.2727H13.0909V19.6364ZM29.4545 6.54545V16.3636C29.4545 25.3636 23.2364 33.8727 14.7273 36C6.21818 33.8727 0 25.3636 0 16.3636V6.54545L14.7273 0L29.4545 6.54545ZM22.9091 14.7273H19.3091C18.9818 13.7455 18.3273 12.9273 17.5091 12.2727L19.4727 10.3091L18.3273 9.16364L16.0364 11.4545H14.7273C14.4 11.4545 13.9091 11.4545 13.5818 11.6182L11.2909 9.16364L9.98182 10.4727L11.9455 12.4364C11.1273 12.9273 10.4727 13.7455 10.1455 14.7273H6.54545V16.3636H9.81818V18H6.54545V19.6364H9.81818V21.2727H6.54545V22.9091H10.1455C10.8 24.8727 12.6 26.1818 14.7273 26.1818C16.8545 26.1818 18.6545 24.8727 19.3091 22.9091H22.9091V21.2727H19.6364V19.6364H22.9091V18H19.6364V16.3636H22.9091V14.7273ZM13.0909 18H16.3636V16.3636H13.0909V18Z" fill="url(#paint0_linear_2443_15732)"/>
<defs>
<linearGradient id="paint0_linear_2443_15732" x1="14.7273" y1="0" x2="14.7273" y2="36" gradientUnits="userSpaceOnUse">
<stop stop-color="white"/>
<stop offset="1" stop-color="white"/>
</linearGradient>
</defs>
</svg>
