<svg width="11" height="7" viewBox="0 0 11 7" fill="none" xmlns="http://www.w3.org/2000/svg">
<path fill-rule="evenodd" clip-rule="evenodd" d="M4.74911 0.624208C4.94833 0.425237 5.21838 0.313477 5.49995 0.313477C5.78151 0.313477 6.05156 0.425237 6.25078 0.624208L10.2585 4.63054C10.3572 4.72924 10.4354 4.84639 10.4888 4.97533C10.5422 5.10426 10.5696 5.24244 10.5696 5.38198C10.5695 5.52152 10.542 5.65969 10.4886 5.7886C10.4352 5.9175 10.3569 6.03462 10.2582 6.13327C10.1595 6.23192 10.0423 6.31016 9.91339 6.36353C9.78446 6.4169 9.64628 6.44435 9.50674 6.44432C9.3672 6.44429 9.22903 6.41677 9.10012 6.36334C8.97121 6.30991 8.85409 6.23161 8.75545 6.13292L5.49995 2.87742L2.24445 6.13292C2.14648 6.23444 2.02928 6.31544 1.89968 6.37118C1.77007 6.42693 1.63067 6.4563 1.48959 6.4576C1.34851 6.45889 1.20859 6.43207 1.07799 6.37871C0.947386 6.32535 0.82872 6.24651 0.728912 6.1468C0.629104 6.04708 0.550155 5.92849 0.49667 5.79794C0.443185 5.66739 0.416235 5.52749 0.417394 5.38641C0.418553 5.24533 0.447797 5.1059 0.50342 4.97624C0.559043 4.84659 0.63993 4.72931 0.741362 4.63125L4.7484 0.6235L4.74911 0.624208Z" fill="#F9832A"/>
</svg>
