<svg width="24" height="24" viewBox="0 0 24 24" fill="none" xmlns="http://www.w3.org/2000/svg">
<path d="M20 11.7746C20 12.1543 19.7178 12.4681 19.3518 12.5178L19.25 12.5246L6.066 12.524L10.829 17.2675C11.1225 17.5598 11.1235 18.0347 10.8313 18.3282C10.5656 18.595 10.149 18.6201 9.85489 18.4029L9.77061 18.3305L3.72061 12.3065C3.68192 12.2679 3.64832 12.2263 3.61979 12.1822C3.61174 12.169 3.60354 12.1554 3.59576 12.1416C3.58861 12.1297 3.58215 12.1174 3.57606 12.105C3.56759 12.0869 3.55932 12.0681 3.55181 12.0491C3.5457 12.0343 3.54061 12.02 3.53596 12.0056C3.53043 11.9877 3.52506 11.9686 3.52045 11.9493C3.51701 11.9358 3.51429 11.9227 3.51192 11.9097C3.50859 11.8903 3.50575 11.8701 3.50372 11.8498C3.50197 11.8343 3.50092 11.8189 3.50034 11.8035C3.50019 11.7942 3.5 11.7844 3.5 11.7746L3.50038 11.7455C3.50095 11.7308 3.50196 11.7161 3.50339 11.7014L3.5 11.7746C3.5 11.7273 3.50438 11.681 3.51277 11.6361C3.51471 11.6253 3.51703 11.6143 3.51959 11.6034C3.52492 11.5808 3.53108 11.5591 3.53817 11.5377C3.54165 11.5272 3.5457 11.5158 3.55003 11.5046C3.5588 11.482 3.56832 11.4605 3.5788 11.4396C3.58367 11.4297 3.58913 11.4194 3.59484 11.4092C3.60421 11.3925 3.61386 11.3767 3.62407 11.3613C3.63128 11.3504 3.63925 11.339 3.64758 11.3278L3.65407 11.3192C3.67428 11.2928 3.6962 11.2677 3.71967 11.2443L3.72057 11.2436L9.77057 5.21857C10.0641 4.92629 10.5389 4.92727 10.8312 5.22077C11.0969 5.48759 11.1203 5.9043 10.9018 6.19746L10.829 6.28143L6.068 11.024L19.25 11.0246C19.6642 11.0246 20 11.3604 20 11.7746Z" fill="#003049"/>
</svg>
