<svg width="23" height="22" viewBox="0 0 23 22" fill="none" xmlns="http://www.w3.org/2000/svg">
<path d="M11.506 0C14.7815 0 17.4744 2.3165 17.6111 5.25176H17.5792C17.583 5.33708 17.5648 5.42204 17.5259 5.5H17.7168C19.2042 5.5 20.7618 6.42786 21.3864 8.66778L21.4542 8.93208L22.394 15.7462C23.0703 20.0923 20.4283 21.92 16.8242 21.9974L16.5826 22H6.45042C2.78773 22 -0.0346681 20.7988 0.585899 16.0419L0.628217 15.7462L1.57878 8.93208C2.04751 6.5199 3.62108 5.56847 5.13726 5.50359L5.30543 5.5H5.40097C5.38486 5.41788 5.38486 5.33387 5.40097 5.25176C5.53766 2.3165 8.23055 0 11.506 0ZM7.95188 9.16222C7.35531 9.16222 6.8717 9.61021 6.8717 10.1628C6.8717 10.7154 7.35531 11.1634 7.95188 11.1634C8.54846 11.1634 9.03207 10.7154 9.03207 10.1628L9.02366 10.0373C8.957 9.54394 8.50257 9.16222 7.95188 9.16222ZM15.0271 9.16222C14.4305 9.16222 13.9469 9.61021 13.9469 10.1628C13.9469 10.7154 14.4305 11.1634 15.0271 11.1634C15.6237 11.1634 16.1073 10.7154 16.1073 10.1628C16.1073 9.61021 15.6237 9.16222 15.0271 9.16222ZM11.4581 1.43262C9.10645 1.43262 7.20003 3.14251 7.20003 5.25176C7.21614 5.33387 7.21614 5.41788 7.20003 5.5H15.7695C15.7355 5.42074 15.7174 5.33668 15.7163 5.25176C15.7163 3.14251 13.8098 1.43262 11.4581 1.43262Z" fill="#AAAAAA"/>
</svg>
