<svg width="17" height="18" viewBox="0 0 17 18" fill="none" xmlns="http://www.w3.org/2000/svg">
<g clip-path="url(#clip0_1675_7058)">
<path d="M7.24996 23.2084C6.74996 23.2084 6.3123 23.0457 5.93696 22.7204C5.56163 22.395 5.34097 21.9827 5.27497 21.4834L3.64997 9.33337C3.61663 9.03337 3.69997 8.77104 3.89997 8.54637C4.09997 8.32171 4.34997 8.20904 4.64997 8.20837H16.35C16.65 8.20837 16.9 8.32104 17.1 8.54637C17.3 8.77171 17.3833 9.03404 17.35 9.33337L15.725 21.4834C15.6583 21.9834 15.4373 22.396 15.062 22.7214C14.6866 23.0467 14.2493 23.209 13.75 23.2084H7.24996ZM7.24996 21.2084H13.75L15.2 10.2084H5.77497L7.24996 21.2084ZM10.5 16.2084C11.3333 16.2084 12.0416 15.9167 12.625 15.3334C13.2083 14.75 13.5 14.0417 13.5 13.2084V12.2084C13.5 11.925 13.404 11.6874 13.212 11.4954C13.02 11.3034 12.7826 11.2077 12.5 11.2084C12.2166 11.2084 11.979 11.3044 11.787 11.4964C11.595 11.6884 11.4993 11.9257 11.5 12.2084V13.2084C11.5 13.4917 11.404 13.7294 11.212 13.9214C11.02 14.1134 10.7826 14.209 10.5 14.2084C10.2166 14.2084 9.97896 14.1124 9.78696 13.9204C9.59496 13.7284 9.4993 13.491 9.49997 13.2084V12.2084C9.49997 11.925 9.40396 11.6874 9.21197 11.4954C9.01997 11.3034 8.78263 11.2077 8.49997 11.2084C8.21663 11.2084 7.97896 11.3044 7.78696 11.4964C7.59496 11.6884 7.4993 11.9257 7.49996 12.2084V13.2084C7.49996 14.0417 7.79163 14.75 8.37497 15.3334C8.9583 15.9167 9.66663 16.2084 10.5 16.2084ZM13.5 7.20837C13.0833 7.20837 12.729 7.06237 12.437 6.77037C12.145 6.47837 11.9993 6.12437 12 5.70837C12 5.29171 12.146 4.93737 12.438 4.64537C12.73 4.35337 13.084 4.20771 13.5 4.20837C13.9166 4.20837 14.271 4.35437 14.563 4.64637C14.855 4.93837 15.0006 5.29237 15 5.70837C15 6.12504 14.854 6.47937 14.562 6.77137C14.27 7.06337 13.916 7.20904 13.5 7.20837ZM8.49997 6.20837C7.79997 6.20837 7.2083 5.96671 6.72497 5.48337C6.24163 5.00004 5.99996 4.40837 5.99996 3.70837C5.99996 3.00837 6.24163 2.41671 6.72497 1.93337C7.2083 1.45004 7.79997 1.20837 8.49997 1.20837C9.19997 1.20837 9.79163 1.45004 10.275 1.93337C10.7583 2.41671 11 3.00837 11 3.70837C11 4.40837 10.7583 5.00004 10.275 5.48337C9.79163 5.96671 9.19997 6.20837 8.49997 6.20837Z" fill="#545454"/>
</g>
<defs>
<clipPath id="clip0_1675_7058">
<rect width="17" height="17" fill="white" transform="translate(0 0.5)"/>
</clipPath>
</defs>
</svg>
