<svg width="29" height="37" viewBox="0 0 29 37" fill="none" xmlns="http://www.w3.org/2000/svg">
<path d="M14.4 0.899902C9.4374 0.899902 5.4 4.9373 5.4 9.8999V15.2999H3.6C2.64522 15.2999 1.72955 15.6792 1.05442 16.3543C0.379284 17.0294 0 17.9451 0 18.8999V33.2999C0 34.2547 0.379284 35.1704 1.05442 35.8455C1.72955 36.5206 2.64522 36.8999 3.6 36.8999H25.2C26.1548 36.8999 27.0705 36.5206 27.7456 35.8455C28.4207 35.1704 28.8 34.2547 28.8 33.2999V18.8999C28.8 17.9451 28.4207 17.0294 27.7456 16.3543C27.0705 15.6792 26.1548 15.2999 25.2 15.2999H23.4V9.8999C23.4 4.9373 19.3626 0.899902 14.4 0.899902ZM9 9.8999C9 6.9227 11.4228 4.4999 14.4 4.4999C17.3772 4.4999 19.8 6.9227 19.8 9.8999V15.2999H9V9.8999ZM16.2 29.2013V33.2999H12.6V29.2013C11.9707 28.8409 11.4654 28.2983 11.1507 27.6449C10.836 26.9916 10.7267 26.2582 10.8372 25.5415C10.9478 24.8248 11.2729 24.1584 11.7698 23.6302C12.2667 23.102 12.912 22.7368 13.6206 22.5827C14.147 22.4663 14.6927 22.4696 15.2176 22.5922C15.7426 22.7149 16.2333 22.9538 16.6536 23.2913C17.0739 23.6289 17.413 24.0565 17.6461 24.5425C17.8791 25.0286 18.0001 25.5608 18 26.0999C17.999 26.7294 17.832 27.3476 17.516 27.8921C17.2 28.4365 16.7461 28.8881 16.2 29.2013Z" fill="#5056DC"/>
</svg>
