<svg width="29" height="36" viewBox="0 0 29 36" fill="none" xmlns="http://www.w3.org/2000/svg">
<path d="M14.4 0C9.4374 0 5.4 4.0374 5.4 9V14.4H3.6C2.64522 14.4 1.72955 14.7793 1.05442 15.4544C0.379284 16.1295 0 17.0452 0 18V32.4C0 33.3548 0.379284 34.2705 1.05442 34.9456C1.72955 35.6207 2.64522 36 3.6 36H25.2C26.1548 36 27.0705 35.6207 27.7456 34.9456C28.4207 34.2705 28.8 33.3548 28.8 32.4V18C28.8 17.0452 28.4207 16.1295 27.7456 15.4544C27.0705 14.7793 26.1548 14.4 25.2 14.4H23.4V9C23.4 4.0374 19.3626 0 14.4 0ZM9 9C9 6.0228 11.4228 3.6 14.4 3.6C17.3772 3.6 19.8 6.0228 19.8 9V14.4H9V9ZM16.2 28.3014V32.4H12.6V28.3014C11.9707 27.941 11.4654 27.3984 11.1507 26.745C10.836 26.0917 10.7267 25.3583 10.8372 24.6416C10.9478 23.9249 11.2729 23.2585 11.7698 22.7303C12.2667 22.2021 12.912 21.8369 13.6206 21.6828C14.147 21.5664 14.6927 21.5697 15.2176 21.6923C15.7426 21.815 16.2333 22.0539 16.6536 22.3914C17.0739 22.729 17.413 23.1565 17.6461 23.6426C17.8791 24.1287 18.0001 24.6609 18 25.2C17.999 25.8295 17.832 26.4477 17.516 26.9922C17.2 27.5366 16.7461 27.9882 16.2 28.3014Z" fill="white"/>
</svg>
