<svg width="42" height="42" viewBox="0 0 32 32" fill="none" xmlns="http://www.w3.org/2000/svg">
<path d="M24.2494 19.4502C26.4899 17.5861 26.1749 13.6387 23.5463 10.6334C20.9178 7.62811 16.968 6.7015 14.7262 8.56536C14.1005 9.09406 13.651 9.79273 13.435 10.572C13.3844 10.7395 13.2847 10.889 13.148 11.0019L7.40428 15.7782C7.06374 16.0617 6.98881 16.5194 7.23339 16.7999L14.7275 25.3669C14.9734 25.6477 15.4484 25.6457 15.7889 25.3622L21.5327 20.5859C21.6685 20.4718 21.8359 20.3992 22.0139 20.3774C22.837 20.2918 23.6153 19.969 24.2494 19.4502Z" fill="#996D45"/>
<path d="M23.3588 18.5242C25.6007 16.6603 25.2856 12.713 22.6557 9.70742C20.0258 6.70189 16.0774 5.77551 13.8369 7.63961C13.2104 8.16768 12.7602 8.86644 12.5444 9.64598C12.4943 9.81376 12.3945 9.96334 12.2574 10.0759L6.51382 14.859C6.17328 15.1425 6.09835 15.6002 6.34157 15.8805L13.8342 24.4405C14.0788 24.721 14.5551 24.7192 14.8956 24.4358L20.638 19.6592C20.7739 19.5451 20.9413 19.4725 21.1192 19.4507C21.9438 19.3664 22.7237 19.0437 23.3588 18.5242Z" fill="#A37644"/>
<path d="M22.8903 18.2288C25.0092 16.4654 24.7502 12.779 22.3149 9.98545C19.8796 7.19191 16.182 6.36935 14.0641 8.12745C13.4768 8.62295 13.0506 9.27474 12.8376 10.0029C12.7861 10.1672 12.6875 10.3137 12.5535 10.4252L7.16502 14.9058C6.82449 15.1892 6.74956 15.6469 6.99413 15.9274L13.8771 23.7953C14.123 24.0761 14.598 24.0741 14.9385 23.7907L20.3256 19.3099C20.46 19.1981 20.6245 19.1262 20.7996 19.1028C21.5687 19.0154 22.2951 18.7117 22.8903 18.2288Z" fill="#F9F2C7"/>
<path d="M17.362 13.8558C17.4359 14.1484 17.3769 14.4148 17.2282 14.4511C17.0796 14.4874 17.2276 14.1986 17.1537 13.906C17.0798 13.6135 16.8093 13.4275 16.958 13.3912C17.1067 13.355 17.2881 13.5633 17.362 13.8558Z" fill="#F9F3E2"/>
</svg>
