<svg width="17" height="18" viewBox="0 0 17 18" fill="none" xmlns="http://www.w3.org/2000/svg">
<path d="M7.5893 8.6581C7.5893 8.89963 7.68525 9.13127 7.85604 9.30206C8.02683 9.47285 8.25847 9.5688 8.5 9.5688C8.74153 9.5688 8.97318 9.47285 9.14396 9.30206C9.31475 9.13127 9.4107 8.89963 9.4107 8.6581C9.4107 8.41656 9.31475 8.18492 9.14396 8.01413C8.97318 7.84334 8.74153 7.74739 8.5 7.74739C8.25847 7.74739 8.02683 7.84334 7.85604 8.01413C7.68525 8.18492 7.5893 8.41656 7.5893 8.6581ZM11.3839 8.6581C11.3839 8.89963 11.4798 9.13127 11.6506 9.30206C11.8214 9.47285 12.0531 9.5688 12.2946 9.5688C12.5361 9.5688 12.7678 9.47285 12.9386 9.30206C13.1094 9.13127 13.2053 8.89963 13.2053 8.6581C13.2053 8.41656 13.1094 8.18492 12.9386 8.01413C12.7678 7.84334 12.5361 7.74739 12.2946 7.74739C12.0531 7.74739 11.8214 7.84334 11.6506 8.01413C11.4798 8.18492 11.3839 8.41656 11.3839 8.6581ZM3.7947 8.6581C3.7947 8.89963 3.89065 9.13127 4.06144 9.30206C4.23223 9.47285 4.46387 9.5688 4.70541 9.5688C4.94694 9.5688 5.17858 9.47285 5.34937 9.30206C5.52016 9.13127 5.61611 8.89963 5.61611 8.6581C5.61611 8.41656 5.52016 8.18492 5.34937 8.01413C5.17858 7.84334 4.94694 7.74739 4.70541 7.74739C4.46387 7.74739 4.23223 7.84334 4.06144 8.01413C3.89065 8.18492 3.7947 8.41656 3.7947 8.6581ZM16.3396 5.36439C15.9108 4.34554 15.2961 3.43104 14.5125 2.64556C13.7344 1.86463 12.8107 1.24388 11.7937 0.818463C10.7502 0.380187 9.64217 0.158203 8.5 0.158203H8.46206C7.31229 0.163895 6.19858 0.391571 5.15127 0.839333C4.14297 1.26911 3.22791 1.89096 2.45711 2.67023C1.68111 3.45381 1.07208 4.36451 0.650881 5.37957C0.214502 6.43067 -0.00558425 7.54818 0.000107639 8.69794C0.00654565 10.0156 0.318269 11.3138 0.91081 12.4906V15.3745C0.91081 15.606 1.00276 15.828 1.16644 15.9917C1.33011 16.1553 1.5521 16.2473 1.78357 16.2473H4.66936C5.84624 16.8398 7.14444 17.1516 8.46206 17.158H8.5019C9.63838 17.158 10.7407 16.9379 11.7785 16.5072C12.7904 16.0869 13.7107 15.4734 14.4879 14.701C15.2715 13.925 15.8881 13.0181 16.3188 12.0068C16.7665 10.9595 16.9942 9.84581 16.9999 8.69604C17.0056 7.54059 16.7817 6.41929 16.3396 5.36439ZM13.4728 13.6746C12.1428 14.9913 10.3783 15.716 8.5 15.716H8.46775C7.32368 15.7104 6.1872 15.4258 5.18353 14.8907L5.02415 14.8053H2.35276V12.1339L2.26738 11.9746C1.73234 10.9709 1.44775 9.83442 1.44205 8.69035C1.43446 6.79875 2.15734 5.02287 3.48355 3.68528C4.80786 2.34768 6.57804 1.60774 8.46964 1.60015H8.5019C9.45055 1.60015 10.3707 1.78419 11.2378 2.14847C12.084 2.50326 12.8429 3.01364 13.4956 3.66631C14.1464 4.31708 14.6586 5.0779 15.0134 5.92409C15.3815 6.80064 15.5655 7.73032 15.5617 8.69035C15.5504 10.5801 14.8085 12.3502 13.4728 13.6746Z" fill="#F9832A"/>
</svg>
