<svg width="29" height="28" viewBox="0 0 29 28" fill="none" xmlns="http://www.w3.org/2000/svg">
<path d="M27.4092 9.57533H23.3605L22.4977 4.4205C22.3239 3.64057 21.9421 2.92227 21.3928 2.34187C20.8436 1.76147 20.1474 1.34064 19.3783 1.12406C18.6055 0.875443 17.8005 0.741278 16.9889 0.72583H12.0332C11.2216 0.741278 10.4166 0.875443 9.64382 1.12406C8.87466 1.34064 8.1785 1.76147 7.62927 2.34187C7.08004 2.92227 6.69822 3.64057 6.52437 4.4205L5.66155 9.57533H1.6129C1.43865 9.57428 1.26662 9.6144 1.11081 9.69243C0.955011 9.77047 0.819847 9.8842 0.716334 10.0244C0.612821 10.1646 0.543886 10.3272 0.515148 10.4991C0.48641 10.6709 0.49868 10.8472 0.550959 11.0134L4.71022 24.9513C4.92197 25.6247 5.3429 26.2129 5.91183 26.6307C6.48077 27.0484 7.16808 27.2739 7.87392 27.2743H21.1482C21.8502 27.2692 22.5326 27.0416 23.0971 26.6242C23.6616 26.2068 24.0791 25.6211 24.2897 24.9513L28.449 11.0134C28.5007 10.8489 28.5133 10.6747 28.4858 10.5045C28.4582 10.3343 28.3912 10.1729 28.2902 10.0332C28.1892 9.89355 28.0569 9.77939 27.904 9.69989C27.751 9.62038 27.5816 9.57773 27.4092 9.57533ZM7.91817 9.57533L8.71462 4.77448C8.80193 4.3825 9.00447 4.02559 9.29621 3.74962C9.58795 3.47365 9.95556 3.29123 10.3518 3.22581C10.896 3.05325 11.4624 2.95812 12.0332 2.93821H16.9889C17.5663 2.9559 18.1393 3.05325 18.6924 3.22581C19.0887 3.29123 19.4563 3.47365 19.748 3.74962C20.0397 4.02559 20.2423 4.3825 20.3296 4.77448L21.1039 9.57533H7.82967H7.91817Z" fill="#F9832A"/>
</svg>
