<svg width="24" height="23" viewBox="0 0 24 23" fill="none" xmlns="http://www.w3.org/2000/svg">
<path d="M11.0138 11.5C11.0138 11.8232 11.1422 12.1332 11.3708 12.3618C11.5993 12.5903 11.9093 12.7188 12.2326 12.7188C12.5558 12.7188 12.8658 12.5903 13.0944 12.3618C13.3229 12.1332 13.4513 11.8232 13.4513 11.5C13.4513 11.1768 13.3229 10.8668 13.0944 10.6382C12.8658 10.4097 12.5558 10.2812 12.2326 10.2812C11.9093 10.2812 11.5993 10.4097 11.3708 10.6382C11.1422 10.8668 11.0138 11.1768 11.0138 11.5ZM16.0919 11.5C16.0919 11.8232 16.2203 12.1332 16.4489 12.3618C16.6775 12.5903 16.9875 12.7188 17.3107 12.7188C17.6339 12.7188 17.9439 12.5903 18.1725 12.3618C18.401 12.1332 18.5294 11.8232 18.5294 11.5C18.5294 11.1768 18.401 10.8668 18.1725 10.6382C17.9439 10.4097 17.6339 10.2812 17.3107 10.2812C16.9875 10.2812 16.6775 10.4097 16.4489 10.6382C16.2203 10.8668 16.0919 11.1768 16.0919 11.5ZM5.93569 11.5C5.93569 11.8232 6.0641 12.1332 6.29265 12.3618C6.52121 12.5903 6.83121 12.7188 7.15444 12.7188C7.47767 12.7188 7.78767 12.5903 8.01623 12.3618C8.24479 12.1332 8.37319 11.8232 8.37319 11.5C8.37319 11.1768 8.24479 10.8668 8.01623 10.6382C7.78767 10.4097 7.47767 10.2812 7.15444 10.2812C6.83121 10.2812 6.52121 10.4097 6.29265 10.6382C6.0641 10.8668 5.93569 11.1768 5.93569 11.5ZM22.724 7.09219C22.1501 5.72871 21.3275 4.50488 20.2789 3.45371C19.2376 2.40862 18.0014 1.57791 16.6404 1.00859C15.2439 0.42207 13.7611 0.125 12.2326 0.125H12.1818C10.6431 0.132617 9.15268 0.437305 7.75112 1.03652C6.40175 1.61168 5.17718 2.44387 4.14565 3.48672C3.10718 4.53535 2.29214 5.7541 1.72846 7.1125C1.14448 8.51914 0.849949 10.0146 0.857566 11.5533C0.866182 13.3166 1.28335 15.0539 2.07632 16.6289V20.4883C2.07632 20.798 2.19937 21.0951 2.41841 21.3142C2.63744 21.5332 2.93452 21.6562 3.24428 21.6562H7.1062C8.68117 22.4492 10.4185 22.8664 12.1818 22.875H12.2351C13.756 22.875 15.2312 22.5805 16.6201 22.0041C17.9742 21.4416 19.2058 20.6205 20.2458 19.5869C21.2945 18.5484 22.1197 17.3348 22.696 15.9814C23.2953 14.5799 23.6 13.0895 23.6076 11.5508C23.6152 10.0045 23.3156 8.50391 22.724 7.09219ZM18.8874 18.2133C17.1076 19.9754 14.7462 20.9453 12.2326 20.9453H12.1894C10.6583 20.9377 9.13745 20.5568 7.79429 19.8408L7.581 19.7266H4.006V16.1516L3.89175 15.9383C3.17573 14.5951 2.79487 13.0742 2.78725 11.5432C2.7771 9.01172 3.74448 6.63516 5.51929 4.84512C7.29155 3.05508 9.6605 2.06484 12.1919 2.05469H12.2351C13.5046 2.05469 14.7361 2.30098 15.8964 2.78848C17.0289 3.26328 18.0445 3.94629 18.9179 4.81973C19.7888 5.69062 20.4744 6.70879 20.9492 7.84121C21.4417 9.01426 21.688 10.2584 21.683 11.5432C21.6677 14.0721 20.6749 16.441 18.8874 18.2133Z" fill="#F9832A"/>
</svg>
