<?xml version="1.0" encoding="iso-8859-1"?>
<!-- Uploaded to: SVG Repo, www.svgrepo.com, Generator: SVG Repo Mixer Tools -->
<svg xmlns="http://www.w3.org/2000/svg" xmlns:xlink="http://www.w3.org/1999/xlink" version="1.1" id="Capa_1"  viewBox="0 0 470 470" xml:space="preserve" width="32" height="32">
<g>
	<path style="fill:#975D50;" d="M392.226,237.302l-60.889-20v195.192H417.5c0,0,0-72.281,0-82.5   C417.5,296.153,408.278,264.471,392.226,237.302z"/>
	<path style="fill:#B1786B;" d="M349.848,217.302L117.775,217.3l-40,20C61.723,264.469,52.5,296.152,52.5,329.995v60H381   c0,0,0-38.979,0-60C381,287.464,369.361,248.332,349.848,217.302z"/>
	<path style="fill:#975D50;" d="M235,147.495c-66.95,0-125.468,36.058-157.225,89.805c1.579-0.191,3.256-0.305,5.078-0.305   c25.357,0,25.357,20,50.714,20c25.356,0,25.356-20,50.712-20c25.357,0,25.357,20,50.714,20c25.356,0,25.356-20,50.712-20   c25.357,0,25.357,20,50.714,20c25.356,0,25.356-20,50.712-20c1.829,0,3.512,0.115,5.096,0.308   C360.47,183.553,301.951,147.495,235,147.495z"/>
	<path style="fill:#FDCE6E;" d="M407.5,397.495l-51.667,65h30c16.5,0,34.269-12.807,39.487-28.46l12.18-36.54H407.5z"/>
	<path style="fill:#FDFA7B;" d="M32.5,397.495l12.18,36.54c5.218,15.653,22.987,28.46,39.487,28.46h271.667   c16.5,0,34.269-12.807,39.487-28.46l12.18-36.54H32.5z"/>
	<path style="fill:#FEFDCA;" d="M447.5,382.495h-425c-8.284,0-15,6.716-15,15s6.716,15,15,15h425c8.284,0,15-6.716,15-15   S455.784,382.495,447.5,382.495z"/>
	<path style="fill:#FFFFFF;" d="M462.5,167.495c0-11.046-8.954-20-20-20c-1.355,0-5.34,0-10,0c0-4.66,0-8.645,0-10   c0-11.046-8.954-20-20-20c-11.046,0-20,8.955-20,20l0,21.716l-24.952,24.952l-0.001,28.285l28.285,0.002l24.953-24.956l21.716,0   C453.545,187.495,462.5,178.541,462.5,167.495z"/>
	<path style="fill:#CB9385;" d="M383.925,282.597l11.907-70.146l-28.284-28.288l-70.15,11.907   C261.98,202.065,235,232.87,235,269.995c0,41.421,33.579,75,75,75C347.124,344.995,377.929,318.015,383.925,282.597z"/>
	<path style="fill:#FFCFB2;" d="M244.897,90.05c0.047,15.664,4.542,23.847,8.508,31.065c1.365,2.485,3.932,3.89,6.58,3.89   c1.221,0,2.459-0.299,3.604-0.928c3.63-1.994,4.956-6.554,2.962-10.185c-3.552-6.465-6.619-12.049-6.654-23.888   c-0.035-11.837,3-17.44,6.514-23.928c3.924-7.243,8.37-15.453,8.324-31.116c-0.047-15.663-4.543-23.846-8.51-31.066   c-1.994-3.629-6.554-4.957-10.185-2.961c-3.631,1.994-4.957,6.554-2.962,10.185c3.553,6.466,6.621,12.051,6.656,23.888   s-3,17.44-6.514,23.928C249.298,66.177,244.852,74.387,244.897,90.05z"/>
	<path style="fill:#FFCFB2;" d="M194.897,90.198c0.047,15.663,4.542,23.846,8.508,31.065c1.364,2.485,3.932,3.891,6.58,3.891   c1.221,0,2.459-0.298,3.604-0.928c3.631-1.994,4.957-6.554,2.963-10.184c-3.552-6.467-6.619-12.051-6.654-23.89   c-0.035-11.837,3-17.44,6.514-23.928c3.924-7.243,8.37-15.453,8.324-31.116c-0.047-15.663-4.543-23.846-8.51-31.066   c-1.994-3.63-6.554-4.958-10.185-2.961c-3.631,1.994-4.957,6.554-2.962,10.185c3.553,6.466,6.621,12.051,6.656,23.888   s-3,17.44-6.514,23.928C199.298,66.325,194.852,74.535,194.897,90.198z"/>
	<circle cx="95" cy="314.995" r="7.5"/>
	<circle cx="125" cy="344.995" r="7.5"/>
	<path d="M447.5,374.995H425v-45c0-33.411-8.791-66.157-25.402-94.916l3.228-19.016l21.065-21.068H442.5   c15.164,0,27.5-12.337,27.5-27.5s-12.336-27.5-27.5-27.5H440v-2.5c0-15.163-12.336-27.5-27.5-27.5s-27.5,12.337-27.5,27.5v18.609   l-21.064,21.064l-13.091,2.222c-33.435-25.783-73.412-39.396-115.844-39.396c-69.209,0-129.884,37.201-163.105,92.652   c-0.411,0.52-0.749,1.095-1.011,1.708C54.44,262.463,45,295.145,45,329.995v22.5c0,4.143,3.358,7.5,7.5,7.5s7.5-3.357,7.5-7.5   v-22.5c0-31.028,8.127-60.189,22.349-85.485c0.169-0.002,0.333-0.015,0.504-0.015c10.077,0,14.77,3.702,20.712,8.389   c6.559,5.173,14.721,11.611,30.001,11.611c15.28,0,23.442-6.438,30.001-11.611c5.941-4.687,10.635-8.389,20.711-8.389   c10.077,0,14.77,3.702,20.712,8.389c5.432,4.285,11.979,9.426,22.745,11.069c-0.144,1.998-0.237,4.01-0.237,6.042   c0,45.49,37.009,82.5,82.5,82.5c40.386,0,74.586-28.869,81.319-68.643l4.061-23.923c9.597,21.977,14.62,45.83,14.62,70.066v45H22.5   c-12.407,0-22.5,10.094-22.5,22.5s10.093,22.5,22.5,22.5h9.594l5.47,16.411c6.278,18.835,26.749,33.589,46.602,33.589h301.667   c19.854,0,40.324-14.754,46.602-33.589l5.47-16.411h9.594c12.407,0,22.5-10.094,22.5-22.5S459.907,374.995,447.5,374.995z    M214.28,241.106c-6.559-5.173-14.721-11.611-30.001-11.611c-15.28,0-23.442,6.438-30.001,11.611   c-5.941,4.687-10.635,8.389-20.711,8.389c-10.077,0-14.77-3.702-20.712-8.389c-5.229-4.124-11.49-9.042-21.55-10.871   c31.642-45.439,84.25-75.24,143.696-75.24c34.222,0,66.706,9.615,94.93,27.946l-33.784,5.735   c-32.703,5.536-58.017,29.644-65.992,60.486C223.237,248.158,219.179,244.97,214.28,241.106z M310,337.495   c-37.22,0-67.5-30.28-67.5-67.5c0-3.939,0.345-7.802,0.991-11.568c0.029-0.144,0.049-0.291,0.069-0.438   c4.926-27.619,26.582-49.698,55.092-54.524l66.33-11.259l4.331,4.333c1.465,1.466,3.385,2.198,5.305,2.198   c1.919,0,3.838-0.731,5.302-2.195c2.929-2.929,2.931-7.677,0.002-10.606l-1.77-1.771l19.65-19.65   c1.407-1.407,2.197-3.314,2.197-5.304v-21.716c0-6.893,5.607-12.5,12.5-12.5s12.5,5.607,12.5,12.5v10.001   c0,4.142,3.358,7.499,7.5,7.499h10c6.893,0,12.5,5.607,12.5,12.5s-5.607,12.5-12.5,12.5h-21.716c-1.989,0-3.897,0.79-5.304,2.197   l-24.953,24.956c-1.1,1.1-1.83,2.515-2.09,4.048l-11.907,70.149C371.022,313.88,343.042,337.495,310,337.495z M447.5,404.995   h-14.822c-0.033-0.001-0.065,0-0.098,0H97.5c-4.142,0-7.5,3.357-7.5,7.5s3.358,7.5,7.5,7.5h324.594l-3.889,11.667   c-4.216,12.647-19.04,23.333-32.372,23.333H84.167c-13.332,0-28.156-10.686-32.372-23.333l-3.889-11.667H67.5   c4.142,0,7.5-3.357,7.5-7.5s-3.358-7.5-7.5-7.5h-45c-4.136,0-7.5-3.364-7.5-7.5s3.364-7.5,7.5-7.5h425c4.136,0,7.5,3.364,7.5,7.5   S451.636,404.995,447.5,404.995z"/>
	<circle cx="310.5" cy="299.495" r="7.5"/>
</g>















</svg>
