<svg width="13" height="13" viewBox="0 0 13 13" fill="none" xmlns="http://www.w3.org/2000/svg">
<path d="M6.5 1.01562C5.4153 1.01563 4.35495 1.33728 3.45305 1.93991C2.55115 2.54254 1.8482 3.39908 1.4331 4.40122C1.018 5.40336 0.909392 6.50608 1.12101 7.56995C1.33262 8.63381 1.85496 9.61104 2.62196 10.378C3.38897 11.145 4.36619 11.6674 5.43005 11.879C6.49392 12.0906 7.59664 11.982 8.59878 11.5669C9.60092 11.1518 10.4575 10.4489 11.0601 9.54696C11.6627 8.64506 11.9844 7.58471 11.9844 6.5C11.9828 5.04595 11.4044 3.65191 10.3763 2.62374C9.34809 1.59557 7.95405 1.01724 6.5 1.01562ZM6.5 10.7656C5.65634 10.7656 4.83163 10.5155 4.13015 10.0467C3.42867 9.57802 2.88193 8.91183 2.55908 8.13238C2.23622 7.35294 2.15175 6.49527 2.31634 5.66782C2.48093 4.84037 2.88719 4.08031 3.48375 3.48375C4.08031 2.88719 4.84037 2.48093 5.66782 2.31634C6.49527 2.15175 7.35295 2.23622 8.13239 2.55908C8.91183 2.88193 9.57803 3.42867 10.0467 4.13015C10.5155 4.83162 10.7656 5.65634 10.7656 6.5C10.7644 7.63094 10.3146 8.71522 9.51492 9.51492C8.71522 10.3146 7.63095 10.7644 6.5 10.7656ZM9.95313 6.5C9.95313 6.66162 9.88893 6.81661 9.77465 6.93089C9.66037 7.04517 9.50537 7.10938 9.34375 7.10938H6.5C6.33839 7.10938 6.18339 7.04517 6.06911 6.93089C5.95483 6.81661 5.89063 6.66162 5.89063 6.5V3.65625C5.89063 3.49463 5.95483 3.33964 6.06911 3.22536C6.18339 3.11108 6.33839 3.04688 6.5 3.04688C6.66162 3.04688 6.81662 3.11108 6.9309 3.22536C7.04518 3.33964 7.10938 3.49463 7.10938 3.65625V5.89063H9.34375C9.50537 5.89063 9.66037 5.95483 9.77465 6.06911C9.88893 6.18339 9.95313 6.33838 9.95313 6.5Z" fill="#F9832A"/>
</svg>
