<svg width="33" height="32" viewBox="0 0 33 32" fill="none" xmlns="http://www.w3.org/2000/svg">
<path d="M21.3685 10.6438L21.3166 11.0269L21.1734 12.1223L20.7922 15.0066L19.4515 25.1761C19.4515 25.3338 19.3012 25.4777 18.9772 25.5955C18.9213 24.2887 18.6412 23 18.1484 21.7822C16.1795 17.0693 18.3525 13.5679 19.4676 11.7774C19.5478 11.6461 19.6357 11.5194 19.7307 11.3978C19.2492 11.4654 18.7015 11.5209 18.1073 11.5573C17.5255 12.7255 17.0046 14.0931 16.8543 15.4625C16.5267 18.3485 17.9283 19.8981 15.7803 25.8937C15.6138 25.8937 15.4581 25.8937 15.3096 25.8798C15.0894 25.8798 14.8871 25.859 14.701 25.8434C13.448 25.7342 12.886 25.4759 12.886 25.1761L11.0208 11.0269L10.9707 10.6438H21.3685Z" fill="#E22723"/>
<path d="M21.7784 10.6439C21.7784 10.7809 21.6138 10.9109 21.3166 11.027C20.8038 11.2058 20.2718 11.3279 19.7307 11.391C19.2492 11.4586 18.7015 11.5141 18.1072 11.5505C17.513 11.5869 16.8543 11.6111 16.1687 11.6111C13.865 11.6111 11.8854 11.3702 11.0208 11.027C10.7255 10.9109 10.5608 10.7809 10.5608 10.6439C10.5662 10.5986 10.5822 10.555 10.6077 10.5166C10.6331 10.4781 10.6673 10.4458 10.7076 10.4221C10.8276 10.3404 10.959 10.2756 11.0978 10.2297C11.1926 10.195 11.2983 10.1603 11.4164 10.1291C11.5345 10.0979 11.6813 10.0615 11.8317 10.0286C13.2615 9.77552 14.7136 9.65941 16.1669 9.68195C17.1378 9.67922 18.1081 9.72608 19.0738 9.82235C19.5545 9.87007 20.0325 9.94123 20.5058 10.0355C20.6561 10.0685 20.794 10.1014 20.921 10.1361L20.9837 10.1534C21.075 10.1794 21.1627 10.2071 21.2397 10.2366C21.3784 10.2828 21.5097 10.3475 21.6299 10.429C21.67 10.4514 21.7042 10.4825 21.73 10.5197C21.7557 10.557 21.7723 10.5995 21.7784 10.6439Z" fill="#DDD5CC"/>
<path d="M10.5608 10.6439L10.9707 10.0303H21.3685L21.7784 10.6439H10.5608Z" fill="#DDD5CC"/>
<path d="M16.1688 10.9281C19.0406 10.9281 21.3686 10.5261 21.3686 10.0302C21.3686 9.53431 19.0406 9.13232 16.1688 9.13232C13.297 9.13232 10.969 9.53431 10.969 10.0302C10.969 10.5261 13.297 10.9281 16.1688 10.9281Z" fill="#F7F2ED"/>
<path d="M16.1687 10.7582C18.818 10.7582 20.9657 10.4323 20.9657 10.0302C20.9657 9.62818 18.818 9.30225 16.1687 9.30225C13.5193 9.30225 11.3716 9.62818 11.3716 10.0302C11.3716 10.4323 13.5193 10.7582 16.1687 10.7582Z" fill="#EAE3DC"/>
<path d="M16.2923 10.1499C16.5286 10.1499 16.7201 10.1104 16.7201 10.0615C16.7201 10.0127 16.5286 9.97314 16.2923 9.97314C16.056 9.97314 15.8645 10.0127 15.8645 10.0615C15.8645 10.1104 16.056 10.1499 16.2923 10.1499Z" fill="#DD230A"/>
<path d="M16.7201 6.20825H15.8645V10.0528H16.7201V6.20825Z" fill="#DD230A"/>
<path d="M16.2923 6.29667C16.5286 6.29667 16.7201 6.25709 16.7201 6.20827C16.7201 6.15945 16.5286 6.11987 16.2923 6.11987C16.056 6.11987 15.8645 6.15945 15.8645 6.20827C15.8645 6.25709 16.056 6.29667 16.2923 6.29667Z" fill="#C92211"/>
<path d="M19.4676 11.7705C18.3524 13.5611 16.1866 17.0624 18.1484 21.7753C18.6412 22.9931 18.9213 24.2818 18.9771 25.5887C18.4759 25.7724 17.5684 25.8903 16.1687 25.8903C16.0344 25.8903 15.9038 25.8903 15.7803 25.8903C17.9282 19.8947 16.5267 18.3451 16.8542 15.4591C17.0082 14.0949 17.5255 12.7221 18.1072 11.5469C18.7015 11.5105 19.2492 11.4551 19.7307 11.3875C19.6355 11.5102 19.5477 11.6381 19.4676 11.7705Z" fill="#FFEEEE"/>
</svg>
