<svg width="42" height="42" viewBox="0 0 32 32" fill="none" xmlns="http://www.w3.org/2000/svg">
<path d="M22.2312 15.7216C22.16 17.9747 18.4198 17.9666 13.8102 17.7834C9.20059 17.6002 5.46731 17.3082 5.53611 15.0578C5.53874 14.9879 5.54453 14.9182 5.55345 14.8489C5.71503 16.917 9.35918 17.1831 13.8216 17.3679C18.2841 17.5527 21.9357 17.5551 22.2287 15.5035C22.2332 15.5761 22.234 15.6489 22.2312 15.7216Z" fill="#9B7249"/>
<path d="M22.2286 15.5036C21.9376 17.5486 18.2888 17.5363 13.8244 17.3581C9.36006 17.1799 5.71927 16.9023 5.55625 14.8392C5.8485 12.696 9.54712 11.1317 14.011 11.3061C18.4749 11.4805 22.0668 13.3423 22.2286 15.5036Z" fill="#B08655"/>
<path d="M10.6463 13.7439C10.8733 13.6788 11.0262 13.4868 10.9878 13.3151C10.9493 13.1434 10.7342 13.0571 10.5072 13.1223C10.2802 13.1874 10.1273 13.3794 10.1658 13.5511C10.2042 13.7227 10.4194 13.8091 10.6463 13.7439Z" fill="#755330"/>
<path d="M11.5546 15.9197C11.7815 15.8546 11.9344 15.6626 11.896 15.4909C11.8575 15.3192 11.6424 15.2329 11.4154 15.298C11.1884 15.3632 11.0355 15.5552 11.074 15.7269C11.1124 15.8985 11.3276 15.9849 11.5546 15.9197Z" fill="#755330"/>
<path d="M9.82921 15.2071C10.0562 15.1419 10.2091 14.9499 10.1706 14.7782C10.1322 14.6066 9.91703 14.5202 9.69005 14.5854C9.46306 14.6505 9.31021 14.8425 9.34864 15.0142C9.38706 15.1859 9.60222 15.2722 9.82921 15.2071Z" fill="#755330"/>
<path d="M14.1482 13.2918C14.3788 13.3248 14.5818 13.2084 14.6015 13.0317C14.6212 12.8551 14.4503 12.6851 14.2196 12.6521C13.989 12.6191 13.786 12.7355 13.7663 12.9121C13.7466 13.0888 13.9176 13.2588 14.1482 13.2918Z" fill="#755330"/>
<path d="M15.1404 14.2432C15.371 14.2762 15.574 14.1598 15.5937 13.9831C15.6134 13.8065 15.4424 13.6365 15.2118 13.6035C14.9812 13.5705 14.7782 13.6869 14.7585 13.8636C14.7388 14.0402 14.9097 14.2102 15.1404 14.2432Z" fill="#755330"/>
<path d="M14.8597 15.4435C15.0826 15.5184 15.2995 15.4407 15.3443 15.27C15.389 15.0993 15.2446 14.9002 15.0217 14.8253C14.7988 14.7504 14.5819 14.8281 14.5372 14.9988C14.4924 15.1695 14.6368 15.3686 14.8597 15.4435Z" fill="#755330"/>
<path d="M13.8887 12.1204C14.1193 12.1534 14.3223 12.037 14.342 11.8603C14.3617 11.6837 14.1907 11.5137 13.9601 11.4807C13.7295 11.4477 13.5265 11.5641 13.5068 11.7408C13.487 11.9174 13.658 12.0874 13.8887 12.1204Z" fill="#755330"/>
<path d="M17.5285 15.2845C17.7618 15.2618 17.9401 15.1004 17.9267 14.924C17.9133 14.7475 17.7134 14.6228 17.4801 14.6455C17.2467 14.6682 17.0685 14.8296 17.0818 15.006C17.0952 15.1825 17.2951 15.3071 17.5285 15.2845Z" fill="#755330"/>
<path d="M18.64 13.7271C18.867 13.6619 19.0198 13.4699 18.9814 13.2983C18.943 13.1266 18.7278 13.0403 18.5008 13.1054C18.2738 13.1706 18.121 13.3626 18.1594 13.5342C18.1979 13.7059 18.413 13.7922 18.64 13.7271Z" fill="#755330"/>
<path d="M16.7126 13.48C16.9433 13.513 17.1462 13.3966 17.166 13.2199C17.1857 13.0433 17.0147 12.8733 16.7841 12.8403C16.5534 12.8073 16.3505 12.9237 16.3307 13.1004C16.311 13.277 16.482 13.447 16.7126 13.48Z" fill="#755330"/>
<path d="M17.5811 12.9486C17.8113 12.9819 18.014 12.866 18.0339 12.6896C18.0538 12.5133 17.8833 12.3434 17.6531 12.3101C17.4229 12.2768 17.2202 12.3927 17.2003 12.569C17.1804 12.7453 17.3509 12.9152 17.5811 12.9486Z" fill="#755330"/>
<path d="M13.0594 14.8468C13.2823 14.9217 13.4992 14.844 13.544 14.6733C13.5887 14.5026 13.4443 14.3035 13.2214 14.2286C12.9985 14.1537 12.7816 14.2314 12.7369 14.4021C12.6921 14.5728 12.8366 14.7719 13.0594 14.8468Z" fill="#755330"/>
<path d="M19.4977 16.3543C19.7205 16.4292 19.9375 16.3516 19.9822 16.1809C20.0269 16.0102 19.8825 15.8111 19.6596 15.7362C19.4368 15.6613 19.2198 15.739 19.1751 15.9097C19.1304 16.0804 19.2748 16.2795 19.4977 16.3543Z" fill="#755330"/>
<path d="M11.7737 12.2649C12.0043 12.2979 12.2073 12.1815 12.227 12.0049C12.2467 11.8282 12.0757 11.6582 11.8451 11.6252C11.6145 11.5922 11.4115 11.7086 11.3918 11.8853C11.3721 12.0619 11.543 12.2319 11.7737 12.2649Z" fill="#755330"/>
<path d="M12.5955 13.5061C12.8261 13.5392 13.0291 13.4227 13.0488 13.2461C13.0685 13.0694 12.8975 12.8994 12.6669 12.8664C12.4362 12.8334 12.2333 12.9498 12.2136 13.1265C12.1938 13.3031 12.3648 13.4731 12.5955 13.5061Z" fill="#755330"/>
<path d="M8.92871 13.4954C9.15935 13.5284 9.36231 13.412 9.38203 13.2353C9.40176 13.0587 9.23077 12.8887 9.00013 12.8557C8.76949 12.8227 8.56653 12.9391 8.54681 13.1158C8.52709 13.2924 8.69807 13.4624 8.92871 13.4954Z" fill="#755330"/>
<path d="M15.55 12.3208C15.7807 12.3539 15.9837 12.2374 16.0034 12.0608C16.0231 11.8841 15.8521 11.7141 15.6215 11.6811C15.3908 11.6481 15.1879 11.7645 15.1681 11.9412C15.1484 12.1178 15.3194 12.2878 15.55 12.3208Z" fill="#755330"/>
<path opacity="0.67" d="M16.4579 12.9205C15.2596 13.0624 10.0471 14.9315 9.74785 17.1266C9.44861 19.3216 22.7107 16.4368 22.7107 16.4368C22.7107 16.4368 22.8649 14.9792 21.2468 13.811C19.6288 12.6428 18.0768 12.7203 16.4579 12.9205Z" fill="#755330"/>
<path d="M26.3602 17.6861C26.4311 19.9397 22.6993 20.2317 18.088 20.42C13.4767 20.6083 9.73703 20.6179 9.66327 18.3704C9.65981 18.3002 9.66114 18.2297 9.66725 18.1596C9.95917 20.2037 13.6086 20.1877 18.0747 20.0034C22.5408 19.8192 26.1779 19.5416 26.3415 17.4795C26.3505 17.5474 26.3567 17.6162 26.3602 17.6861Z" fill="#9B7249"/>
<path d="M26.3422 17.4741C26.1814 19.5301 22.5387 19.8161 18.0754 19.998C13.6121 20.18 9.96198 20.1937 9.66794 18.1543C9.82774 15.9882 13.4231 14.1313 17.8823 13.9469C22.3416 13.7625 26.0478 15.3269 26.3422 17.4741Z" fill="#B08655"/>
<path d="M14.6809 16.6431C14.9032 16.5598 15.0437 16.356 14.9946 16.1879C14.9455 16.0197 14.7255 15.9509 14.5032 16.0341C14.2808 16.1173 14.1404 16.3211 14.1895 16.4893C14.2385 16.6574 14.4586 16.7263 14.6809 16.6431Z" fill="#755330"/>
<path d="M15.7217 18.7375C15.944 18.6543 16.0845 18.4505 16.0354 18.2824C15.9863 18.1142 15.7663 18.0454 15.5439 18.1286C15.3216 18.2118 15.1811 18.4156 15.2302 18.5838C15.2793 18.7519 15.4993 18.8208 15.7217 18.7375Z" fill="#755330"/>
<path d="M13.9563 18.165C14.1786 18.0818 14.3191 17.878 14.27 17.7099C14.2209 17.5417 14.0009 17.4729 13.7785 17.5561C13.5562 17.6393 13.4158 17.8431 13.4649 18.0113C13.5139 18.1794 13.734 18.2483 13.9563 18.165Z" fill="#755330"/>
<path d="M18.1455 15.9099C18.3776 15.9243 18.5728 15.7919 18.5814 15.6141C18.59 15.4363 18.4088 15.2805 18.1767 15.2661C17.9445 15.2517 17.7494 15.3841 17.7408 15.5619C17.7322 15.7397 17.9134 15.8955 18.1455 15.9099Z" fill="#755330"/>
<path d="M19.195 16.7771C19.4272 16.7915 19.6223 16.6591 19.6309 16.4813C19.6395 16.3035 19.4583 16.1477 19.2262 16.1333C18.9941 16.1189 18.7989 16.2513 18.7903 16.4291C18.7817 16.6069 18.9629 16.7627 19.195 16.7771Z" fill="#755330"/>
<path d="M18.728 18.636C18.9601 18.6504 19.1553 18.518 19.1639 18.3402C19.1725 18.1624 18.9913 18.0066 18.7592 17.9922C18.527 17.9777 18.3319 18.1102 18.3233 18.288C18.3147 18.4658 18.4959 18.6216 18.728 18.636Z" fill="#755330"/>
<path d="M17.8125 14.7625C18.0446 14.7769 18.2398 14.6444 18.2484 14.4666C18.257 14.2888 18.0758 14.133 17.8436 14.1186C17.6115 14.1042 17.4164 14.2367 17.4078 14.4144C17.3991 14.5922 17.5803 14.748 17.8125 14.7625Z" fill="#755330"/>
<path d="M21.2925 17.7805C21.5148 17.6973 21.6553 17.4935 21.6062 17.3253C21.5571 17.1572 21.3371 17.0883 21.1147 17.1716C20.8924 17.2548 20.7519 17.4586 20.801 17.6267C20.8501 17.7949 21.0702 17.8637 21.2925 17.7805Z" fill="#755330"/>
<path d="M22.7217 16.681C22.955 16.7043 23.1552 16.5802 23.169 16.4038C23.1827 16.2274 23.0047 16.0655 22.7715 16.0422C22.5382 16.0189 22.338 16.143 22.3242 16.3194C22.3105 16.4958 22.4885 16.6577 22.7217 16.681Z" fill="#755330"/>
<path d="M20.7163 15.8906C20.9484 15.905 21.1436 15.7726 21.1522 15.5948C21.1608 15.417 20.9796 15.2612 20.7475 15.2468C20.5153 15.2324 20.3202 15.3648 20.3116 15.5426C20.303 15.7204 20.4842 15.8762 20.7163 15.8906Z" fill="#755330"/>
<path d="M21.9543 15.4563C22.1864 15.4707 22.3816 15.3383 22.3902 15.1605C22.3988 14.9827 22.2176 14.8269 21.9855 14.8125C21.7534 14.7981 21.5582 14.9305 21.5496 15.1083C21.541 15.2861 21.7222 15.4419 21.9543 15.4563Z" fill="#755330"/>
<path d="M17.4106 17.96C17.6427 17.9744 17.8379 17.8419 17.8465 17.6641C17.8551 17.4864 17.6739 17.3305 17.4418 17.3161C17.2097 17.3017 17.0145 17.4342 17.0059 17.612C16.9973 17.7897 17.1785 17.9456 17.4106 17.96Z" fill="#755330"/>
<path d="M23.4267 18.3047C23.6589 18.3191 23.854 18.1867 23.8626 18.0089C23.8712 17.8311 23.69 17.6753 23.4579 17.6609C23.2258 17.6464 23.0306 17.7789 23.022 17.9567C23.0134 18.1345 23.1946 18.2903 23.4267 18.3047Z" fill="#755330"/>
<path d="M15.7116 15.0754C15.9438 15.0899 16.1389 14.9574 16.1475 14.7796C16.1561 14.6018 15.9749 14.446 15.7428 14.4316C15.5107 14.4172 15.3155 14.5496 15.3069 14.7274C15.2983 14.9052 15.4795 15.061 15.7116 15.0754Z" fill="#755330"/>
<path d="M16.6106 16.2468C16.8427 16.2612 17.0379 16.1288 17.0465 15.951C17.0551 15.7732 16.8739 15.6174 16.6417 15.603C16.4096 15.5886 16.2145 15.721 16.2058 15.8988C16.1972 16.0766 16.3784 16.2324 16.6106 16.2468Z" fill="#755330"/>
<path d="M12.9516 16.5313C13.1838 16.5457 13.3789 16.4132 13.3875 16.2354C13.3961 16.0576 13.2149 15.9018 12.9828 15.8874C12.7507 15.873 12.5555 16.0055 12.5469 16.1832C12.5383 16.361 12.7195 16.5168 12.9516 16.5313Z" fill="#755330"/>
<path d="M19.4826 14.8286C19.7148 14.843 19.9099 14.7106 19.9185 14.5328C19.9271 14.355 19.7459 14.1992 19.5138 14.1848C19.2817 14.1704 19.0865 14.3028 19.0779 14.4806C19.0693 14.6584 19.2505 14.8142 19.4826 14.8286Z" fill="#755330"/>
</svg>
