<svg width="8" height="8" viewBox="0 0 8 8" fill="none" xmlns="http://www.w3.org/2000/svg">
<g clip-path="url(#clip0_1716_9412)">
<path d="M4 0.625C3.33249 0.625 2.67997 0.82294 2.12495 1.19379C1.56994 1.56464 1.13735 2.09174 0.881908 2.70844C0.626462 3.32514 0.559626 4.00374 0.689851 4.65843C0.820076 5.31312 1.14151 5.91448 1.61352 6.38649C2.08552 6.85849 2.68689 7.17993 3.34157 7.31015C3.99626 7.44038 4.67486 7.37354 5.29156 7.11809C5.90826 6.86265 6.43536 6.43007 6.80621 5.87505C7.17706 5.32003 7.375 4.66751 7.375 4C7.37401 3.1052 7.01811 2.24733 6.38539 1.61461C5.75267 0.981891 4.8948 0.625993 4 0.625ZM4 6.625C3.48083 6.625 2.97331 6.47105 2.54163 6.18261C2.10995 5.89417 1.7735 5.4842 1.57482 5.00454C1.37614 4.52489 1.32415 3.99709 1.42544 3.48789C1.52673 2.97869 1.77673 2.51096 2.14385 2.14384C2.51096 1.77673 2.97869 1.52672 3.48789 1.42544C3.99709 1.32415 4.52489 1.37614 5.00455 1.57482C5.4842 1.7735 5.89417 2.10995 6.18261 2.54163C6.47105 2.97331 6.625 3.48082 6.625 4C6.62426 4.69596 6.34746 5.36321 5.85533 5.85533C5.36321 6.34745 4.69597 6.62426 4 6.625ZM5.29969 4.97531C5.09499 5.24805 4.80967 5.44947 4.48414 5.55106C4.15862 5.65265 3.80938 5.64926 3.48589 5.54136C3.1624 5.43347 2.88105 5.22654 2.68169 4.94988C2.48232 4.67322 2.37504 4.34085 2.37504 3.99984C2.37504 3.65883 2.48232 3.32647 2.68169 3.04981C2.88105 2.77315 3.1624 2.56622 3.48589 2.45833C3.80938 2.35043 4.15862 2.34704 4.48414 2.44863C4.80967 2.55022 5.09499 2.75164 5.29969 3.02437C5.33035 3.06364 5.35288 3.10863 5.36595 3.1567C5.37903 3.20478 5.3824 3.25497 5.37586 3.30436C5.36933 3.35375 5.35301 3.40135 5.32787 3.44436C5.30274 3.48737 5.26928 3.52495 5.22946 3.55489C5.18964 3.58482 5.14425 3.60653 5.09594 3.61873C5.04764 3.63093 4.99739 3.63338 4.94813 3.62595C4.89886 3.61851 4.85158 3.60133 4.80903 3.57541C4.76648 3.5495 4.72952 3.51536 4.70031 3.475C4.59013 3.32808 4.4365 3.21956 4.26121 3.1648C4.08592 3.11004 3.89784 3.11183 3.72361 3.1699C3.54939 3.22798 3.39786 3.3394 3.29048 3.48838C3.1831 3.63736 3.12531 3.81635 3.12531 4C3.12531 4.18365 3.1831 4.36264 3.29048 4.51162C3.39786 4.6606 3.54939 4.77202 3.72361 4.8301C3.89784 4.88817 4.08592 4.88996 4.26121 4.8352C4.4365 4.78044 4.59013 4.67192 4.70031 4.525C4.72927 4.48405 4.76615 4.44932 4.80877 4.42287C4.85139 4.39643 4.89887 4.3788 4.94843 4.37103C4.99798 4.36326 5.04858 4.36551 5.09725 4.37765C5.14591 4.38979 5.19165 4.41157 5.23175 4.44169C5.27185 4.47182 5.3055 4.50969 5.33071 4.55305C5.35591 4.59641 5.37216 4.64439 5.3785 4.69414C5.38483 4.7439 5.38112 4.79442 5.36758 4.84271C5.35405 4.89101 5.33096 4.9361 5.29969 4.97531Z" fill="#545454"/>
</g>
<defs>
<clipPath id="clip0_1716_9412">
<rect width="8" height="8" fill="white"/>
</clipPath>
</defs>
</svg>
