<svg width="13" height="16" viewBox="0 0 13 16" fill="none" xmlns="http://www.w3.org/2000/svg">
<path d="M11.2812 14.375H7.9968C8.54854 13.8823 9.06885 13.3556 9.55469 12.7979C11.3775 10.7014 12.3438 8.49141 12.3438 6.40625C12.3438 4.85639 11.7281 3.37001 10.6322 2.27409C9.53624 1.17818 8.04986 0.5625 6.5 0.5625C4.95014 0.5625 3.46376 1.17818 2.36784 2.27409C1.27193 3.37001 0.65625 4.85639 0.65625 6.40625C0.65625 8.49141 1.6198 10.7014 3.44531 12.7979C3.93115 13.3556 4.45146 13.8823 5.0032 14.375H1.71875C1.57785 14.375 1.44273 14.431 1.3431 14.5306C1.24347 14.6302 1.1875 14.7654 1.1875 14.9062C1.1875 15.0471 1.24347 15.1823 1.3431 15.2819C1.44273 15.3815 1.57785 15.4375 1.71875 15.4375H11.2812C11.4221 15.4375 11.5573 15.3815 11.6569 15.2819C11.7565 15.1823 11.8125 15.0471 11.8125 14.9062C11.8125 14.7654 11.7565 14.6302 11.6569 14.5306C11.5573 14.431 11.4221 14.375 11.2812 14.375ZM1.71875 6.40625C1.71875 5.13818 2.22249 3.92205 3.11915 3.0254C4.0158 2.12874 5.23193 1.625 6.5 1.625C7.76807 1.625 8.9842 2.12874 9.88085 3.0254C10.7775 3.92205 11.2812 5.13818 11.2812 6.40625C11.2812 10.2067 7.5977 13.3789 6.5 14.2422C5.4023 13.3789 1.71875 10.2067 1.71875 6.40625ZM9.15625 6.40625C9.15625 5.88089 9.00046 5.36733 8.70859 4.93052C8.41672 4.4937 8.00187 4.15324 7.5165 3.95219C7.03114 3.75115 6.49705 3.69855 5.98179 3.80104C5.46653 3.90353 4.99323 4.15651 4.62175 4.528C4.25026 4.89948 3.99728 5.37278 3.89479 5.88804C3.7923 6.4033 3.8449 6.93739 4.04594 7.42275C4.24699 7.90812 4.58745 8.32297 5.02427 8.61484C5.46108 8.90671 5.97464 9.0625 6.5 9.0625C7.20448 9.0625 7.88011 8.78265 8.37825 8.2845C8.8764 7.78636 9.15625 7.11073 9.15625 6.40625ZM4.90625 6.40625C4.90625 6.09104 4.99972 5.7829 5.17485 5.52081C5.34997 5.25872 5.59888 5.05444 5.8901 4.93382C6.18132 4.81319 6.50177 4.78163 6.81093 4.84312C7.12008 4.90462 7.40406 5.05641 7.62695 5.2793C7.84984 5.50219 8.00163 5.78617 8.06313 6.09532C8.12462 6.40448 8.09306 6.72493 7.97243 7.01615C7.85181 7.30737 7.64753 7.55628 7.38544 7.7314C7.12335 7.90653 6.81521 8 6.5 8C6.07731 8 5.67193 7.83209 5.37305 7.5332C5.07416 7.23432 4.90625 6.82894 4.90625 6.40625Z" fill="#545454"/>
</svg>
