<svg width="48" height="28" viewBox="0 0 48 28" fill="none" xmlns="http://www.w3.org/2000/svg">
<g filter="url(#filter0_d_1526_2893)">
<path d="M4 7C4 4.23857 6.23858 2 9 2H33.9986C39.4564 2 43.8807 6.42438 43.8807 11.8821V11.8821C43.8807 17.3399 39.4564 21.7643 33.9986 21.7643H4V7Z" fill="#FF9240"/>
</g>
<path d="M6.49255 27.2204C4.49851 27.6569 4 23.7648 4 21.7642H6.49255V27.2204Z" fill="#FF6E00"/>
<path d="M12.5489 15.9818C12.047 15.9818 11.5996 15.8894 11.2066 15.7048C10.816 15.5201 10.5058 15.2656 10.2762 14.9413C10.0466 14.6169 9.92701 14.2453 9.91754 13.8262H11.409C11.4256 14.1079 11.544 14.3364 11.7641 14.5116C11.9843 14.6868 12.2459 14.7744 12.5489 14.7744C12.7904 14.7744 13.0035 14.7211 13.1881 14.6146C13.3752 14.5057 13.5208 14.3553 13.6249 14.1636C13.7315 13.9694 13.7847 13.7469 13.7847 13.496C13.7847 13.2403 13.7303 13.0154 13.6214 12.8212C13.5148 12.6271 13.3669 12.4756 13.1775 12.3667C12.9881 12.2578 12.7715 12.2022 12.5276 12.1998C12.3146 12.1998 12.1074 12.2436 11.9062 12.3312C11.7073 12.4188 11.5522 12.5383 11.441 12.6899L10.0738 12.4448L10.4182 8.6096H14.8643V9.8667H11.686L11.4978 11.6884H11.5404C11.6682 11.5085 11.8612 11.3594 12.1192 11.241C12.3773 11.1226 12.6661 11.0634 12.9857 11.0634C13.4237 11.0634 13.8143 11.1664 14.1576 11.3724C14.5009 11.5783 14.7719 11.8613 14.9708 12.2211C15.1697 12.5786 15.2679 12.9905 15.2656 13.4569C15.2679 13.947 15.1543 14.3826 14.9246 14.7637C14.6974 15.1425 14.379 15.4408 13.9694 15.6586C13.5622 15.874 13.0887 15.9818 12.5489 15.9818ZM18.9096 16.0421C18.2988 16.0398 17.7732 15.8894 17.3329 15.5911C16.8949 15.2928 16.5575 14.8608 16.3208 14.295C16.0864 13.7292 15.9704 13.0485 15.9728 12.2531C15.9728 11.46 16.09 10.7841 16.3243 10.2254C16.5611 9.66665 16.8984 9.2417 17.3364 8.95051C17.7767 8.65695 18.3011 8.51016 18.9096 8.51016C19.518 8.51016 20.0412 8.65695 20.4792 8.95051C20.9195 9.24407 21.258 9.6702 21.4948 10.2289C21.7315 10.7853 21.8487 11.46 21.8463 12.2531C21.8463 13.0509 21.728 13.7327 21.4912 14.2985C21.2569 14.8643 20.9207 15.2964 20.4827 15.5947C20.0447 15.893 19.5204 16.0421 18.9096 16.0421ZM18.9096 14.7673C19.3262 14.7673 19.6588 14.5578 19.9074 14.1387C20.156 13.7197 20.2791 13.0911 20.2767 12.2531C20.2767 11.7015 20.2199 11.2422 20.1063 10.8752C19.995 10.5083 19.8364 10.2325 19.6304 10.0478C19.4268 9.86315 19.1865 9.77082 18.9096 9.77082C18.4953 9.77082 18.1638 9.97797 17.9152 10.3923C17.6667 10.8066 17.5412 11.4268 17.5388 12.2531C17.5388 12.8118 17.5945 13.2782 17.7057 13.6522C17.8194 14.0239 17.9792 14.3033 18.1851 14.4903C18.3911 14.6749 18.6326 14.7673 18.9096 14.7673ZM26.6436 14.5187V14.1352C26.6436 13.844 26.7051 13.5765 26.8282 13.3326C26.9537 13.0864 27.1348 12.8899 27.3716 12.7431C27.6107 12.594 27.9019 12.5194 28.2451 12.5194C28.5932 12.5194 28.8855 12.5928 29.1223 12.7396C29.3614 12.8863 29.5413 13.0828 29.662 13.3291C29.7852 13.5729 29.8467 13.8416 29.8467 14.1352V14.5187C29.8467 14.8099 29.7852 15.0786 29.662 15.3248C29.5389 15.5686 29.3578 15.764 29.1187 15.9107C28.8796 16.0599 28.5884 16.1345 28.2451 16.1345C27.8971 16.1345 27.6048 16.0599 27.368 15.9107C27.1313 15.764 26.9513 15.5686 26.8282 15.3248C26.7051 15.0786 26.6436 14.8099 26.6436 14.5187ZM27.677 14.1352V14.5187C27.677 14.6868 27.7172 14.8454 27.7977 14.9945C27.8806 15.1437 28.0297 15.2183 28.2451 15.2183C28.4606 15.2183 28.6074 15.1449 28.6855 14.9981C28.766 14.8513 28.8062 14.6915 28.8062 14.5187V14.1352C28.8062 13.9623 28.7683 13.8014 28.6926 13.6522C28.6168 13.5031 28.4677 13.4285 28.2451 13.4285C28.0321 13.4285 27.8841 13.5031 27.8013 13.6522C27.7184 13.8014 27.677 13.9623 27.677 14.1352ZM22.9113 10.3568V9.97323C22.9113 9.67967 22.9741 9.41097 23.0995 9.16712C23.225 8.92091 23.4061 8.72442 23.6429 8.57764C23.882 8.43086 24.1708 8.35747 24.5094 8.35747C24.8597 8.35747 25.1533 8.43086 25.39 8.57764C25.6268 8.72442 25.8067 8.92091 25.9298 9.16712C26.0529 9.41097 26.1145 9.67967 26.1145 9.97323V10.3568C26.1145 10.6503 26.0517 10.919 25.9263 11.1629C25.8031 11.4067 25.622 11.602 25.3829 11.7488C25.1462 11.8932 24.855 11.9654 24.5094 11.9654C24.1637 11.9654 23.8713 11.892 23.6322 11.7453C23.3955 11.5961 23.2156 11.4008 23.0924 11.1593C22.9717 10.9155 22.9113 10.6479 22.9113 10.3568ZM23.9518 9.97323V10.3568C23.9518 10.5296 23.9921 10.6894 24.0726 10.8362C24.1554 10.9829 24.301 11.0563 24.5094 11.0563C24.7272 11.0563 24.8751 10.9829 24.9532 10.8362C25.0337 10.6894 25.074 10.5296 25.074 10.3568V9.97323C25.074 9.80041 25.0361 9.63943 24.9603 9.49028C24.8846 9.34113 24.7343 9.26656 24.5094 9.26656C24.2986 9.26656 24.1531 9.34231 24.0726 9.49383C23.9921 9.64534 23.9518 9.80515 23.9518 9.97323ZM23.3801 15.8823L28.3801 8.6096H29.3105L24.3105 15.8823H23.3801Z" fill="white"/>
<path d="M34.5245 7.78084C35.0512 7.25016 35.911 7.25016 36.4422 7.77679L36.7708 8.10491C36.8969 8.23094 37.0679 8.30341 37.248 8.30341H37.7117C38.4589 8.30341 39.0667 8.9106 39.0667 9.65777V10.1218C39.0667 10.3014 39.1387 10.4725 39.2647 10.5985L39.5889 10.9226C39.8455 11.1746 39.985 11.5167 39.985 11.8768C39.9895 12.2369 39.85 12.5794 39.5979 12.8355L39.2647 13.1686C39.1387 13.2946 39.0667 13.4656 39.0667 13.6461V14.1093C39.0667 14.8565 38.4589 15.4646 37.7117 15.4646H37.248C37.0679 15.4646 36.8969 15.5361 36.7708 15.6622L36.4467 15.9862C36.1811 16.2522 35.8345 16.3823 35.4879 16.3823C35.1412 16.3823 34.7946 16.2522 34.529 15.9912L34.2004 15.6622C34.0744 15.5361 33.9033 15.4646 33.7232 15.4646H33.2596C32.5123 15.4646 31.9046 14.8565 31.9046 14.1093V13.6461C31.9046 13.4656 31.8325 13.2946 31.7065 13.1641L31.3824 12.8445C30.8557 12.3183 30.8512 11.4582 31.3779 10.9275L31.7065 10.5985C31.8325 10.4725 31.9046 10.3014 31.9046 10.1169V9.65777C31.9046 8.9106 32.5123 8.30341 33.2596 8.30341H33.7232C33.9033 8.30341 34.0744 8.23094 34.2004 8.10491L34.5245 7.78084ZM36.6448 12.6465C36.4242 12.6465 36.2486 12.8225 36.2486 13.0381C36.2486 13.2586 36.4242 13.4341 36.6448 13.4341C36.8609 13.4341 37.0364 13.2586 37.0364 13.0381C37.0364 12.8225 36.8609 12.6465 36.6448 12.6465ZM36.9194 10.4455C36.7663 10.2929 36.5187 10.2929 36.3657 10.4455L34.0519 12.759C33.8988 12.912 33.8988 13.1641 34.0519 13.3171C34.1239 13.3936 34.2229 13.4341 34.3265 13.4341C34.4345 13.4341 34.5335 13.3936 34.6056 13.3171L36.9194 11.004C37.0724 10.851 37.0724 10.5985 36.9194 10.4455ZM34.331 10.3329C34.1149 10.3329 33.9348 10.5085 33.9348 10.7245C33.9348 10.9455 34.1149 11.1206 34.331 11.1206C34.547 11.1206 34.7226 10.9455 34.7226 10.7245C34.7226 10.5085 34.547 10.3329 34.331 10.3329Z" fill="#FEFEFE"/>
<defs>
<filter id="filter0_d_1526_2893" x="0" y="0" width="47.8809" height="27.7642" filterUnits="userSpaceOnUse" color-interpolation-filters="sRGB">
<feFlood flood-opacity="0" result="BackgroundImageFix"/>
<feColorMatrix in="SourceAlpha" type="matrix" values="0 0 0 0 0 0 0 0 0 0 0 0 0 0 0 0 0 0 127 0" result="hardAlpha"/>
<feOffset dy="2"/>
<feGaussianBlur stdDeviation="2"/>
<feComposite in2="hardAlpha" operator="out"/>
<feColorMatrix type="matrix" values="0 0 0 0 0 0 0 0 0 0 0 0 0 0 0 0 0 0 0.25 0"/>
<feBlend mode="normal" in2="BackgroundImageFix" result="effect1_dropShadow_1526_2893"/>
<feBlend mode="normal" in="SourceGraphic" in2="effect1_dropShadow_1526_2893" result="shape"/>
</filter>
</defs>
</svg>
