<svg width="89" height="37" viewBox="0 0 89 37" fill="none" xmlns="http://www.w3.org/2000/svg">
<path d="M0 0H89V27C89 32.5228 84.5229 37 79 37H0V0Z" fill="#F9832A"/>
<path d="M8.658 12.76H11.206C12.1907 12.76 13.0027 12.9583 13.642 13.355C14.286 13.747 14.7667 14.2907 15.084 14.986C15.4013 15.6813 15.56 16.477 15.56 17.373C15.56 18.2737 15.4013 19.0717 15.084 19.767C14.7667 20.4623 14.286 21.0083 13.642 21.405C13.0027 21.8017 12.1907 22 11.206 22H8.658V12.76ZM10.394 14.321V20.439H11.052C11.654 20.439 12.1487 20.3083 12.536 20.047C12.928 19.781 13.2197 19.417 13.411 18.955C13.607 18.493 13.705 17.9703 13.705 17.387C13.7097 16.799 13.6163 16.274 13.425 15.812C13.2337 15.35 12.9397 14.986 12.543 14.72C12.151 14.454 11.654 14.321 11.052 14.321H10.394ZM16.9861 22V16.253H18.7571V22H16.9861ZM17.8961 14.769C17.6021 14.769 17.3525 14.6663 17.1471 14.461C16.9465 14.2557 16.8461 14.0107 16.8461 13.726C16.8461 13.4413 16.9488 13.194 17.1541 12.984C17.3595 12.774 17.6068 12.669 17.8961 12.669C18.0875 12.669 18.2625 12.718 18.4211 12.816C18.5798 12.9093 18.7081 13.0353 18.8061 13.194C18.9041 13.3527 18.9531 13.53 18.9531 13.726C18.9531 14.0107 18.8481 14.2557 18.6381 14.461C18.4328 14.6663 18.1855 14.769 17.8961 14.769ZM22.7895 16.085C23.1348 16.085 23.4545 16.1177 23.7485 16.183C24.0425 16.2437 24.2898 16.3137 24.4905 16.393C24.6958 16.4723 24.8311 16.54 24.8965 16.596L24.2875 17.667C24.1941 17.5923 24.0261 17.5037 23.7835 17.401C23.5455 17.2983 23.2795 17.247 22.9855 17.247C22.7195 17.247 22.4955 17.2937 22.3135 17.387C22.1315 17.4757 22.0405 17.611 22.0405 17.793C22.0405 17.975 22.1385 18.1197 22.3345 18.227C22.5305 18.3343 22.8035 18.4277 23.1535 18.507C23.4475 18.5677 23.7368 18.661 24.0215 18.787C24.3061 18.9083 24.5418 19.0857 24.7285 19.319C24.9151 19.5477 25.0085 19.8533 25.0085 20.236C25.0085 20.614 24.9268 20.929 24.7635 21.181C24.6048 21.4283 24.3925 21.6243 24.1265 21.769C23.8605 21.9137 23.5688 22.0163 23.2515 22.077C22.9341 22.1377 22.6191 22.168 22.3065 22.168C21.9005 22.168 21.5435 22.1283 21.2355 22.049C20.9275 21.9743 20.6731 21.888 20.4725 21.79C20.2765 21.6873 20.1365 21.601 20.0525 21.531L20.6615 20.341C20.7828 20.4483 20.9811 20.5673 21.2565 20.698C21.5365 20.824 21.8375 20.887 22.1595 20.887C22.4955 20.887 22.7591 20.8287 22.9505 20.712C23.1465 20.5953 23.2445 20.439 23.2445 20.243C23.2445 20.0983 23.1978 19.9817 23.1045 19.893C23.0111 19.7997 22.8828 19.7227 22.7195 19.662C22.5561 19.6013 22.3648 19.5477 22.1455 19.501C21.9448 19.459 21.7395 19.3983 21.5295 19.319C21.3195 19.235 21.1235 19.1253 20.9415 18.99C20.7595 18.8547 20.6125 18.6867 20.5005 18.486C20.3885 18.2807 20.3325 18.0357 20.3325 17.751C20.3325 17.387 20.4491 17.0837 20.6825 16.841C20.9158 16.5937 21.2191 16.407 21.5925 16.281C21.9658 16.1503 22.3648 16.085 22.7895 16.085ZM30.0194 16.253H32.0634L29.2564 18.997L32.3154 22H30.2224L27.8354 19.599V22H26.0574V12.368H27.8354V18.36L30.0194 16.253ZM35.5412 22.168C34.9298 22.168 34.3838 22.0373 33.9032 21.776C33.4272 21.5147 33.0538 21.1577 32.7832 20.705C32.5125 20.2477 32.3772 19.7273 32.3772 19.144C32.3772 18.5607 32.5125 18.0403 32.7832 17.583C33.0538 17.121 33.4272 16.757 33.9032 16.491C34.3838 16.2203 34.9298 16.085 35.5412 16.085C36.1572 16.085 36.7008 16.2203 37.1722 16.491C37.6435 16.757 38.0122 17.121 38.2782 17.583C38.5442 18.0403 38.6772 18.5607 38.6772 19.144C38.6772 19.7273 38.5442 20.2477 38.2782 20.705C38.0122 21.1577 37.6435 21.5147 37.1722 21.776C36.7008 22.0373 36.1572 22.168 35.5412 22.168ZM35.5412 20.691C35.8352 20.691 36.0895 20.6257 36.3042 20.495C36.5235 20.3597 36.6915 20.1753 36.8082 19.942C36.9295 19.704 36.9902 19.4357 36.9902 19.137C36.9902 18.8383 36.9295 18.57 36.8082 18.332C36.6915 18.094 36.5235 17.9073 36.3042 17.772C36.0895 17.632 35.8352 17.562 35.5412 17.562C35.2472 17.562 34.9905 17.632 34.7712 17.772C34.5565 17.9073 34.3885 18.094 34.2672 18.332C34.1458 18.57 34.0852 18.8383 34.0852 19.137C34.0852 19.4357 34.1458 19.704 34.2672 19.942C34.3885 20.1753 34.5565 20.3597 34.7712 20.495C34.9905 20.6257 35.2472 20.691 35.5412 20.691ZM43.5386 16.085C43.9306 16.085 44.3132 16.1667 44.6866 16.33C45.0599 16.4887 45.3656 16.743 45.6036 17.093C45.8462 17.443 45.9676 17.9003 45.9676 18.465V22H44.1826V18.773C44.1826 18.3017 44.0706 17.9517 43.8466 17.723C43.6272 17.4943 43.3379 17.38 42.9786 17.38C42.7452 17.38 42.5212 17.4453 42.3066 17.576C42.0966 17.702 41.9239 17.8793 41.7886 18.108C41.6579 18.332 41.5926 18.5887 41.5926 18.878V22H39.8146V16.253H41.5926V17.17C41.6439 17.0113 41.7606 16.848 41.9426 16.68C42.1246 16.512 42.3556 16.372 42.6356 16.26C42.9156 16.1433 43.2166 16.085 43.5386 16.085ZM52.2251 19.613C52.2625 19.725 52.3185 19.844 52.3931 19.97C52.4725 20.0913 52.5751 20.208 52.7011 20.32C52.8271 20.4273 52.9811 20.516 53.1631 20.586C53.3451 20.656 53.5621 20.691 53.8141 20.691C54.3181 20.691 54.7101 20.53 54.9901 20.208C55.2748 19.8813 55.4148 19.4567 55.4101 18.934C55.4055 18.4347 55.2725 18.0473 55.0111 17.772C54.7498 17.4967 54.3975 17.359 53.9541 17.359C53.6741 17.359 53.4291 17.4103 53.2191 17.513C53.0138 17.611 52.8458 17.7277 52.7151 17.863C52.5891 17.9983 52.5005 18.1267 52.4491 18.248L50.9791 17.723L51.7841 12.76H56.7541V14.293H53.2681L52.9251 16.477C52.9485 16.4397 53.0231 16.379 53.1491 16.295C53.2798 16.2063 53.4548 16.127 53.6741 16.057C53.8981 15.9823 54.1595 15.945 54.4581 15.945C54.9155 15.945 55.3495 16.0477 55.7601 16.253C56.1755 16.4537 56.5138 16.7687 56.7751 17.198C57.0365 17.6227 57.1695 18.1687 57.1741 18.836C57.1741 19.5033 57.0365 20.089 56.7611 20.593C56.4858 21.0923 56.1008 21.4797 55.6061 21.755C55.1115 22.0303 54.5351 22.168 53.8771 22.168C53.3871 22.168 52.9578 22.1073 52.5891 21.986C52.2251 21.8647 51.9171 21.7083 51.6651 21.517C51.4131 21.3257 51.2101 21.1227 51.0561 20.908C50.9021 20.6933 50.7901 20.4903 50.7201 20.299L52.2251 19.613ZM58.1843 17.387C58.1843 16.575 58.2846 15.8703 58.4853 15.273C58.686 14.671 58.959 14.1717 59.3043 13.775C59.6496 13.3783 60.0393 13.082 60.4733 12.886C60.912 12.69 61.367 12.592 61.8383 12.592C62.3143 12.592 62.7693 12.69 63.2033 12.886C63.642 13.082 64.0316 13.3783 64.3723 13.775C64.713 14.1717 64.9813 14.671 65.1773 15.273C65.378 15.8703 65.4783 16.575 65.4783 17.387C65.4783 18.2363 65.378 18.9643 65.1773 19.571C64.9813 20.173 64.713 20.6653 64.3723 21.048C64.0316 21.4307 63.642 21.713 63.2033 21.895C62.7693 22.077 62.3143 22.168 61.8383 22.168C61.367 22.168 60.912 22.077 60.4733 21.895C60.0393 21.713 59.6496 21.4307 59.3043 21.048C58.959 20.6653 58.686 20.173 58.4853 19.571C58.2846 18.9643 58.1843 18.2363 58.1843 17.387ZM59.9483 17.387C59.9483 18.115 60.0276 18.7193 60.1863 19.2C60.3496 19.676 60.5736 20.0307 60.8583 20.264C61.143 20.4973 61.4696 20.614 61.8383 20.614C62.207 20.614 62.5313 20.4973 62.8113 20.264C63.096 20.0307 63.3176 19.6737 63.4763 19.193C63.6396 18.7123 63.7213 18.1103 63.7213 17.387C63.7213 16.687 63.6396 16.0967 63.4763 15.616C63.3176 15.1353 63.096 14.7713 62.8113 14.524C62.5313 14.272 62.207 14.146 61.8383 14.146C61.4696 14.146 61.143 14.272 60.8583 14.524C60.5736 14.7713 60.3496 15.1353 60.1863 15.616C60.0276 16.0967 59.9483 16.687 59.9483 17.387ZM73.7015 12.76H74.8915L69.1935 22H68.0035L73.7015 12.76ZM66.5055 14.797C66.5055 14.4097 66.6011 14.0597 66.7925 13.747C66.9885 13.4343 67.2568 13.187 67.5975 13.005C67.9381 12.8183 68.3325 12.725 68.7805 12.725C69.2191 12.725 69.6065 12.8183 69.9425 13.005C70.2831 13.187 70.5515 13.4343 70.7475 13.747C70.9435 14.0597 71.0415 14.4097 71.0415 14.797C71.0415 15.175 70.9458 15.5203 70.7545 15.833C70.5631 16.1457 70.2971 16.3977 69.9565 16.589C69.6205 16.7757 69.2285 16.869 68.7805 16.869C68.3231 16.869 67.9241 16.7757 67.5835 16.589C67.2428 16.3977 66.9768 16.1457 66.7855 15.833C66.5988 15.5203 66.5055 15.175 66.5055 14.797ZM67.7305 14.797C67.7305 15.1143 67.8261 15.3687 68.0175 15.56C68.2088 15.7513 68.4608 15.847 68.7735 15.847C69.0721 15.847 69.3171 15.7537 69.5085 15.567C69.6998 15.3757 69.7955 15.119 69.7955 14.797C69.7955 14.4843 69.6975 14.23 69.5015 14.034C69.3101 13.8333 69.0675 13.733 68.7735 13.733C68.4701 13.733 68.2205 13.8333 68.0245 14.034C67.8285 14.23 67.7305 14.4843 67.7305 14.797ZM71.8395 19.963C71.8395 19.5803 71.9351 19.2327 72.1265 18.92C72.3225 18.6073 72.5908 18.3577 72.9315 18.171C73.2768 17.9843 73.6711 17.891 74.1145 17.891C74.5531 17.891 74.9428 17.9843 75.2835 18.171C75.6241 18.3577 75.8925 18.6073 76.0885 18.92C76.2845 19.2327 76.3825 19.5803 76.3825 19.963C76.3825 20.341 76.2868 20.6887 76.0955 21.006C75.9041 21.3187 75.6381 21.5683 75.2975 21.755C74.9568 21.9417 74.5625 22.035 74.1145 22.035C73.6618 22.035 73.2628 21.9417 72.9175 21.755C72.5768 21.5683 72.3108 21.3187 72.1195 21.006C71.9328 20.6887 71.8395 20.341 71.8395 19.963ZM73.0715 19.963C73.0715 20.2803 73.1671 20.5347 73.3585 20.726C73.5498 20.9173 73.8018 21.013 74.1145 21.013C74.4085 21.013 74.6511 20.9197 74.8425 20.733C75.0338 20.5417 75.1295 20.285 75.1295 19.963C75.1295 19.6503 75.0338 19.396 74.8425 19.2C74.6511 19.004 74.4085 18.906 74.1145 18.906C73.8111 18.906 73.5615 19.004 73.3655 19.2C73.1695 19.396 73.0715 19.6503 73.0715 19.963ZM78.3686 19.158L77.9976 12.368H79.9366L79.5656 19.158H78.3686ZM78.9566 22.168C78.7513 22.168 78.5623 22.1167 78.3896 22.014C78.2169 21.9113 78.0769 21.7737 77.9696 21.601C77.8669 21.4283 77.8156 21.237 77.8156 21.027C77.8156 20.705 77.9276 20.432 78.1516 20.208C78.3756 19.984 78.6439 19.872 78.9566 19.872C79.2786 19.872 79.5516 19.984 79.7756 20.208C79.9996 20.432 80.1116 20.705 80.1116 21.027C80.1116 21.3397 79.9996 21.608 79.7756 21.832C79.5516 22.056 79.2786 22.168 78.9566 22.168Z" fill="white"/>
</svg>
