<svg width="32" height="21" viewBox="0 0 32 21" fill="none" xmlns="http://www.w3.org/2000/svg">
<path fill-rule="evenodd" clip-rule="evenodd" d="M13.6065 19.2052C14.2361 19.834 15.0895 20.1872 15.9792 20.1872C16.869 20.1872 17.7224 19.834 18.352 19.2052L31.017 6.54463C31.6466 5.91475 32.0002 5.06056 32 4.16998C31.9998 3.2794 31.6458 2.42538 31.0159 1.79579C30.386 1.16621 29.5319 0.812627 28.6413 0.812837C27.7507 0.813047 26.8967 1.16703 26.2671 1.79691L15.9792 12.0848L5.6914 1.79691C5.05843 1.18498 4.21044 0.846147 3.33007 0.853379C2.4497 0.860611 1.60738 1.21333 0.984552 1.83558C0.361721 2.45782 0.00820329 3.2998 0.000140829 4.18017C-0.00792163 5.06053 0.330116 5.90884 0.941448 6.54239L13.6043 19.2075L13.6065 19.2052Z" fill="#F9832A"/>
</svg>
