<?xml version="1.0" ?>

<!-- Uploaded to: SVG Repo, www.svgrepo.com, Generator: SVG Repo Mixer Tools -->
<svg width="30" height="30" viewBox="0 0 64 64" xmlns="http://www.w3.org/2000/svg">

<defs>

<style>.cls-1{fill:#c73b40;}.cls-2{fill:#d26266;}.cls-3{fill:#ffff97;}.cls-4{fill:#ffffac;}.cls-5{fill:#e6e6e6;}.cls-6{fill:#eabc75;}.cls-7{fill:#fccb7e;}</style>

</defs>

<title/>

<g data-name="Layer 25" id="Layer_25">

<path class="cls-1" d="M53.733,20.32A1,1,0,0,0,53,20H27a1,1,0,0,0-1,1.076l1.142,14.905a1,1,0,0,0,1.57.744,4,4,0,0,1,4.682.095,1,1,0,0,0,1.206,0,3.975,3.975,0,0,1,4.794,0,1,1,0,0,0,1.206,0,3.975,3.975,0,0,1,4.794,0,1,1,0,0,0,1.206,0,4,4,0,0,1,4.682-.095,1,1,0,0,0,1.57-.744L54,21.076A1,1,0,0,0,53.733,20.32Z"/>

<path class="cls-1" d="M51.733,20.32A1,1,0,0,0,51,20H25a1,1,0,0,0-1,1.076l1.142,14.905a1,1,0,0,0,1.57.744,4,4,0,0,1,4.682.095,1,1,0,0,0,1.206,0,3.975,3.975,0,0,1,4.794,0,1,1,0,0,0,1.206,0,3.975,3.975,0,0,1,4.794,0,1,1,0,0,0,1.206,0,4,4,0,0,1,4.682-.095,1,1,0,0,0,1.57-.744L52,21.076A1,1,0,0,0,51.733,20.32Z"/>

<path class="cls-2" d="M53.733,20.32A1,1,0,0,0,53,20H51a1,1,0,0,1,1,1.076L50.855,35.981a.986.986,0,0,1-.135.417,3.944,3.944,0,0,1,.565.327,1,1,0,0,0,1.57-.744L54,21.076A1,1,0,0,0,53.733,20.32Z"/>

<path class="cls-3" d="M52.432,35.086A6.015,6.015,0,0,0,46,34.821a5.97,5.97,0,0,0-6,0,5.97,5.97,0,0,0-6,0,6.019,6.019,0,0,0-6.432.265,1,1,0,0,0-.423.9l2.076,27.1a1,1,0,0,0,1,.924H49.782a1,1,0,0,0,1-.924l2.076-27.095A1,1,0,0,0,52.432,35.086Z"/>

<path class="cls-3" d="M50.432,35.086A6.015,6.015,0,0,0,44,34.821a5.97,5.97,0,0,0-6,0,5.97,5.97,0,0,0-6,0,6.019,6.019,0,0,0-6.432.265,1,1,0,0,0-.423.9l2.076,27.1a1,1,0,0,0,1,.924H47.782a1,1,0,0,0,1-.924l2.076-27.095A1,1,0,0,0,50.432,35.086Z"/>

<path class="cls-4" d="M52.432,35.086a6.016,6.016,0,0,0-4.4-.979,5.948,5.948,0,0,1,2.4.979,1,1,0,0,1,.423.9l-2.076,27.1a1,1,0,0,1-1,.924h2a1,1,0,0,0,1-.924l2.076-27.095A1,1,0,0,0,52.432,35.086Z"/>

<rect class="cls-5" height="18" rx="1" width="6" x="37"/>

<rect class="cls-3" height="6" rx="1" width="32" x="24" y="16"/>

<path class="cls-4" d="M55,16H53a1,1,0,0,1,1,1v4a1,1,0,0,1-1,1h2a1,1,0,0,0,1-1V17A1,1,0,0,0,55,16Z"/>

<path d="M35.6,56H12.4a1,1,0,0,1-.988-.844l-1.894-12A1,1,0,0,1,10.5,42H20.768a1,1,0,0,1,.717.3L24,44.9,26.515,42.3a1,1,0,0,1,.717-.3H37.5a1,1,0,0,1,.987,1.156l-1.894,12A1,1,0,0,1,35.6,56ZM13.249,54h21.5L36.33,44H27.655l-2.937,3.029a1.029,1.029,0,0,1-1.436,0L20.345,44H11.67Z"/>

<path class="cls-6" d="M19.994,18H15.987a1,1,0,0,0-1,1V37.359a1.119,1.119,0,0,0,.843.992l.1.025c.8.178,1.676.335,2.68.48.28.041.563.069.846.1l.423.043a1.032,1.032,0,0,0,.111.006,1,1,0,0,0,1-1V19A1,1,0,0,0,19.994,18Z"/>

<path class="cls-6" d="M28.006,16H24a1,1,0,0,0-1,1V38.255a1,1,0,0,0,1,1c.79,0,1.635-.033,2.656-.107h0c.357-.026.708-.068,1.059-.111l.4-.048A1,1,0,0,0,29.006,38V17A1,1,0,0,0,28.006,16Z"/>

<path class="cls-6" d="M36.019,20H32.013a1,1,0,0,0-1,1V37.348a1,1,0,0,0,1,1,1.016,1.016,0,0,0,.225-.026c.8-.184,1.6-.4,2.463-.662.556-.168,1.1-.351,1.649-.543a1,1,0,0,0,.669-.943V21A1,1,0,0,0,36.019,20Z"/>

<path class="cls-7" d="M15.987,20H11.981a1,1,0,0,0-1,1V36.19a1,1,0,0,0,.669.944c.53.185,1.063.363,1.6.526.893.271,1.714.491,2.512.674a.942.942,0,0,0,.223.025,1,1,0,0,0,1-1V21A1,1,0,0,0,15.987,20Z"/>

<path class="cls-7" d="M24,16H19.994a1,1,0,0,0-1,1V38a1,1,0,0,0,.89.994l.414.049c.33.039.661.079,1,.1h0c1.009.073,1.851.107,2.668.107a1,1,0,0,0,1.035-1V17A1,1,0,0,0,24,16Z"/>

<path class="cls-7" d="M32.013,18H28.006a1,1,0,0,0-1,1V38a1,1,0,0,0,1,1,1.014,1.014,0,0,0,.11-.006l.407-.041c.274-.026.547-.053.817-.093,1-.146,1.881-.3,2.68-.48l.209-.052a1,1,0,0,0,.784-.976V19A1,1,0,0,0,32.013,18Z"/>

<path class="cls-1" d="M39.96,35.16l-1.18,7.23L36.6,55.82l-1.2,7.34a1.008,1.008,0,0,1-.99.84H13.54a1.008,1.008,0,0,1-.99-.84l-1.2-7.38L9.18,42.45,7.99,35.16a1,1,0,0,1,.22-.81,1.1,1.1,0,0,1,1.22-.26c.61.28,1.24.54,1.87.79.33.13.67.25,1.01.37.5.17,1.01.34,1.52.5.85.25,1.63.46,2.38.63a.527.527,0,0,0,.12.03c.79.18,1.62.33,2.57.47.25.03.5.06.75.08l.89.1c.3.03.6.07.9.09a30.774,30.774,0,0,0,5.08,0c.32-.02.64-.06.96-.1l.85-.09c.24-.02.48-.05.72-.08.96-.14,1.79-.29,2.54-.46l.21-.05c.74-.17,1.5-.38,2.32-.62.53-.16,1.05-.34,1.57-.52.32-.11.65-.23.97-.35.63-.25,1.25-.51,1.86-.79a.99.99,0,0,1,.42-.09h.04a1.011,1.011,0,0,1,.76.35A1,1,0,0,1,39.96,35.16Z"/>

<path class="cls-2" d="M39.74,34.35a1.011,1.011,0,0,0-.76-.35h-.04a.99.99,0,0,0-.42.09c-.246.113-.5.211-.749.318a.992.992,0,0,1,.189.752l-1.18,7.23L34.6,55.82l-1.2,7.34a1.008,1.008,0,0,1-.99.84h2a1.008,1.008,0,0,0,.99-.84l1.2-7.34,2.18-13.43,1.18-7.23A1,1,0,0,0,39.74,34.35Z"/>

<path class="cls-3" d="M38.78,42.39,36.6,55.82a1.081,1.081,0,0,1-.59.18H11.99a1.033,1.033,0,0,1-.64-.22L9.18,42.45a.3.3,0,0,1,.07-.1,1.037,1.037,0,0,1,.78-.35H20.66a1.07,1.07,0,0,1,.74.3L24,44.9l2.6-2.6a1.07,1.07,0,0,1,.74-.3H37.97a1.037,1.037,0,0,1,.78.35A.138.138,0,0,1,38.78,42.39Z"/>

<path class="cls-4" d="M38.75,42.35a1.037,1.037,0,0,0-.78-.35h-2a1.037,1.037,0,0,1,.78.35.138.138,0,0,1,.03.04L34.6,55.82a1.081,1.081,0,0,1-.59.18h2a1.081,1.081,0,0,0,.59-.18l2.18-13.43A.138.138,0,0,0,38.75,42.35Z"/>

</g>

</svg>
