<svg width="42" height="42" viewBox="0 0 31 32" fill="none" xmlns="http://www.w3.org/2000/svg">
<path d="M8.62579 15.0353C8.57627 14.9906 8.53662 14.9432 8.50781 14.8943L8.62579 15.0353Z" fill="#B76028"/>
<path d="M22.3911 11.2236L22.4054 11.3346C22.4059 12.2372 19.5819 13.7116 15.9013 14.7047C12.2207 15.6979 9.02199 15.8492 8.54665 15.0727L8.50008 14.9695L22.3911 11.2236Z" fill="#B76028"/>
<path d="M22.2958 11.1363L8.53638 14.8971C8.28833 14.0095 11.1662 12.4485 14.9653 11.4102C18.7643 10.3719 22.0466 10.2485 22.2958 11.1363Z" fill="#B76028"/>
<path d="M22.4056 11.3544L22.2876 11.2134C22.3532 11.2614 22.3929 11.3088 22.4056 11.3544Z" fill="#B76028"/>
<path d="M10.8843 8.86034L10.1594 9.05591L12.1655 16.1243L12.8904 15.9287L10.8843 8.86034Z" fill="#EDD398"/>
<path d="M12.4991 16.0529L11.7732 16.2518L10.5019 11.693L9.77548 9.08368L10.5003 8.88362L11.2401 11.5373L12.4991 16.0529Z" fill="#FFE6A9"/>
<path d="M15.6257 10.0519L14.8142 10.1182L15.4943 18.0354L16.3058 17.9691L15.6257 10.0519Z" fill="#EDD398"/>
<path d="M15.8846 17.9361L15.0926 18.0027L14.675 13.0352L14.4354 10.1928L15.2284 10.1273L15.4718 13.0173L15.8846 17.9361Z" fill="#FFE6A9"/>
<path d="M17.5554 7.59755L16.7439 7.66382L17.424 15.581L18.2355 15.5148L17.5554 7.59755Z" fill="#EDD398"/>
<path d="M17.8581 15.5422L17.0648 15.6111L16.6554 10.5643L16.4216 7.67663L17.2149 7.60773L17.4524 10.5449L17.8581 15.5422Z" fill="#FFE6A9"/>
<path d="M17.9909 9.05756L17.2019 9.25391L19.217 16.9521L20.0061 16.7557L17.9909 9.05756Z" fill="#EDD398"/>
<path d="M19.576 16.879L18.7871 17.0748L17.5066 12.1881L16.7737 9.39105L17.5626 9.19413L18.3073 12.0391L19.576 16.879Z" fill="#FFE6A9"/>
<path d="M15.5202 7.48796L14.7354 7.69971L16.9085 15.3569L17.6934 15.1451L15.5202 7.48796Z" fill="#EDD398"/>
<path d="M17.3608 15.2206L16.5798 15.434L15.2085 10.5477L14.4239 7.75178L15.2049 7.5384L16.0034 10.3816L17.3608 15.2206Z" fill="#FFE6A9"/>
<path d="M14.1615 8.29046L13.3767 8.5022L15.5499 16.1594L16.3347 15.9476L14.1615 8.29046Z" fill="#EDD398"/>
<path d="M15.9542 15.9914L15.1737 16.2L13.7941 11.3926L13.005 8.64107L13.7855 8.43244L14.5887 11.2304L15.9542 15.9914Z" fill="#FFE6A9"/>
<path d="M9.79031 10.4094L9.10889 10.7197L12.2923 17.3646L12.9737 17.0542L9.79031 10.4094Z" fill="#EDD398"/>
<path d="M12.6396 17.253L11.9595 17.5634L9.94375 13.3286L8.79034 10.9037L9.46941 10.5921L10.6431 13.0572L12.6396 17.253Z" fill="#FFE6A9"/>
<path d="M8.76101 11.3974L8.07959 11.7078L11.263 18.3526L11.9444 18.0423L8.76101 11.3974Z" fill="#EDD398"/>
<path d="M11.6141 18.1853L10.935 18.4968L8.91816 14.2615L7.76471 11.837L8.44488 11.5256L9.61753 13.9902L11.6141 18.1853Z" fill="#FFE6A9"/>
<path d="M18.7956 7.68035L18.0107 7.89209L20.1839 15.5493L20.9687 15.3375L18.7956 7.68035Z" fill="#EDD398"/>
<path d="M20.6564 15.4171L19.8475 15.6278L18.4107 10.7355L17.5882 7.93541L18.396 7.72464L19.2321 10.572L20.6564 15.4171Z" fill="#FFE6A9"/>
<path d="M21.6127 8.4008L20.6384 8.45703L21.1214 16.4106L22.0956 16.3544L21.6127 8.4008Z" fill="#EDD398"/>
<path d="M21.457 15.3718L20.5084 15.4345L20.1966 10.403L20.0187 7.52319L20.9672 7.46162L21.1479 10.3884L21.457 15.3718Z" fill="#FFE6A9"/>
<path d="M12.2835 9.59531L11.533 9.64209L12.0128 16.9612L12.7634 16.9144L12.2835 9.59531Z" fill="#EDD398"/>
<path d="M12.4038 16.9697L11.6519 17.0158L11.3442 12.3731L11.1687 9.71692L11.9195 9.67069L12.0993 12.3718L12.4038 16.9697Z" fill="#FFE6A9"/>
<path d="M19.8632 6.02088L19.0505 6.07153L19.6995 15.9698L20.5121 15.9191L19.8632 6.02088Z" fill="#EDD398"/>
<path d="M20.0749 15.9067L19.2938 15.9611L18.9224 9.67466L18.7101 6.07682L19.4912 6.02245L19.7068 9.68153L20.0749 15.9067Z" fill="#FFE6A9"/>
<path d="M12.5979 8.12183L11.7056 8.46362L14.8517 16.2717L15.744 15.9299L12.5979 8.12183Z" fill="#EDD398"/>
<path d="M15.2858 16.0419L14.4012 16.3824L12.4186 11.4412L11.2836 8.61301L12.1693 8.2727L13.3227 11.1482L15.2858 16.0419Z" fill="#FFE6A9"/>
<path d="M12.5475 10.8044L11.8379 11.3208L16.5897 17.528L17.2993 17.0116L12.5475 10.8044Z" fill="#EDD398"/>
<path d="M17.0202 17.2185L16.3058 17.7348L13.2577 13.7771L11.5124 11.5118L12.2281 10.9945L14.0021 13.2975L17.0202 17.2185Z" fill="#FFE6A9"/>
<path d="M12.6928 12.6833L12.0798 13.2109L16.9345 18.5727L17.5474 18.0451L12.6928 12.6833Z" fill="#EDD398"/>
<path d="M17.3074 18.2836L16.6947 18.8079L13.6057 15.419L11.8383 13.4797L12.4509 12.9565L14.2485 14.9279L17.3074 18.2836Z" fill="#FFE6A9"/>
<path d="M22.3664 11.3504L23.7146 21.3694C23.7575 21.7016 23.6764 22.0375 23.4859 22.3164C23.2955 22.5952 23.0085 22.7983 22.6768 22.889L14.4834 25.0883C14.1501 25.1786 13.7943 25.1485 13.4819 25.0037C13.1694 24.8588 12.9214 24.6091 12.7838 24.3006L8.62581 15.0353C9.10292 15.8006 12.2684 15.6519 15.9142 14.6747C19.5601 13.6975 22.3672 12.2416 22.3664 11.3504Z" fill="#D16B28"/>
</svg>
