<svg width="39" height="31" viewBox="0 0 39 31" fill="none" xmlns="http://www.w3.org/2000/svg">
<path d="M34.5 26.75H30.75V10.3437L19.5 17.375L8.25 10.3437V26.75H4.5V4.25H6.75L19.5 12.2187L32.25 4.25H34.5M34.5 0.5H4.5C2.41875 0.5 0.75 2.16875 0.75 4.25V26.75C0.75 27.7446 1.14509 28.6984 1.84835 29.4016C2.55161 30.1049 3.50544 30.5 4.5 30.5H34.5C35.4946 30.5 36.4484 30.1049 37.1516 29.4016C37.8549 28.6984 38.25 27.7446 38.25 26.75V4.25C38.25 3.25544 37.8549 2.30161 37.1516 1.59835C36.4484 0.895088 35.4946 0.5 34.5 0.5Z" fill="#F9832A"/>
</svg>
