<svg width="44" height="45" viewBox="0 0 44 45" fill="none" xmlns="http://www.w3.org/2000/svg">
<path d="M12.76 0.5H31.24C38.28 0.5 44 6.22 44 13.26V31.74C44 35.1242 42.6556 38.3697 40.2627 40.7627C37.8697 43.1556 34.6242 44.5 31.24 44.5H12.76C5.72 44.5 0 38.78 0 31.74V13.26C0 9.87584 1.34435 6.63028 3.73732 4.23732C6.13028 1.84435 9.37584 0.5 12.76 0.5ZM12.32 4.9C10.2195 4.9 8.205 5.73443 6.71971 7.21971C5.23443 8.705 4.4 10.7195 4.4 12.82V32.18C4.4 36.558 7.942 40.1 12.32 40.1H31.68C33.7805 40.1 35.795 39.2656 37.2803 37.7803C38.7656 36.295 39.6 34.2805 39.6 32.18V12.82C39.6 8.442 36.058 4.9 31.68 4.9H12.32ZM33.55 8.2C34.2793 8.2 34.9788 8.48973 35.4945 9.00546C36.0103 9.52118 36.3 10.2207 36.3 10.95C36.3 11.6793 36.0103 12.3788 35.4945 12.8945C34.9788 13.4103 34.2793 13.7 33.55 13.7C32.8207 13.7 32.1212 13.4103 31.6055 12.8945C31.0897 12.3788 30.8 11.6793 30.8 10.95C30.8 10.2207 31.0897 9.52118 31.6055 9.00546C32.1212 8.48973 32.8207 8.2 33.55 8.2ZM22 11.5C24.9174 11.5 27.7153 12.6589 29.7782 14.7218C31.8411 16.7847 33 19.5826 33 22.5C33 25.4174 31.8411 28.2153 29.7782 30.2782C27.7153 32.3411 24.9174 33.5 22 33.5C19.0826 33.5 16.2847 32.3411 14.2218 30.2782C12.1589 28.2153 11 25.4174 11 22.5C11 19.5826 12.1589 16.7847 14.2218 14.7218C16.2847 12.6589 19.0826 11.5 22 11.5ZM22 15.9C20.2496 15.9 18.5708 16.5954 17.3331 17.8331C16.0954 19.0708 15.4 20.7496 15.4 22.5C15.4 24.2504 16.0954 25.9292 17.3331 27.1669C18.5708 28.4046 20.2496 29.1 22 29.1C23.7504 29.1 25.4292 28.4046 26.6669 27.1669C27.9046 25.9292 28.6 24.2504 28.6 22.5C28.6 20.7496 27.9046 19.0708 26.6669 17.8331C25.4292 16.5954 23.7504 15.9 22 15.9Z" fill="white"/>
</svg>
