<svg width="40" height="41" viewBox="0 0 40 41" fill="none" xmlns="http://www.w3.org/2000/svg">
<path d="M30.625 0.5H9.375C4.19733 0.5 0 4.69733 0 9.875V31.125C0 36.3027 4.19733 40.5 9.375 40.5H30.625C35.8027 40.5 40 36.3027 40 31.125V9.875C40 4.69733 35.8027 0.5 30.625 0.5Z" fill="url(#paint0_radial_2443_15735)"/>
<path d="M30.625 0.5H9.375C4.19733 0.5 0 4.69733 0 9.875V31.125C0 36.3027 4.19733 40.5 9.375 40.5H30.625C35.8027 40.5 40 36.3027 40 31.125V9.875C40 4.69733 35.8027 0.5 30.625 0.5Z" fill="url(#paint1_radial_2443_15735)"/>
<path d="M20.0014 4.875C15.758 4.875 15.2253 4.89359 13.5588 4.96938C11.8953 5.04563 10.7598 5.30891 9.76641 5.69531C8.73859 6.09437 7.86688 6.62828 6.99844 7.49703C6.12922 8.36562 5.59531 9.23734 5.195 10.2647C4.8075 11.2584 4.54391 12.3944 4.46906 14.057C4.39453 15.7237 4.375 16.2566 4.375 20.5002C4.375 24.7438 4.39375 25.2747 4.46938 26.9412C4.54594 28.6047 4.80922 29.7402 5.19531 30.7336C5.59469 31.7614 6.12859 32.6331 6.99734 33.5016C7.86563 34.3708 8.73734 34.9059 9.76438 35.305C10.7586 35.6914 11.8942 35.9547 13.5573 36.0309C15.2241 36.1067 15.7563 36.1253 19.9995 36.1253C24.2434 36.1253 24.7744 36.1067 26.4409 36.0309C28.1044 35.9547 29.2411 35.6914 30.2353 35.305C31.2627 34.9059 32.1331 34.3708 33.0012 33.5016C33.8705 32.6331 34.4042 31.7614 34.8047 30.7341C35.1887 29.7402 35.4525 28.6044 35.5306 26.9416C35.6055 25.275 35.625 24.7438 35.625 20.5002C35.625 16.2566 35.6055 15.7241 35.5306 14.0573C35.4525 12.3939 35.1887 11.2586 34.8047 10.2652C34.4042 9.23734 33.8705 8.36562 33.0012 7.49703C32.1322 6.62797 31.263 6.09406 30.2344 5.69547C29.2383 5.30891 28.1022 5.04547 26.4387 4.96938C24.772 4.89359 24.2414 4.875 19.9966 4.875H20.0014ZM18.5997 7.69078C19.0158 7.69016 19.48 7.69078 20.0014 7.69078C24.1734 7.69078 24.6678 7.70578 26.3153 7.78063C27.8387 7.85031 28.6656 8.10484 29.2164 8.31875C29.9456 8.60188 30.4655 8.94047 31.012 9.4875C31.5589 10.0344 31.8973 10.5552 32.1813 11.2844C32.3952 11.8344 32.65 12.6613 32.7194 14.1847C32.7942 15.8319 32.8105 16.3266 32.8105 20.4966C32.8105 24.6666 32.7942 25.1614 32.7194 26.8084C32.6497 28.3319 32.3952 29.1587 32.1813 29.7089C31.8981 30.4381 31.5589 30.9573 31.012 31.5039C30.4652 32.0508 29.9459 32.3892 29.2164 32.6725C28.6663 32.8873 27.8387 33.1413 26.3153 33.2109C24.6681 33.2858 24.1734 33.302 20.0014 33.302C15.8292 33.302 15.3347 33.2858 13.6877 33.2109C12.1642 33.1406 11.3373 32.8861 10.7861 32.6722C10.057 32.3889 9.53609 32.0505 8.98922 31.5036C8.44234 30.9567 8.10391 30.4372 7.82 29.7077C7.60609 29.1575 7.35125 28.3306 7.28188 26.8072C7.20703 25.16 7.19203 24.6653 7.19203 20.4927C7.19203 16.3202 7.20703 15.828 7.28188 14.1808C7.35156 12.6573 7.60609 11.8305 7.82 11.2797C8.10328 10.5505 8.44234 10.0297 8.98938 9.48281C9.53625 8.93594 10.057 8.59734 10.7862 8.31359C11.337 8.09875 12.1642 7.84484 13.6877 7.77484C15.1291 7.70969 15.6877 7.69016 18.5997 7.68687V7.69078ZM28.342 10.2852C27.3069 10.2852 26.467 11.1242 26.467 12.1595C26.467 13.1947 27.3069 14.0345 28.342 14.0345C29.3772 14.0345 30.217 13.1947 30.217 12.1595C30.217 11.1244 29.3772 10.2845 28.342 10.2845V10.2852ZM20.0014 12.4759C15.5702 12.4759 11.9773 16.0688 11.9773 20.5002C11.9773 24.9316 15.5702 28.5227 20.0014 28.5227C24.4328 28.5227 28.0244 24.9316 28.0244 20.5002C28.0244 16.0689 24.4325 12.4759 20.0011 12.4759H20.0014ZM20.0014 15.2917C22.8778 15.2917 25.2098 17.6234 25.2098 20.5002C25.2098 23.3766 22.8778 25.7086 20.0014 25.7086C17.1248 25.7086 14.7931 23.3766 14.7931 20.5002C14.7931 17.6234 17.1248 15.2917 20.0014 15.2917Z" fill="white"/>
<defs>
<radialGradient id="paint0_radial_2443_15735" cx="0" cy="0" r="1" gradientUnits="userSpaceOnUse" gradientTransform="translate(10.625 43.5808) rotate(-90) scale(39.643 36.8711)">
<stop stop-color="#FFDD55"/>
<stop offset="0.1" stop-color="#FFDD55"/>
<stop offset="0.5" stop-color="#FF543E"/>
<stop offset="1" stop-color="#C837AB"/>
</radialGradient>
<radialGradient id="paint1_radial_2443_15735" cx="0" cy="0" r="1" gradientUnits="userSpaceOnUse" gradientTransform="translate(-6.70016 3.38141) rotate(78.681) scale(17.7206 73.045)">
<stop stop-color="#3771C8"/>
<stop offset="0.128" stop-color="#3771C8"/>
<stop offset="1" stop-color="#6600FF" stop-opacity="0"/>
</radialGradient>
</defs>
</svg>
