<svg width="32" height="31" viewBox="0 0 32 31" fill="none" xmlns="http://www.w3.org/2000/svg">
<path d="M12.1881 21.4039C12.128 21.466 12.081 21.5389 12.0499 21.6186C12.0187 21.6984 12.0039 21.7833 12.0064 21.8686C12.0089 21.9539 12.0285 22.0379 12.0643 22.1158C12.1 22.1936 12.1512 22.2639 12.2148 22.3225C12.2783 22.3811 12.3531 22.4269 12.4349 22.4573C12.5166 22.4877 12.6037 22.5022 12.6912 22.4997C12.7786 22.4973 12.8647 22.4781 12.9446 22.4433C13.0244 22.4084 13.0965 22.3585 13.1565 22.2965L18.8179 16.4499C18.9349 16.3293 19 16.1696 19 16.0037C19 15.8377 18.9349 15.678 18.8179 15.5574L13.1565 9.71014C13.0969 9.64677 13.0248 9.59559 12.9447 9.55958C12.8646 9.52358 12.7779 9.50346 12.6897 9.50041C12.6015 9.49735 12.5136 9.51142 12.431 9.54178C12.3485 9.57215 12.2729 9.61821 12.2088 9.6773C12.1446 9.73639 12.0931 9.80732 12.0573 9.88597C12.0215 9.96462 12.0021 10.0494 12.0002 10.1355C11.9982 10.2215 12.0139 10.3071 12.0461 10.3872C12.0784 10.4673 12.1267 10.5403 12.1881 10.6021L17.4179 16.0037L12.1881 21.4039Z" fill="#F9832A"/>
</svg>
