<svg width="15" height="14" viewBox="0 0 15 14" fill="none" xmlns="http://www.w3.org/2000/svg">
<path d="M8.91667 4.16659V2.74992C8.91667 2.3742 8.76741 2.01386 8.50173 1.74818C8.23606 1.48251 7.87572 1.33325 7.5 1.33325H2.54167C2.16594 1.33325 1.80561 1.48251 1.53993 1.74818C1.27426 2.01386 1.125 2.3742 1.125 2.74992V11.2499C1.125 11.6256 1.27426 11.986 1.53993 12.2517C1.80561 12.5173 2.16594 12.6666 2.54167 12.6666H7.5C7.87572 12.6666 8.23606 12.5173 8.50173 12.2517C8.76741 11.986 8.91667 11.6256 8.91667 11.2499V9.83325" stroke="#FE8787" stroke-width="2" stroke-linecap="round" stroke-linejoin="round"/>
<path d="M5.375 7H13.875M13.875 7L11.75 4.875M13.875 7L11.75 9.125" stroke="#FE8787" stroke-width="2" stroke-linecap="round" stroke-linejoin="round"/>
</svg>
