<svg width="315" height="61" viewBox="0 0 315 61" fill="none" xmlns="http://www.w3.org/2000/svg">
<path d="M13.6461 48.7255H17.8119C43.27 47.5539 42.8071 38.4475 43.27 30.992C43.6403 19.1057 33.241 13.8975 27.9951 12.7791C22.7493 11.6608 3 12.7791 3 12.7791V48.7255H13.6461ZM13.6461 48.7255V21.4063" stroke="white" stroke-width="5"/>
<path d="M11.3435 2.78614C25.5731 1.58601 54.6832 2.88379 53.5065 32.5708C52.6894 42.9872 44.711 60.3482 11.3435 58.34" stroke="white" stroke-width="5"/>
<path d="M89.4363 47.5H77.0613V12.5909H89.5386C93.0499 12.5909 96.0727 13.2898 98.6067 14.6875C101.141 16.0739 103.09 18.0682 104.453 20.6705C105.828 23.2727 106.516 26.3864 106.516 30.0114C106.516 33.6477 105.828 36.7727 104.453 39.3864C103.09 42 101.129 44.0057 98.5727 45.4034C96.0272 46.8011 92.9817 47.5 89.4363 47.5ZM84.442 41.1761H89.1295C91.3113 41.1761 93.1465 40.7898 94.6352 40.017C96.1352 39.233 97.2602 38.0227 98.0102 36.3864C98.7715 34.7386 99.1522 32.6136 99.1522 30.0114C99.1522 27.4318 98.7715 25.3239 98.0102 23.6875C97.2602 22.0511 96.1408 20.8466 94.6522 20.0739C93.1636 19.3011 91.3283 18.9148 89.1465 18.9148H84.442V41.1761ZM114.183 47.5V12.5909H121.564V27.983H122.024L134.587 12.5909H143.433L130.479 28.2216L143.587 47.5H134.757L125.195 33.1477L121.564 37.5795V47.5H114.183ZM156.806 47.9943C155.136 47.9943 153.647 47.7045 152.341 47.125C151.034 46.5341 150 45.6648 149.238 44.517C148.488 43.358 148.113 41.9148 148.113 40.1875C148.113 38.733 148.38 37.5114 148.914 36.5227C149.449 35.5341 150.176 34.7386 151.096 34.1364C152.017 33.5341 153.062 33.0795 154.233 32.7727C155.414 32.4659 156.653 32.25 157.949 32.125C159.471 31.9659 160.699 31.8182 161.63 31.6818C162.562 31.5341 163.238 31.3182 163.659 31.0341C164.079 30.75 164.289 30.3295 164.289 29.7727V29.6705C164.289 28.5909 163.949 27.7557 163.267 27.1648C162.596 26.5739 161.642 26.2784 160.403 26.2784C159.096 26.2784 158.056 26.5682 157.284 27.1477C156.511 27.7159 156 28.4318 155.75 29.2955L149.034 28.75C149.375 27.1591 150.045 25.7841 151.045 24.625C152.045 23.4545 153.335 22.5568 154.914 21.9318C156.505 21.2955 158.346 20.9773 160.437 20.9773C161.892 20.9773 163.284 21.1477 164.613 21.4886C165.954 21.8295 167.142 22.358 168.176 23.0739C169.221 23.7898 170.045 24.7102 170.647 25.8352C171.25 26.9489 171.551 28.2841 171.551 29.8409V47.5H164.664V43.8693H164.46C164.039 44.6875 163.477 45.4091 162.772 46.0341C162.068 46.6477 161.221 47.1307 160.233 47.483C159.244 47.8239 158.102 47.9943 156.806 47.9943ZM158.886 42.983C159.954 42.983 160.897 42.7727 161.716 42.3523C162.534 41.9205 163.176 41.3409 163.642 40.6136C164.108 39.8864 164.341 39.0625 164.341 38.142V35.3636C164.113 35.5114 163.801 35.6477 163.403 35.7727C163.017 35.8864 162.579 35.9943 162.091 36.0966C161.602 36.1875 161.113 36.2727 160.625 36.3523C160.136 36.4205 159.693 36.483 159.295 36.5398C158.443 36.6648 157.699 36.8636 157.062 37.1364C156.426 37.4091 155.931 37.7784 155.579 38.2443C155.227 38.6989 155.051 39.267 155.051 39.9489C155.051 40.9375 155.409 41.6932 156.125 42.2159C156.852 42.7273 157.772 42.983 158.886 42.983ZM179.384 47.5V21.3182H186.305V25.9375H186.612C187.157 24.4034 188.066 23.1932 189.339 22.3068C190.612 21.4205 192.134 20.9773 193.907 20.9773C195.702 20.9773 197.231 21.4261 198.492 22.3239C199.754 23.2102 200.595 24.4148 201.015 25.9375H201.288C201.822 24.4375 202.788 23.2386 204.185 22.3409C205.595 21.4318 207.259 20.9773 209.18 20.9773C211.623 20.9773 213.606 21.7557 215.129 23.3125C216.663 24.858 217.43 27.0511 217.43 29.892V47.5H210.185V31.3239C210.185 29.8693 209.799 28.7784 209.026 28.0511C208.254 27.3239 207.288 26.9602 206.129 26.9602C204.81 26.9602 203.782 27.3807 203.043 28.2216C202.305 29.0511 201.935 30.1477 201.935 31.5114V47.5H194.896V31.1705C194.896 29.8864 194.526 28.8636 193.788 28.1023C193.06 27.3409 192.1 26.9602 190.907 26.9602C190.1 26.9602 189.373 27.1648 188.725 27.5739C188.089 27.9716 187.583 28.5341 187.208 29.2614C186.833 29.9773 186.646 30.8182 186.646 31.7841V47.5H179.384ZM225.366 57.3182V21.3182H232.525V25.7159H232.849C233.167 25.0114 233.627 24.2955 234.229 23.5682C234.843 22.8295 235.638 22.2159 236.616 21.7273C237.604 21.2273 238.831 20.9773 240.297 20.9773C242.206 20.9773 243.968 21.4773 245.581 22.4773C247.195 23.4659 248.485 24.9602 249.451 26.9602C250.417 28.9489 250.9 31.4432 250.9 34.4432C250.9 37.3636 250.428 39.8295 249.485 41.8409C248.553 43.8409 247.28 45.358 245.667 46.392C244.064 47.4148 242.269 47.9261 240.28 47.9261C238.871 47.9261 237.672 47.6932 236.684 47.2273C235.706 46.7614 234.905 46.1761 234.28 45.4716C233.655 44.7557 233.178 44.0341 232.849 43.3068H232.627V57.3182H225.366ZM232.474 34.4091C232.474 35.9659 232.689 37.3239 233.121 38.483C233.553 39.642 234.178 40.5455 234.996 41.1932C235.814 41.8295 236.809 42.1477 237.979 42.1477C239.161 42.1477 240.161 41.8239 240.979 41.1761C241.797 40.517 242.417 39.608 242.837 38.4489C243.269 37.2784 243.485 35.9318 243.485 34.4091C243.485 32.8977 243.275 31.5682 242.854 30.4205C242.434 29.2727 241.814 28.375 240.996 27.7273C240.178 27.0795 239.172 26.7557 237.979 26.7557C236.797 26.7557 235.797 27.0682 234.979 27.6932C234.172 28.3182 233.553 29.2045 233.121 30.3523C232.689 31.5 232.474 32.8523 232.474 34.4091ZM274.73 36.3523V21.3182H281.992V47.5H275.02V42.7443H274.747C274.156 44.2784 273.173 45.5114 271.798 46.4432C270.435 47.375 268.77 47.8409 266.804 47.8409C265.054 47.8409 263.514 47.4432 262.185 46.6477C260.855 45.8523 259.816 44.7216 259.066 43.2557C258.327 41.7898 257.952 40.0341 257.941 37.9886V21.3182H265.202V36.6932C265.213 38.2386 265.628 39.4602 266.446 40.358C267.264 41.2557 268.361 41.7045 269.736 41.7045C270.611 41.7045 271.429 41.5057 272.191 41.108C272.952 40.6989 273.566 40.0966 274.031 39.3011C274.509 38.5057 274.742 37.5227 274.73 36.3523ZM311.784 28.7841L305.136 29.1932C305.023 28.625 304.778 28.1136 304.403 27.6591C304.028 27.1932 303.534 26.8239 302.92 26.5511C302.318 26.267 301.597 26.125 300.756 26.125C299.631 26.125 298.682 26.3636 297.909 26.8409C297.136 27.3068 296.75 27.9318 296.75 28.7159C296.75 29.3409 297 29.8693 297.5 30.3011C298 30.733 298.858 31.0795 300.074 31.3409L304.812 32.2955C307.358 32.8182 309.256 33.6591 310.506 34.8182C311.756 35.9773 312.381 37.5 312.381 39.3864C312.381 41.1023 311.875 42.608 310.864 43.9034C309.864 45.1989 308.489 46.2102 306.739 46.9375C305 47.6534 302.994 48.0114 300.722 48.0114C297.256 48.0114 294.494 47.2898 292.437 45.8466C290.392 44.392 289.193 42.4148 288.841 39.9148L295.983 39.5398C296.199 40.5966 296.722 41.4034 297.551 41.9602C298.381 42.5057 299.443 42.7784 300.739 42.7784C302.011 42.7784 303.034 42.5341 303.807 42.0455C304.591 41.5455 304.989 40.9034 305 40.1193C304.989 39.4602 304.71 38.9205 304.165 38.5C303.619 38.0682 302.778 37.7386 301.642 37.5114L297.108 36.608C294.551 36.0966 292.648 35.2102 291.398 33.9489C290.159 32.6875 289.54 31.0795 289.54 29.125C289.54 27.4432 289.994 25.9943 290.903 24.7784C291.824 23.5625 293.114 22.625 294.773 21.9659C296.443 21.3068 298.398 20.9773 300.636 20.9773C303.943 20.9773 306.545 21.6761 308.443 23.0739C310.352 24.4716 311.466 26.375 311.784 28.7841Z" fill="white"/>
</svg>
