<svg width="15" height="17" viewBox="0 0 15 17" fill="none" xmlns="http://www.w3.org/2000/svg">
<path d="M7.49998 13L4.23748 8.1625C3.70347 7.50048 3.35958 6.69277 3.24585 5.83346C3.13213 4.97415 3.25325 4.0986 3.59511 3.30877C3.93698 2.51895 4.48551 1.84736 5.17684 1.37222C5.86816 0.89708 6.67382 0.637947 7.49998 0.625C8.6452 0.636883 9.73926 1.12483 10.5425 1.98198C11.3458 2.83913 11.7928 3.99561 11.7857 5.19812C11.7861 6.24715 11.446 7.265 10.8214 8.08375L7.49998 13ZM7.49998 1.75C6.63848 1.76039 5.81611 2.12934 5.21345 2.77583C4.6108 3.42233 4.27713 4.29353 4.2857 5.19812C4.28929 6.02378 4.57219 6.82122 5.08391 7.44812L7.49998 11.0425L9.98034 7.375C10.4518 6.75706 10.7105 5.9899 10.7143 5.19812C10.7228 4.29353 10.3892 3.42233 9.78651 2.77583C9.18386 2.12934 8.36149 1.76039 7.49998 1.75Z" fill="#F9832A"/>
<path d="M7.4999 5.6875C8.09163 5.6875 8.57132 5.18382 8.57132 4.5625C8.57132 3.94118 8.09163 3.4375 7.4999 3.4375C6.90816 3.4375 6.42847 3.94118 6.42847 4.5625C6.42847 5.18382 6.90816 5.6875 7.4999 5.6875Z" fill="#F9832A"/>
<path d="M13.9286 6.25H12.8571V7.375H13.9286V15.25H1.07143V7.375H2.14286V6.25H1.07143C0.787268 6.25 0.514746 6.36853 0.313814 6.57951C0.112882 6.79048 0 7.07663 0 7.375V15.25C0 15.5484 0.112882 15.8345 0.313814 16.0455C0.514746 16.2565 0.787268 16.375 1.07143 16.375H13.9286C14.2127 16.375 14.4853 16.2565 14.6862 16.0455C14.8871 15.8345 15 15.5484 15 15.25V7.375C15 7.07663 14.8871 6.79048 14.6862 6.57951C14.4853 6.36853 14.2127 6.25 13.9286 6.25Z" fill="#F9832A"/>
</svg>
