<svg width="9" height="12" viewBox="0 0 9 12" fill="none" xmlns="http://www.w3.org/2000/svg">
<path d="M4.125 0.75C3.03136 0.751241 1.98287 1.18624 1.20955 1.95955C0.436236 2.73287 0.00124066 3.78136 0 4.875C0 8.40469 3.75 11.0705 3.90984 11.182C3.9729 11.2262 4.04802 11.2499 4.125 11.2499C4.20198 11.2499 4.2771 11.2262 4.34016 11.182C4.5 11.0705 8.25 8.40469 8.25 4.875C8.24876 3.78136 7.81376 2.73287 7.04045 1.95955C6.26713 1.18624 5.21864 0.751241 4.125 0.75ZM4.125 3.375C4.42167 3.375 4.71168 3.46297 4.95835 3.6278C5.20503 3.79262 5.39729 4.02689 5.51082 4.30097C5.62435 4.57506 5.65406 4.87666 5.59618 5.16764C5.5383 5.45861 5.39544 5.72588 5.18566 5.93566C4.97588 6.14544 4.70861 6.2883 4.41764 6.34618C4.12666 6.40406 3.82506 6.37435 3.55097 6.26082C3.27689 6.14729 3.04262 5.95503 2.8778 5.70835C2.71297 5.46168 2.625 5.17167 2.625 4.875C2.625 4.47718 2.78304 4.09564 3.06434 3.81434C3.34564 3.53304 3.72718 3.375 4.125 3.375Z" fill="#F9832A"/>
</svg>
