<svg width="20" height="15" viewBox="0 0 20 15" fill="none" xmlns="http://www.w3.org/2000/svg">
<path d="M18.3727 6.15H1.09271C0.347515 6.15 0.282715 6.75345 0.282715 7.5C0.282715 8.24655 0.347515 8.85 1.09271 8.85H18.3727C19.1179 8.85 19.1827 8.24655 19.1827 7.5C19.1827 6.75345 19.1179 6.15 18.3727 6.15ZM18.3727 11.55H1.09271C0.347515 11.55 0.282715 12.1535 0.282715 12.9C0.282715 13.6466 0.347515 14.25 1.09271 14.25H18.3727C19.1179 14.25 19.1827 13.6466 19.1827 12.9C19.1827 12.1535 19.1179 11.55 18.3727 11.55ZM1.09271 3.45H18.3727C19.1179 3.45 19.1827 2.84655 19.1827 2.1C19.1827 1.35345 19.1179 0.75 18.3727 0.75H1.09271C0.347515 0.75 0.282715 1.35345 0.282715 2.1C0.282715 2.84655 0.347515 3.45 1.09271 3.45Z" fill="#F9832A"/>
</svg>
