<svg width="23" height="22" viewBox="0 0 23 22" fill="none" xmlns="http://www.w3.org/2000/svg">
<path d="M9.1519 0.974141C10.4394 -0.323059 12.5411 -0.323059 13.8396 0.964239L14.6429 1.76632C14.951 2.0744 15.3692 2.25154 15.8093 2.25154H16.9427C18.7694 2.25154 20.2549 3.73578 20.2549 5.5622V6.69656C20.2549 7.13557 20.431 7.55366 20.7391 7.86173L21.5314 8.65392C22.1586 9.27006 22.4997 10.1063 22.4997 10.9865C22.5107 11.8667 22.1696 12.704 21.5534 13.33L20.7391 14.1442C20.431 14.4523 20.2549 14.8704 20.2549 15.3116V16.4437C20.2549 18.2701 18.7694 19.7566 16.9427 19.7566H15.8093C15.3692 19.7566 14.951 19.9315 14.6429 20.2396L13.8506 21.0318C13.2014 21.682 12.3541 22 11.5068 22C10.6595 22 9.81214 21.682 9.16291 21.0439L8.35962 20.2396C8.0515 19.9315 7.63335 19.7566 7.19319 19.7566H6.05978C4.23312 19.7566 2.74758 18.2701 2.74758 16.4437V15.3116C2.74758 14.8704 2.57152 14.4523 2.26341 14.1332L1.47112 13.352C0.183653 12.0658 0.172649 9.96322 1.46012 8.66602L2.26341 7.86173C2.57152 7.55366 2.74758 7.13557 2.74758 6.68446V5.5622C2.74758 3.73578 4.23312 2.25154 6.05978 2.25154H7.19319C7.63335 2.25154 8.0515 2.0744 8.35962 1.76632L9.1519 0.974141ZM14.3348 12.8679C13.7956 12.8679 13.3664 13.2981 13.3664 13.8251C13.3664 14.3642 13.7956 14.7933 14.3348 14.7933C14.863 14.7933 15.2921 14.3642 15.2921 13.8251C15.2921 13.2981 14.863 12.8679 14.3348 12.8679ZM15.006 7.48765C14.6319 7.11466 14.0267 7.11466 13.6525 7.48765L7.99649 13.143C7.62235 13.517 7.62235 14.1332 7.99649 14.5073C8.17255 14.6943 8.41464 14.7933 8.66773 14.7933C8.93182 14.7933 9.17391 14.6943 9.34998 14.5073L15.006 8.85306C15.3802 8.47898 15.3802 7.86173 15.006 7.48765ZM8.67873 7.21258C8.15054 7.21258 7.71038 7.64168 7.71038 8.1698C7.71038 8.71003 8.15054 9.13803 8.67873 9.13803C9.20692 9.13803 9.63608 8.71003 9.63608 8.1698C9.63608 7.64168 9.20692 7.21258 8.67873 7.21258Z" fill="#AAAAAA"/>
</svg>
