<svg width="72" height="26" viewBox="0 0 72 26" fill="none" xmlns="http://www.w3.org/2000/svg">
<g filter="url(#filter0_d_1389_394)">
<path d="M4 7C4 4.23858 6.23858 2 9 2H59C63.9706 2 68 6.02944 68 11C68 15.9706 63.9706 20 59 20H4V7Z" fill="#FF9240"/>
</g>
<path d="M8 24.9692C4.8 25.3667 4 21.822 4 20H8V24.9692Z" fill="#FF6E00"/>
<path d="M12.7761 15V7.72727H15.6454C16.197 7.72727 16.6669 7.83262 17.0552 8.04332C17.4435 8.25166 17.7394 8.54167 17.943 8.91335C18.149 9.28267 18.2519 9.70881 18.2519 10.1918C18.2519 10.6747 18.1478 11.1009 17.9394 11.4702C17.7311 11.8395 17.4293 12.1271 17.0339 12.3331C16.6409 12.5391 16.1651 12.642 15.6063 12.642H13.7775V11.4098H15.3578C15.6537 11.4098 15.8975 11.3589 16.0893 11.2571C16.2834 11.1529 16.4278 11.0097 16.5225 10.8274C16.6196 10.6428 16.6681 10.4309 16.6681 10.1918C16.6681 9.95028 16.6196 9.73958 16.5225 9.55966C16.4278 9.37737 16.2834 9.23651 16.0893 9.13707C15.8952 9.03527 15.649 8.98438 15.3507 8.98438H14.3137V15H12.7761ZM18.9707 15V7.72727H21.84C22.3893 7.72727 22.858 7.82552 23.2463 8.02202C23.6369 8.21615 23.934 8.49195 24.1376 8.84943C24.3436 9.20455 24.4465 9.6224 24.4465 10.103C24.4465 10.5859 24.3424 11.0014 24.134 11.3494C23.9257 11.6951 23.6239 11.9602 23.2285 12.1449C22.8355 12.3295 22.3597 12.4219 21.801 12.4219H19.8798V11.1861H21.5524C21.8459 11.1861 22.0898 11.1458 22.2839 11.0653C22.478 10.9848 22.6224 10.8641 22.7171 10.7031C22.8142 10.5421 22.8627 10.3421 22.8627 10.103C22.8627 9.86151 22.8142 9.65791 22.7171 9.49219C22.6224 9.32647 22.4769 9.20099 22.2804 9.11577C22.0862 9.02817 21.8412 8.98438 21.5453 8.98438H20.5083V15H18.9707ZM22.8983 11.6903L24.7058 15H23.0083L21.2399 11.6903H22.8983ZM31.9364 11.3636C31.9364 12.1567 31.7861 12.8314 31.4854 13.3878C31.1871 13.9441 30.7799 14.3691 30.2638 14.6626C29.7501 14.9538 29.1725 15.0994 28.5309 15.0994C27.8846 15.0994 27.3046 14.9527 26.7908 14.6591C26.2771 14.3655 25.8711 13.9406 25.5728 13.3842C25.2745 12.8279 25.1254 12.1544 25.1254 11.3636C25.1254 10.5705 25.2745 9.89583 25.5728 9.33949C25.8711 8.78314 26.2771 8.35937 26.7908 8.06818C27.3046 7.77462 27.8846 7.62784 28.5309 7.62784C29.1725 7.62784 29.7501 7.77462 30.2638 8.06818C30.7799 8.35937 31.1871 8.78314 31.4854 9.33949C31.7861 9.89583 31.9364 10.5705 31.9364 11.3636ZM30.3775 11.3636C30.3775 10.8499 30.3005 10.4167 30.1467 10.0639C29.9951 9.71117 29.7809 9.44366 29.5039 9.26136C29.2269 9.07907 28.9026 8.98793 28.5309 8.98793C28.1592 8.98793 27.8349 9.07907 27.5579 9.26136C27.2809 9.44366 27.0655 9.71117 26.9116 10.0639C26.7601 10.4167 26.6843 10.8499 26.6843 11.3636C26.6843 11.8774 26.7601 12.3106 26.9116 12.6634C27.0655 13.0161 27.2809 13.2836 27.5579 13.4659C27.8349 13.6482 28.1592 13.7393 28.5309 13.7393C28.9026 13.7393 29.2269 13.6482 29.5039 13.4659C29.7809 13.2836 29.9951 13.0161 30.1467 12.6634C30.3005 12.3106 30.3775 11.8774 30.3775 11.3636ZM32.7955 7.72727H34.6918L36.6946 12.6136H36.7798L38.7827 7.72727H40.679V15H39.1875V10.2663H39.1271L37.245 14.9645H36.2294L34.3473 10.2486H34.2869V15H32.7955V7.72727ZM48.3491 11.3636C48.3491 12.1567 48.1988 12.8314 47.8981 13.3878C47.5998 13.9441 47.1926 14.3691 46.6765 14.6626C46.1628 14.9538 45.5851 15.0994 44.9435 15.0994C44.2972 15.0994 43.7172 14.9527 43.2035 14.6591C42.6898 14.3655 42.2837 13.9406 41.9855 13.3842C41.6872 12.8279 41.538 12.1544 41.538 11.3636C41.538 10.5705 41.6872 9.89583 41.9855 9.33949C42.2837 8.78314 42.6898 8.35937 43.2035 8.06818C43.7172 7.77462 44.2972 7.62784 44.9435 7.62784C45.5851 7.62784 46.1628 7.77462 46.6765 8.06818C47.1926 8.35937 47.5998 8.78314 47.8981 9.33949C48.1988 9.89583 48.3491 10.5705 48.3491 11.3636ZM46.7901 11.3636C46.7901 10.8499 46.7132 10.4167 46.5593 10.0639C46.4078 9.71117 46.1935 9.44366 45.9166 9.26136C45.6396 9.07907 45.3152 8.98793 44.9435 8.98793C44.5719 8.98793 44.2475 9.07907 43.9705 9.26136C43.6935 9.44366 43.4781 9.71117 43.3242 10.0639C43.1727 10.4167 43.097 10.8499 43.097 11.3636C43.097 11.8774 43.1727 12.3106 43.3242 12.6634C43.4781 13.0161 43.6935 13.2836 43.9705 13.4659C44.2475 13.6482 44.5719 13.7393 44.9435 13.7393C45.3152 13.7393 45.6396 13.6482 45.9166 13.4659C46.1935 13.2836 46.4078 13.0161 46.5593 12.6634C46.7132 12.3106 46.7901 11.8774 46.7901 11.3636Z" fill="white"/>
<path d="M57.5394 6.89851C58.0661 6.36784 58.9259 6.36784 59.4571 6.89446L59.7857 7.22259C59.9118 7.34862 60.0828 7.42108 60.2629 7.42108H60.7266C61.4738 7.42108 62.0816 8.02827 62.0816 8.77545V9.2395C62.0816 9.41909 62.1536 9.59013 62.2796 9.71616L62.6038 10.0402C62.8603 10.2923 62.9999 10.6344 62.9999 10.9945C63.0044 11.3545 62.8648 11.6971 62.6128 11.9532L62.2796 12.2863C62.1536 12.4123 62.0816 12.5833 62.0816 12.7638V13.227C62.0816 13.9741 61.4738 14.5822 60.7266 14.5822H60.2629C60.0828 14.5822 59.9118 14.6538 59.7857 14.7798L59.4616 15.1039C59.196 15.3699 58.8494 15.5 58.5028 15.5C58.1561 15.5 57.8095 15.3699 57.5439 15.1089L57.2153 14.7798C57.0893 14.6538 56.9182 14.5822 56.7381 14.5822H56.2745C55.5272 14.5822 54.9195 13.9741 54.9195 13.227V12.7638C54.9195 12.5833 54.8474 12.4123 54.7214 12.2818L54.3973 11.9622C53.8706 11.436 53.8661 10.5759 54.3928 10.0452L54.7214 9.71616C54.8474 9.59013 54.9195 9.41909 54.9195 9.23455V8.77545C54.9195 8.02827 55.5272 7.42108 56.2745 7.42108H56.7381C56.9182 7.42108 57.0893 7.34862 57.2153 7.22259L57.5394 6.89851ZM59.6597 11.7641C59.4391 11.7641 59.2635 11.9401 59.2635 12.1557C59.2635 12.3763 59.4391 12.5518 59.6597 12.5518C59.8758 12.5518 60.0513 12.3763 60.0513 12.1557C60.0513 11.9401 59.8758 11.7641 59.6597 11.7641ZM59.9343 9.56313C59.7812 9.41054 59.5336 9.41054 59.3806 9.56313L57.0667 11.8767C56.9137 12.0297 56.9137 12.2818 57.0667 12.4348C57.1388 12.5113 57.2378 12.5518 57.3413 12.5518C57.4494 12.5518 57.5484 12.5113 57.6204 12.4348L59.9343 10.1217C60.0873 9.96867 60.0873 9.71616 59.9343 9.56313ZM57.3458 9.4506C57.1298 9.4506 56.9497 9.62614 56.9497 9.84219C56.9497 10.0632 57.1298 10.2383 57.3458 10.2383C57.5619 10.2383 57.7375 10.0632 57.7375 9.84219C57.7375 9.62614 57.5619 9.4506 57.3458 9.4506Z" fill="#FEFEFE"/>
<defs>
<filter id="filter0_d_1389_394" x="0" y="0" width="72" height="26" filterUnits="userSpaceOnUse" color-interpolation-filters="sRGB">
<feFlood flood-opacity="0" result="BackgroundImageFix"/>
<feColorMatrix in="SourceAlpha" type="matrix" values="0 0 0 0 0 0 0 0 0 0 0 0 0 0 0 0 0 0 127 0" result="hardAlpha"/>
<feOffset dy="2"/>
<feGaussianBlur stdDeviation="2"/>
<feComposite in2="hardAlpha" operator="out"/>
<feColorMatrix type="matrix" values="0 0 0 0 0 0 0 0 0 0 0 0 0 0 0 0 0 0 0.25 0"/>
<feBlend mode="normal" in2="BackgroundImageFix" result="effect1_dropShadow_1389_394"/>
<feBlend mode="normal" in="SourceGraphic" in2="effect1_dropShadow_1389_394" result="shape"/>
</filter>
</defs>
</svg>
