<svg width="42" height="42" viewBox="0 0 32 32" fill="none" xmlns="http://www.w3.org/2000/svg">
<path d="M27.2428 13.5399C27.2452 13.7054 27.2273 13.8707 27.1893 14.0321C27.2062 13.8652 27.227 13.7029 27.2428 13.5399Z" fill="#5E422B"/>
<path d="M26.8438 14.8274C25.5075 16.915 20.9596 18.5571 15.5101 18.7115C10.0606 18.8658 5.41429 17.5053 3.94873 15.4997C4.46476 14.6943 5.45796 13.9545 6.80218 13.3412C8.93461 12.3659 11.9406 11.7078 15.2911 11.613C18.0689 11.5306 20.6376 11.8457 22.6824 12.4402C24.6449 13.0131 26.1263 13.8436 26.8438 14.8274Z" fill="#4C371D"/>
<path d="M27.243 13.505C27.244 13.5177 27.2442 13.5304 27.2438 13.5431C27.228 13.7061 27.2111 13.8695 27.1903 14.0353C27.1218 14.3174 27.005 14.5863 26.8449 14.8307C26.1285 13.8465 24.646 13.0163 22.6792 12.4448C20.6344 11.8503 18.0657 11.5351 15.2879 11.6176C11.9385 11.7155 8.9314 12.3705 6.79897 13.3458C5.45476 13.959 4.46478 14.6978 3.94552 15.5043C3.6605 15.1343 3.4942 14.6902 3.46756 14.2282C3.4651 14.2209 3.46264 14.2135 3.46054 14.2072C3.37763 11.5216 8.63396 9.19299 15.1977 8.99581C21.7145 8.80427 27.0725 10.7926 27.2312 13.4483C27.2408 13.4627 27.2413 13.4823 27.243 13.505Z" fill="#5E422B"/>
<path d="M27.2488 13.704C27.2495 13.7168 27.2494 13.7296 27.2486 13.7424C27.2335 13.9041 27.2159 14.0688 27.1958 14.2333C27.1278 14.5158 27.0111 14.7851 26.8508 15.0297C26.1343 14.0455 24.6515 13.2143 22.6836 12.643C20.6403 12.0493 18.0715 11.7341 15.2934 11.8155C11.9432 11.9149 8.93618 12.5698 6.80375 13.5452C5.45954 14.1584 4.46956 14.8972 3.9503 15.7037C3.6648 15.3339 3.49844 14.8897 3.47234 14.4275C3.46939 14.4208 3.46704 14.4137 3.46532 14.4065C3.3824 11.7209 8.63766 9.39267 15.2025 9.19515C21.7182 9.00395 27.0772 10.9919 27.2349 13.648C27.2407 13.6664 27.2453 13.6851 27.2488 13.704Z" fill="#AC5226"/>
<path d="M27.2431 13.5329C27.2431 13.5329 27.2431 13.5329 27.2452 13.5392C27.2456 13.5265 27.2453 13.5138 27.2444 13.5011C27.2384 13.4833 27.2432 13.462 27.2412 13.4417C27.2467 13.4718 27.2473 13.5026 27.2431 13.5329Z" fill="#5E422B"/>
<path d="M10.4684 14.3648C10.4422 13.7341 15.1463 13.5389 15.5555 12.4212C15.9648 11.3034 18.8525 11.0687 19.3681 11.8123C20.8017 13.8757 23.0645 12.3349 23.2136 12.6953C23.3627 13.0558 21.4498 15.5927 20.4194 14.9349C19.3891 14.2771 15.982 16.3873 16.4334 15.1318C16.8847 13.8764 14.03 16.1735 13.5574 15.2164C13.0848 14.2593 10.5684 16.6953 10.4684 14.3648Z" stroke="#E5CA76" stroke-width="2.30622" stroke-miterlimit="10"/>
<path d="M9.1438 15.682C9.1134 14.8783 13.8169 14.6705 14.2163 13.2561C14.6157 11.8417 17.7179 11.0973 18.1647 12.1056C18.6115 13.1139 22.0419 13.5572 22.1946 14.0141C22.3474 14.471 20.1389 17.3285 19.1026 16.4855C18.0663 15.6425 14.6764 18.2922 15.112 16.7082C15.5477 15.1243 12.7173 18.011 12.2371 16.7925C11.757 15.574 9.25855 18.641 9.1438 15.682Z" stroke="#E5CA76" stroke-width="2.59959" stroke-miterlimit="10"/>
<path d="M18.5337 15.7065C18.5058 16.3359 14.6354 16.166 14.2068 17.247C13.7781 18.3279 11.1822 18.6872 10.8914 17.8675C10.6006 17.0478 7.82957 16.4518 7.73784 16.0813C7.6461 15.7107 9.66597 13.629 10.4504 14.3638C11.2347 15.0986 14.2046 13.2633 13.731 14.4771C13.2573 15.6908 15.7848 13.6267 16.0884 14.6166C16.392 15.6065 18.6558 13.3775 18.5337 15.7065Z" stroke="#E5CA76" stroke-width="1.39351" stroke-miterlimit="10"/>
<path d="M23.9905 14.4482C23.9626 15.0775 19.2541 14.8569 18.7445 15.9345C18.2348 17.0121 15.0828 17.3367 14.7192 16.5169C14.3557 15.6971 10.9729 15.0609 10.8568 14.6888C10.7407 14.3167 13.1693 12.2595 14.1349 13.0053C15.1005 13.7511 18.6889 11.9516 18.129 13.1602C17.569 14.3689 20.618 12.3353 20.9997 13.3306C21.3814 14.3259 24.1076 12.1184 23.9905 14.4482Z" stroke="#E5CA76" stroke-width="2.30622" stroke-miterlimit="10"/>
<path d="M23.1537 15.9052C23.1258 16.5346 18.4187 16.3147 17.9077 17.3916C17.3966 18.4685 14.2463 18.7948 13.8835 17.9736C13.5207 17.1524 10.1358 16.5169 10.0211 16.1455C9.90646 15.7741 12.3332 13.7152 13.2978 14.4613C14.2623 15.2075 17.8518 13.4076 17.2922 14.6173C16.7326 15.827 19.7812 13.7924 20.1625 14.7866C20.5439 15.7809 23.2708 13.5755 23.1537 15.9052Z" stroke="#E5CA76" stroke-width="2.30622" stroke-miterlimit="10"/>
<path d="M24.8344 16.0134C24.8065 16.6428 20.098 16.4221 19.5884 17.4998C19.0788 18.5774 15.9249 18.8967 15.5632 18.0822C15.2014 17.2676 11.8165 16.6251 11.7008 16.254C11.585 15.883 14.0132 13.8248 14.9788 14.5706C15.9445 15.3163 19.5329 13.5168 18.9729 14.7255C18.413 15.9341 21.4619 13.9006 21.8436 14.8959C22.2253 15.8912 24.9522 13.6857 24.8344 16.0134Z" stroke="#E5CA76" stroke-width="2.30622" stroke-miterlimit="10"/>
<path d="M25.0966 15.147C25.0687 15.7763 20.3602 15.5557 19.8495 16.6337C19.3388 17.7116 16.1861 18.0306 15.8254 17.2157C15.4647 16.4008 12.0787 15.7586 11.963 15.3876C11.8472 15.0165 14.2754 12.9583 15.24 13.7045C16.2045 14.4506 19.7951 12.6504 19.2341 13.8594C18.673 15.0684 21.7241 13.0341 22.1058 14.0294C22.4875 15.0247 25.2137 12.8172 25.0966 15.147Z" stroke="#E5CA76" stroke-width="2.30622" stroke-miterlimit="10"/>
<path d="M25.8045 16.7229C25.777 17.3533 21.0685 17.1327 20.5589 18.2103C20.0493 19.288 16.8954 19.6073 16.5337 18.7927C16.1719 17.9782 12.787 17.3356 12.6713 16.9646C12.5555 16.5935 14.9834 14.5343 15.949 15.2801C16.9146 16.0259 20.503 14.2263 19.9423 15.4364C19.3817 16.6464 22.4324 14.6111 22.8138 15.6054C23.1951 16.5996 25.9206 14.39 25.8045 16.7229Z" stroke="#E5CA76" stroke-width="2.30622" stroke-miterlimit="10"/>
<path d="M20.1546 14.6346C20.1267 15.264 15.4193 15.043 14.9086 16.121C14.3979 17.1989 11.2469 17.5232 10.8845 16.703C10.522 15.8829 7.13672 15.2463 7.02206 14.8749C6.9074 14.5035 9.3345 12.4457 10.299 13.1918C11.2636 13.9379 14.8531 12.138 14.2931 13.3467C13.7332 14.5553 16.7832 12.5214 17.1649 13.5167C17.5466 14.512 20.2717 12.3048 20.1546 14.6346Z" stroke="#E5CA76" stroke-width="2.30622" stroke-miterlimit="10"/>
<path d="M22.8301 17.0619C22.8022 17.6913 18.0937 17.4707 17.5841 18.5483C17.0744 19.6259 13.9206 19.9452 13.5588 19.1307C13.1971 18.3161 9.81252 17.6746 9.69643 17.3025C9.58034 16.9304 12.0089 14.8733 12.9734 15.6194C13.938 16.3655 17.5285 14.5653 16.9675 15.7743C16.4065 16.9833 19.4576 14.9491 19.8393 15.9444C20.221 16.9397 22.9472 14.7322 22.8301 17.0619Z" stroke="#E5CA76" stroke-width="2.30622" stroke-miterlimit="10"/>
<path d="M24.3598 16.8859C24.3319 17.5152 19.6238 17.2956 19.1138 18.3722C18.6038 19.4488 15.4525 19.7755 15.0886 18.9546C14.7247 18.1337 11.3419 17.4975 11.2262 17.1264C11.1105 16.7554 13.5383 14.6962 14.5039 15.442C15.4695 16.1877 19.0579 14.3882 18.4983 15.5979C17.9387 16.8076 20.9874 14.773 21.3687 15.7672C21.75 16.7615 24.477 14.5561 24.3598 16.8859Z" stroke="#E5CA76" stroke-width="2.30622" stroke-miterlimit="10"/>
<path d="M25.8701 15.8317C25.8422 16.461 21.1341 16.2414 20.6241 17.318C20.1141 18.3946 16.9627 18.7213 16.5989 17.9004C16.235 17.0795 12.8522 16.4433 12.7364 16.0722C12.6207 15.7012 15.0485 13.642 16.0142 14.3878C16.9798 15.1335 20.5682 13.334 20.0086 14.5437C19.449 15.7534 22.4976 13.7188 22.879 14.713C23.2603 15.7073 25.9872 13.5019 25.8701 15.8317Z" stroke="#E5CA76" stroke-width="1.53205" stroke-miterlimit="10"/>
<path d="M18.8447 16.0385C18.8168 16.6678 14.1083 16.4472 13.5976 17.5252C13.0869 18.6032 9.93628 18.9284 9.57349 18.1072C9.21069 17.286 5.82716 16.6512 5.71108 16.2791C5.59499 15.907 8.02352 13.8499 8.98806 14.596C9.95261 15.3421 13.5432 13.5419 12.9822 14.7509C12.4211 15.9599 15.4722 13.9256 15.8539 14.9209C16.2356 15.9162 18.9618 13.7087 18.8447 16.0385Z" stroke="#E5CA76" stroke-width="1.53205" stroke-miterlimit="10"/>
<path d="M21.487 14.3504C21.4595 14.9809 16.751 14.7602 16.241 15.8368C15.731 16.9134 12.5797 17.24 12.2158 16.4192C11.8519 15.5983 8.46913 14.9621 8.35339 14.591C8.23766 14.22 10.6655 12.1608 11.6311 12.9066C12.5967 13.6523 16.1851 11.8528 15.6245 13.0628C15.0638 14.2729 18.1145 12.2376 18.4959 13.2318C18.8772 14.2261 21.6042 12.0207 21.487 14.3504Z" stroke="#E5CA76" stroke-width="2.30622" stroke-miterlimit="10"/>
<path d="M18.6521 13.0206C18.7286 13.7876 14.0424 14.2536 13.7231 15.6332C13.4039 17.0128 10.3461 17.9012 9.84439 16.9638C9.34264 16.0264 5.89442 15.7932 5.71602 15.3631C5.53762 14.933 7.58499 12.0674 8.66597 12.8161C9.74695 13.5647 12.9845 10.8298 12.6379 12.3773C12.2914 13.9248 14.9559 10.9909 15.5028 12.1312C16.0498 13.2715 18.3695 10.1904 18.6521 13.0206Z" stroke="#E5CA76" stroke-width="1.69503" stroke-miterlimit="10"/>
<path d="M21.8799 15.8311C21.8397 16.5911 16.6752 16.3539 16.107 17.6558C15.5389 18.9577 12.0763 19.3693 11.6817 18.3781C11.2871 17.3869 7.57502 16.6463 7.45084 16.2C7.32665 15.7538 10.0072 13.2564 11.056 14.1512C12.1048 15.046 16.0657 12.8526 15.4424 14.3138C14.8191 15.775 18.1827 13.3033 18.5946 14.4993C19.0065 15.6953 22.0239 13.0222 21.8799 15.8311Z" stroke="#E5CA76" stroke-width="2.64848" stroke-miterlimit="10"/>
<path d="M17.8379 15.515C17.8103 16.1454 13.1029 15.9245 12.5922 17.0024C12.0815 18.0804 8.93055 18.4046 8.5681 17.5845C8.20566 16.7643 4.82035 16.1277 4.70569 15.7563C4.59103 15.3849 7.01778 13.3261 7.98232 14.0722C8.94687 14.8183 12.5364 13.0184 11.9768 14.2281C11.4172 15.4378 14.4669 13.4029 14.8482 14.3971C15.2295 15.3914 17.955 13.1853 17.8379 15.515Z" stroke="#E5CA76" stroke-width="2.30622" stroke-miterlimit="10"/>
<path d="M16.5523 13.3431L16.3701 13.0542L16.1588 13.1809L16.341 13.4698L16.5523 13.3431Z" fill="#43B549"/>
<path d="M16.338 13.4682C16.3678 13.4503 16.3513 13.3713 16.3012 13.2918C16.251 13.2123 16.1862 13.1623 16.1564 13.1802C16.1265 13.1981 16.143 13.2771 16.1931 13.3566C16.2433 13.4361 16.3081 13.4861 16.338 13.4682Z" fill="#43B549"/>
<path d="M16.5496 13.3413C16.5795 13.3234 16.563 13.2444 16.5129 13.1649C16.4627 13.0853 16.3979 13.0354 16.368 13.0533C16.3382 13.0712 16.3546 13.1502 16.4048 13.2297C16.4549 13.3092 16.5198 13.3591 16.5496 13.3413Z" fill="#389B47"/>
<path d="M15.6306 13.4655L15.4253 13.1399L15.1879 13.2822L15.3932 13.6078L15.6306 13.4655Z" fill="#43B549"/>
<path d="M15.3892 13.6074C15.4233 13.587 15.405 13.4975 15.3483 13.4076C15.2916 13.3177 15.218 13.2614 15.1838 13.2818C15.1497 13.3023 15.168 13.3917 15.2247 13.4816C15.2814 13.5716 15.3551 13.6279 15.3892 13.6074Z" fill="#43B549"/>
<path d="M15.6275 13.4648C15.6616 13.4444 15.6433 13.3549 15.5866 13.265C15.5299 13.1751 15.4562 13.1188 15.4221 13.1392C15.388 13.1597 15.4063 13.2492 15.463 13.3391C15.5197 13.429 15.5934 13.4853 15.6275 13.4648Z" fill="#389B47"/>
<path d="M15.5594 14.1229L15.3772 13.834L15.1658 13.9607L15.348 14.2496L15.5594 14.1229Z" fill="#43B549"/>
<path d="M15.3453 14.2473C15.3751 14.2294 15.3587 14.1504 15.3085 14.0709C15.2584 13.9913 15.1935 13.9414 15.1637 13.9593C15.1338 13.9772 15.1503 14.0562 15.2004 14.1357C15.2506 14.2152 15.3154 14.2651 15.3453 14.2473Z" fill="#43B549"/>
<path d="M15.556 14.121C15.5858 14.1031 15.5694 14.0242 15.5192 13.9446C15.4691 13.8651 15.4042 13.8152 15.3744 13.8331C15.3445 13.851 15.361 13.9299 15.4111 14.0095C15.4613 14.089 15.5261 14.1389 15.556 14.121Z" fill="#389B47"/>
<path d="M16.6268 14.6961L16.4446 14.4072L16.2332 14.534L16.4154 14.8228L16.6268 14.6961Z" fill="#43B549"/>
<path d="M16.4139 14.8188C16.4437 14.8009 16.4273 14.7219 16.3771 14.6424C16.327 14.5629 16.2621 14.5129 16.2323 14.5308C16.2024 14.5487 16.2189 14.6277 16.269 14.7072C16.3192 14.7867 16.384 14.8367 16.4139 14.8188Z" fill="#43B549"/>
<path d="M16.6248 14.6933C16.6547 14.6754 16.6382 14.5964 16.5881 14.5169C16.5379 14.4374 16.4731 14.3874 16.4432 14.4053C16.4134 14.4232 16.4298 14.5022 16.48 14.5817C16.5301 14.6612 16.595 14.7112 16.6248 14.6933Z" fill="#389B47"/>
<path d="M16.169 13.3687L15.8367 13.2686L15.7634 13.4997L16.0957 13.5999L16.169 13.3687Z" fill="#43B549"/>
<path d="M16.1154 13.5977C16.1257 13.565 16.06 13.5162 15.9685 13.4886C15.877 13.461 15.7945 13.4651 15.7841 13.4978C15.7738 13.5304 15.8395 13.5792 15.931 13.6068C16.0225 13.6344 16.105 13.6303 16.1154 13.5977Z" fill="#43B549"/>
<path d="M16.1876 13.3664C16.198 13.3338 16.1322 13.285 16.0408 13.2574C15.9493 13.2298 15.8667 13.2339 15.8564 13.2666C15.846 13.2992 15.9118 13.348 16.0033 13.3756C16.0947 13.4032 16.1773 13.3991 16.1876 13.3664Z" fill="#389B47"/>
<path d="M16.5869 13.6552L16.3022 13.4602L16.1596 13.6582L16.4442 13.8531L16.5869 13.6552Z" fill="#43B549"/>
<path d="M16.4491 13.8534C16.4692 13.8255 16.422 13.7593 16.3437 13.7057C16.2654 13.652 16.1855 13.6311 16.1654 13.6591C16.1452 13.6871 16.1924 13.7532 16.2708 13.8069C16.3491 13.8606 16.4289 13.8814 16.4491 13.8534Z" fill="#43B549"/>
<path d="M16.5902 13.6562C16.6103 13.6282 16.5632 13.5621 16.4848 13.5084C16.4065 13.4547 16.3266 13.4339 16.3065 13.4618C16.2863 13.4898 16.3335 13.556 16.4119 13.6096C16.4902 13.6633 16.57 13.6841 16.5902 13.6562Z" fill="#389B47"/>
<path d="M16.3431 13.7839L15.9954 13.7761L15.9896 14.018L16.3374 14.0258L16.3431 13.7839Z" fill="#43B549"/>
<path d="M16.3278 14.029C16.3286 13.9948 16.2517 13.9654 16.156 13.9632C16.0603 13.9611 15.982 13.987 15.9812 14.0212C15.9804 14.0553 16.0573 14.0848 16.153 14.0869C16.2488 14.0891 16.327 14.0631 16.3278 14.029Z" fill="#43B549"/>
<path d="M16.3339 13.7885C16.3347 13.7543 16.2578 13.7249 16.1621 13.7227C16.0664 13.7206 15.9881 13.7465 15.9873 13.7807C15.9865 13.8148 16.0634 13.8443 16.1591 13.8464C16.2549 13.8486 16.3331 13.8226 16.3339 13.7885Z" fill="#389B47"/>
<path d="M16.845 14.0501L16.6628 13.7612L16.4515 13.888L16.6337 14.1769L16.845 14.0501Z" fill="#43B549"/>
<path d="M16.6317 14.174C16.6615 14.1561 16.6451 14.0771 16.5949 13.9976C16.5448 13.9181 16.4799 13.8682 16.4501 13.886C16.4202 13.9039 16.4367 13.9829 16.4868 14.0624C16.537 14.142 16.6018 14.1919 16.6317 14.174Z" fill="#43B549"/>
<path d="M16.8424 14.0473C16.8722 14.0294 16.8557 13.9504 16.8056 13.8709C16.7554 13.7914 16.6906 13.7414 16.6607 13.7593C16.6309 13.7772 16.6473 13.8562 16.6975 13.9357C16.7476 14.0152 16.8125 14.0652 16.8424 14.0473Z" fill="#389B47"/>
<path d="M16.9374 14.4748L16.9653 14.1367L16.718 14.1173L16.69 14.4553L16.9374 14.4748Z" fill="#43B549"/>
<path d="M16.7957 14.3041C16.8034 14.2111 16.7813 14.1334 16.7464 14.1307C16.7115 14.1279 16.6769 14.2011 16.6692 14.2942C16.6615 14.3872 16.6836 14.4649 16.7185 14.4676C16.7534 14.4704 16.788 14.3972 16.7957 14.3041Z" fill="#43B549"/>
<path d="M17.042 14.3244C17.0497 14.2313 17.0277 14.1537 16.9927 14.1509C16.9578 14.1482 16.9233 14.2214 16.9156 14.3144C16.9079 14.4075 16.9299 14.4851 16.9649 14.4879C16.9998 14.4906 17.0343 14.4174 17.042 14.3244Z" fill="#389B47"/>
<path d="M17.2259 13.9987L17.2339 13.6597L16.9858 13.6541L16.9778 13.9931L17.2259 13.9987Z" fill="#43B549"/>
<path d="M17.0322 13.82C17.0344 13.7266 17.0078 13.6503 16.9728 13.6496C16.9378 13.6488 16.9076 13.7238 16.9054 13.8171C16.9032 13.9104 16.9298 13.9867 16.9648 13.9875C16.9998 13.9883 17.03 13.9133 17.0322 13.82Z" fill="#43B549"/>
<path d="M17.2803 13.8258C17.2825 13.7325 17.2559 13.6562 17.2208 13.6554C17.1858 13.6546 17.1556 13.7297 17.1534 13.823C17.1512 13.9163 17.1778 13.9926 17.2128 13.9934C17.2479 13.9942 17.2781 13.9192 17.2803 13.8258Z" fill="#389B47"/>
<path d="M17.1651 13.5877L16.9829 13.2988L16.7715 13.4256L16.9537 13.7144L17.1651 13.5877Z" fill="#43B549"/>
<path d="M16.9508 13.7116C16.9806 13.6937 16.9641 13.6147 16.914 13.5352C16.8638 13.4557 16.799 13.4057 16.7691 13.4236C16.7393 13.4415 16.7557 13.5205 16.8059 13.6C16.856 13.6795 16.9209 13.7295 16.9508 13.7116Z" fill="#43B549"/>
<path d="M17.1617 13.5861C17.1915 13.5682 17.1751 13.4893 17.1249 13.4097C17.0748 13.3302 17.0099 13.2803 16.9801 13.2982C16.9502 13.3161 16.9667 13.395 17.0168 13.4745C17.067 13.5541 17.1318 13.604 17.1617 13.5861Z" fill="#389B47"/>
<path d="M15.0743 13.4334L14.8018 13.1587L14.6014 13.3476L14.874 13.6224L15.0743 13.4334Z" fill="#43B549"/>
<path d="M14.8684 13.6213C14.8972 13.5942 14.8595 13.5107 14.7842 13.4348C14.709 13.3589 14.6246 13.3194 14.5958 13.3466C14.567 13.3737 14.6047 13.4573 14.68 13.5331C14.7552 13.609 14.8396 13.6485 14.8684 13.6213Z" fill="#43B549"/>
<path d="M15.0696 13.4314C15.0983 13.4042 15.0607 13.3207 14.9854 13.2449C14.9101 13.169 14.8258 13.1295 14.797 13.1567C14.7682 13.1838 14.8059 13.2673 14.8812 13.3432C14.9564 13.419 15.0408 13.4585 15.0696 13.4314Z" fill="#389B47"/>
<path d="M14.4703 14.0658L14.2881 13.7769L14.0767 13.9036L14.2589 14.1925L14.4703 14.0658Z" fill="#43B549"/>
<path d="M14.2566 14.1896C14.2865 14.1717 14.2701 14.0928 14.2199 14.0133C14.1698 13.9337 14.1049 13.8838 14.075 13.9017C14.0452 13.9196 14.0617 13.9985 14.1118 14.0781C14.162 14.1576 14.2268 14.2075 14.2566 14.1896Z" fill="#43B549"/>
<path d="M14.4673 14.0634C14.4972 14.0455 14.4807 13.9666 14.4306 13.887C14.3804 13.8075 14.3156 13.7576 14.2857 13.7755C14.2559 13.7934 14.2723 13.8723 14.3225 13.9518C14.3726 14.0314 14.4375 14.0813 14.4673 14.0634Z" fill="#389B47"/>
<path d="M14.5606 14.5277L14.3784 14.2388L14.167 14.3655L14.3492 14.6544L14.5606 14.5277Z" fill="#43B549"/>
<path d="M14.346 14.6518C14.3759 14.6339 14.3594 14.5549 14.3093 14.4754C14.2591 14.3959 14.1943 14.3459 14.1644 14.3638C14.1346 14.3817 14.151 14.4607 14.2012 14.5402C14.2513 14.6197 14.3162 14.6697 14.346 14.6518Z" fill="#43B549"/>
<path d="M14.5577 14.5248C14.5875 14.5069 14.5711 14.428 14.5209 14.3485C14.4708 14.2689 14.4059 14.219 14.3761 14.2369C14.3462 14.2548 14.3627 14.3337 14.4128 14.4133C14.463 14.4928 14.5278 14.5427 14.5577 14.5248Z" fill="#389B47"/>
<path d="M15.3267 14.8526L15.1445 14.5637L14.9332 14.6904L15.1154 14.9794L15.3267 14.8526Z" fill="#43B549"/>
<path d="M15.1141 14.9772C15.1439 14.9593 15.1275 14.8804 15.0773 14.8009C15.0272 14.7213 14.9623 14.6714 14.9325 14.6893C14.9026 14.7072 14.9191 14.7861 14.9692 14.8657C15.0194 14.9452 15.0842 14.9951 15.1141 14.9772Z" fill="#43B549"/>
<path d="M15.3238 14.851C15.3536 14.8331 15.3372 14.7541 15.287 14.6746C15.2369 14.5951 15.172 14.5452 15.1422 14.5631C15.1123 14.5809 15.1288 14.6599 15.1789 14.7394C15.2291 14.819 15.2939 14.8689 15.3238 14.851Z" fill="#389B47"/>
<path d="M15.1109 13.7379L14.7363 13.625L14.654 13.8846L15.0285 13.9975L15.1109 13.7379Z" fill="#43B549"/>
<path d="M15.0498 13.9948C15.0616 13.9575 14.9873 13.902 14.8839 13.8708C14.7805 13.8396 14.6871 13.8446 14.6752 13.8819C14.6634 13.9192 14.7376 13.9747 14.8411 14.0059C14.9445 14.0371 15.0379 14.0321 15.0498 13.9948Z" fill="#43B549"/>
<path d="M15.1308 13.7351C15.1427 13.6978 15.0684 13.6423 14.965 13.6111C14.8615 13.5799 14.7681 13.5848 14.7563 13.6221C14.7445 13.6595 14.8187 13.715 14.9221 13.7462C15.0256 13.7773 15.119 13.7724 15.1308 13.7351Z" fill="#389B47"/>
<path d="M14.6557 13.6284L14.335 13.4087L14.1747 13.6311L14.4955 13.8508L14.6557 13.6284Z" fill="#43B549"/>
<path d="M14.5014 13.8521C14.5244 13.8201 14.4713 13.745 14.3827 13.6844C14.2941 13.6237 14.2036 13.6004 14.1806 13.6323C14.1576 13.6643 14.2107 13.7394 14.2993 13.8001C14.3879 13.8607 14.4784 13.884 14.5014 13.8521Z" fill="#43B549"/>
<path d="M14.6615 13.6297C14.6846 13.5977 14.6314 13.5226 14.5428 13.4619C14.4543 13.4013 14.3638 13.378 14.3408 13.4099C14.3177 13.4419 14.3709 13.517 14.4595 13.5776C14.548 13.6383 14.6385 13.6616 14.6615 13.6297Z" fill="#389B47"/>
<path d="M15.0516 14.178L14.7039 14.1702L14.6981 14.412L15.0459 14.4199L15.0516 14.178Z" fill="#43B549"/>
<path d="M15.0368 14.4228C15.0376 14.3886 14.9607 14.3592 14.865 14.357C14.7692 14.3549 14.691 14.3808 14.6902 14.415C14.6894 14.4491 14.7663 14.4786 14.862 14.4807C14.9577 14.4829 15.036 14.4569 15.0368 14.4228Z" fill="#43B549"/>
<path d="M15.0429 14.1811C15.0437 14.1469 14.9668 14.1175 14.8711 14.1153C14.7753 14.1132 14.6971 14.1391 14.6963 14.1733C14.6955 14.2074 14.7724 14.2369 14.8681 14.239C14.9638 14.2412 15.0421 14.2152 15.0429 14.1811Z" fill="#389B47"/>
<path d="M15.8731 14.507L15.6677 14.1814L15.4303 14.3237L15.6356 14.6493L15.8731 14.507Z" fill="#43B549"/>
<path d="M15.6338 14.6472C15.6679 14.6268 15.6496 14.5373 15.5929 14.4474C15.5362 14.3575 15.4626 14.3012 15.4285 14.3216C15.3944 14.3421 15.4127 14.4315 15.4694 14.5214C15.5261 14.6114 15.5997 14.6677 15.6338 14.6472Z" fill="#43B549"/>
<path d="M15.8706 14.5041C15.9048 14.4837 15.8864 14.3942 15.8297 14.3043C15.773 14.2144 15.6994 14.1581 15.6653 14.1785C15.6312 14.199 15.6495 14.2885 15.7062 14.3784C15.7629 14.4683 15.8365 14.5246 15.8706 14.5041Z" fill="#389B47"/>
<path d="M15.9391 14.8798L15.967 14.5417L15.7197 14.5223L15.6917 14.8603L15.9391 14.8798Z" fill="#43B549"/>
<path d="M15.7969 14.7089C15.8046 14.6159 15.7825 14.5382 15.7476 14.5354C15.7127 14.5327 15.6781 14.6059 15.6704 14.699C15.6627 14.792 15.6848 14.8697 15.7197 14.8724C15.7547 14.8752 15.7892 14.8019 15.7969 14.7089Z" fill="#43B549"/>
<path d="M16.0445 14.7284C16.0522 14.6354 16.0301 14.5577 15.9952 14.555C15.9602 14.5522 15.9257 14.6254 15.918 14.7185C15.9103 14.8115 15.9324 14.8892 15.9673 14.8919C16.0022 14.8947 16.0368 14.8215 16.0445 14.7284Z" fill="#389B47"/>
<path d="M16.7002 13.8111L16.709 13.4304L16.4314 13.4243L16.4226 13.805L16.7002 13.8111Z" fill="#43B549"/>
<path d="M16.0873 14.2485C16.0898 14.143 16.0593 14.0567 16.0193 14.0558C15.9792 14.0549 15.9448 14.1397 15.9423 14.2452C15.9398 14.3507 15.9702 14.437 16.0102 14.4379C16.0503 14.4388 16.0848 14.354 16.0873 14.2485Z" fill="#43B549"/>
<path d="M16.3656 14.2553C16.3681 14.1498 16.3376 14.0635 16.2976 14.0626C16.2576 14.0617 16.2231 14.1465 16.2206 14.2521C16.2181 14.3576 16.2485 14.4438 16.2886 14.4447C16.3286 14.4456 16.3631 14.3608 16.3656 14.2553Z" fill="#389B47"/>
<path d="M15.8365 13.889L15.6543 13.6001L15.4429 13.7268L15.6251 14.0157L15.8365 13.889Z" fill="#43B549"/>
<path d="M15.6219 14.0141C15.6517 13.9962 15.6353 13.9172 15.5851 13.8377C15.535 13.7582 15.4701 13.7082 15.4403 13.7261C15.4104 13.744 15.4269 13.823 15.477 13.9025C15.5272 13.982 15.592 14.032 15.6219 14.0141Z" fill="#43B549"/>
<path d="M15.8336 13.8871C15.8634 13.8692 15.847 13.7903 15.7968 13.7108C15.7467 13.6312 15.6818 13.5813 15.652 13.5992C15.6221 13.6171 15.6386 13.6961 15.6887 13.7756C15.7389 13.8551 15.8037 13.905 15.8336 13.8871Z" fill="#389B47"/>
<path d="M13.4843 13.1019C13.3044 14.0607 12.6151 14.2554 11.8367 14.1159C11.0584 13.9764 10.484 13.556 10.6642 12.5982C10.8445 11.6403 11.7042 10.6617 12.4833 10.7998C13.2624 10.9379 13.6609 12.144 13.4843 13.1019Z" fill="#FCEFCE"/>
<path d="M12.3397 13.941C12.8067 13.7925 13.0619 13.303 12.9096 12.8477C12.7573 12.3923 12.2553 12.1435 11.7883 12.292C11.3212 12.4404 11.0661 12.9299 11.2183 13.3853C11.3706 13.8406 11.8726 14.0894 12.3397 13.941Z" fill="#F6C048"/>
<path d="M10.2542 12.9795C10.5639 13.9059 10.0464 14.3969 9.29205 14.6321C8.53766 14.8672 7.82856 14.7603 7.52418 13.8322C7.21979 12.9041 7.50777 11.6448 8.26324 11.4093C9.01871 11.1738 9.95117 12.0556 10.2542 12.9795Z" fill="#FCEFCE"/>
<path d="M9.28889 14.4725C9.75592 14.324 10.0111 13.8345 9.85882 13.3791C9.70655 12.9238 9.2045 12.675 8.73747 12.8235C8.27045 12.9719 8.01528 13.4614 8.16755 13.9168C8.31982 14.3721 8.82186 14.6209 9.28889 14.4725Z" fill="#F6C048"/>
<path d="M22.3829 13.9565C21.7512 13.8574 21.1039 13.9244 20.5076 14.1506C18.7413 14.8201 17.7318 16.4273 18.2536 17.7452C18.3403 17.9901 18.4895 18.2094 18.6871 18.3826C18.8847 18.5557 19.1242 18.6771 19.3831 18.7352C18.7588 18.6502 18.2743 18.3347 18.0224 17.7025C17.4981 16.3877 18.5058 14.7788 20.2764 14.1079C20.9473 13.8534 21.681 13.8007 22.3829 13.9565Z" fill="#896929"/>
<path d="M21.8272 18.2929C20.9116 18.6409 20.064 18.822 19.3885 18.7335C19.1296 18.6754 18.8901 18.554 18.6925 18.3809C18.4949 18.2077 18.3457 17.9884 18.259 17.7435C17.7347 16.4287 18.7434 14.8194 20.513 14.1489C21.1093 13.9227 21.7566 13.8557 22.3882 13.9548C23.3797 14.1718 24.2057 14.7818 24.5197 15.5709C25.0386 16.8875 23.5936 17.6234 21.8272 18.2929Z" fill="#E0B762"/>
<path d="M19.0898 16.3617C19.3631 15.1582 20.6374 14.3359 21.9328 14.5284C22.9716 14.6804 23.6373 15.5842 23.4194 16.547C23.2444 17.3173 22.4235 17.8454 21.5981 17.7221C20.9327 17.6245 20.5059 17.0468 20.6466 16.4304C20.71 16.1861 20.8645 15.9736 21.08 15.8344C21.2954 15.6952 21.5564 15.6393 21.8118 15.6776C21.9097 15.6885 22.004 15.7192 22.0889 15.7678C22.1738 15.8164 22.2474 15.8817 22.3048 15.9597C22.3622 16.0377 22.4022 16.1265 22.4222 16.2205C22.4423 16.3145 22.4419 16.4115 22.4211 16.5053C22.3804 16.6616 22.2814 16.7975 22.1435 16.8864C22.0055 16.9754 21.8385 17.0111 21.6751 16.9865C21.6127 16.9793 21.5525 16.9594 21.4984 16.9283C21.4442 16.8972 21.3973 16.8554 21.3606 16.8057C21.3239 16.7559 21.2982 16.6993 21.2852 16.6394C21.2722 16.5794 21.2721 16.5175 21.2849 16.4575C21.3107 16.3573 21.3739 16.2702 21.4622 16.2131C21.5504 16.156 21.6574 16.1331 21.7621 16.149C21.8022 16.1533 21.8409 16.1659 21.8757 16.1857C21.9105 16.2056 21.9407 16.2323 21.9642 16.2642C21.9878 16.2961 22.0043 16.3325 22.0126 16.371C22.0209 16.4095 22.0208 16.4492 22.0124 16.4877" stroke="#E5CA76" stroke-width="0.554144" stroke-miterlimit="10" stroke-linecap="round"/>
<path d="M18.4759 14.8427C17.8442 14.7437 17.1969 14.8107 16.6006 15.0368C14.8332 15.7067 13.8248 17.3135 14.3466 18.6315C14.4334 18.8762 14.5828 19.0954 14.7805 19.2684C14.9782 19.4413 15.2179 19.5624 15.4768 19.62C14.8529 19.536 14.3684 19.2206 14.1154 18.5888C13.5911 17.2739 14.5988 15.665 16.3694 14.9941C17.0403 14.7397 17.774 14.6869 18.4759 14.8427Z" fill="#896929"/>
<path d="M17.919 19.1797C17.1323 19.4786 16.3962 19.6545 15.7757 19.6414C15.6771 19.6389 15.5787 19.6314 15.4809 19.6189C15.2219 19.5609 14.9823 19.4397 14.7845 19.2665C14.5868 19.0934 14.4374 18.8742 14.3504 18.6293C13.8272 17.3141 14.8352 15.7063 16.6047 15.0357C17.2008 14.8094 17.848 14.742 18.4797 14.8406C18.7402 14.897 18.9933 14.9826 19.2336 15.0959C19.8769 15.398 20.381 15.8791 20.61 16.457C21.1307 17.7719 19.6864 18.5098 17.919 19.1797Z" fill="#E0B762"/>
<path opacity="0.58" d="M18.7769 19.4496C17.8612 19.7976 17.0136 19.9787 16.3381 19.8902C16.1372 19.8439 15.9474 19.7602 15.779 19.6438C16.3995 19.6568 17.1356 19.4809 17.9223 19.1821C19.6897 18.5122 21.1344 17.7752 20.609 16.4607C20.38 15.8828 19.8759 15.4017 19.2326 15.0996L19.3346 15.1125C20.3264 15.3305 21.1525 15.9406 21.4664 16.7297C21.9875 18.042 20.5425 18.7779 18.7769 19.4496Z" fill="#C0964B"/>
<path d="M15.1829 17.2479C15.4547 16.0437 16.7294 15.2225 18.0259 15.4146C19.0658 15.5662 19.7315 16.4701 19.5125 17.4332C19.3386 18.2031 18.5231 18.7296 17.6912 18.6083C17.5384 18.5913 17.391 18.5433 17.2584 18.4674C17.1258 18.3915 17.011 18.2894 16.9213 18.1676C16.8317 18.0458 16.7691 17.9071 16.7378 17.7604C16.7064 17.6136 16.707 17.4621 16.7393 17.3155C16.8032 17.0715 16.9579 16.8593 17.1734 16.7204C17.3888 16.5814 17.6496 16.5256 17.9049 16.5639C18.0027 16.5746 18.097 16.6052 18.1819 16.6537C18.2667 16.7022 18.3402 16.7675 18.3976 16.8454C18.455 16.9233 18.495 17.012 18.515 17.1059C18.535 17.1998 18.5346 17.2967 18.5139 17.3905C18.4734 17.5469 18.3744 17.6829 18.2364 17.7719C18.0984 17.8609 17.9313 17.8965 17.7678 17.8716C17.7055 17.8643 17.6454 17.8444 17.5913 17.8132C17.5373 17.782 17.4905 17.7402 17.4539 17.6904C17.4173 17.6406 17.3917 17.584 17.3788 17.5241C17.3658 17.4641 17.3658 17.4022 17.3787 17.3423C17.4049 17.2424 17.4684 17.1556 17.5566 17.0987C17.6449 17.0419 17.7517 17.0191 17.8563 17.0348C17.8963 17.0393 17.9349 17.052 17.9696 17.0719C18.0043 17.0918 18.0344 17.1186 18.0579 17.1505C18.0813 17.1825 18.0977 17.2188 18.1059 17.2573C18.1141 17.2958 18.114 17.3355 18.1055 17.3739" stroke="#E5CA76" stroke-width="0.554144" stroke-miterlimit="10" stroke-linecap="round"/>
<path d="M27.1893 14.0319C26.8124 17.1565 25.896 20.4352 22.1883 22.2169C18.5289 23.9751 13.272 24.4203 8.66127 22.0365C4.63898 19.9547 3.5014 15.4373 3.46366 14.2339L3.4612 14.2265C3.48785 14.6886 3.65416 15.1326 3.93917 15.5026C5.4015 17.5092 10.0449 18.8753 15.5005 18.7143C20.9561 18.5534 25.5055 16.9155 26.8342 14.8303C26.9981 14.5857 27.1181 14.3157 27.1893 14.0319Z" fill="#5E422B"/>
<path d="M6.99867 16.3694L6.98964 16.6453C6.98964 16.6453 7.31702 16.5552 8.01473 16.4357C8.71245 16.3161 9.72654 16.4121 9.72654 16.4121C9.72654 16.4121 9.94351 16.2769 9.89436 16.1263C9.84521 15.9758 7.5785 16.0898 6.99867 16.3694Z" fill="#D2A432"/>
<path d="M6.99468 16.4754L6.91594 16.7817C6.91594 16.7817 7.24367 16.6926 7.94104 16.572C8.63841 16.4514 9.65284 16.5484 9.65284 16.5484L9.8744 16.263C9.8744 16.263 7.57487 16.1969 6.99468 16.4754Z" fill="#E2B73C"/>
<path d="M7.54616 17.0193L7.51886 17.2941C7.51886 17.2941 7.85362 17.226 8.55569 17.1516C9.25776 17.0771 10.2646 17.2439 10.2646 17.2439C10.2646 17.2439 10.49 17.1235 10.4517 16.966C10.4133 16.8086 8.14435 16.7804 7.54616 17.0193Z" fill="#D2A432"/>
<path d="M7.53491 17.1252L7.43398 17.4257C7.43398 17.4257 7.76874 17.3576 8.47081 17.2831C9.17288 17.2087 10.1808 17.3752 10.1808 17.3752L10.4216 17.1046C10.4216 17.1046 8.1331 16.8862 7.53491 17.1252Z" fill="#E2B73C"/>
<path d="M8.50315 16.4244L8.42965 16.6964C8.42965 16.6964 8.76654 16.6846 9.47715 16.7248C10.1878 16.765 11.1498 17.0936 11.1498 17.0936C11.1498 17.0936 11.3943 17.0159 11.3818 16.8502C11.3693 16.6846 9.13399 16.2866 8.50315 16.4244Z" fill="#D2A432"/>
<path d="M8.47448 16.5279L8.32928 16.8065C8.32928 16.8065 8.66618 16.7947 9.37571 16.8352C10.0852 16.8758 11.0483 17.204 11.0483 17.204L11.33 16.9774C11.33 16.9774 9.10209 16.3912 8.47448 16.5279Z" fill="#E2B73C"/>
<path d="M8.33543 17.131L8.26017 17.3977C8.26017 17.3977 8.59707 17.3859 9.30661 17.4265C10.0161 17.467 10.9789 17.7942 10.9789 17.7942C10.9789 17.7942 11.2234 17.7165 11.2102 17.5522C11.1969 17.3879 8.96556 16.9911 8.33543 17.131Z" fill="#D2A432"/>
<path d="M8.31066 17.2318L8.16546 17.5104C8.16546 17.5104 8.50234 17.4985 9.21188 17.5391C9.92141 17.5796 10.8841 17.9068 10.8841 17.9068L11.1662 17.6812C11.1662 17.6812 8.93719 17.0954 8.31066 17.2318Z" fill="#E2B73C"/>
<path d="M7.85252 15.6693L7.77726 15.9361C7.77726 15.9361 8.11415 15.9243 8.82368 15.9648C9.53322 16.0053 10.4963 16.3336 10.4963 16.3336C10.4963 16.3336 10.7408 16.2559 10.7272 16.0905C10.7137 15.9252 8.48335 15.5315 7.85252 15.6693Z" fill="#D2A432"/>
<path d="M7.82287 15.7728L7.67767 16.0514C7.67767 16.0514 8.01455 16.0396 8.72408 16.0801C9.43362 16.1206 10.3967 16.4489 10.3967 16.4489L10.6784 16.2222C10.6784 16.2222 8.45478 15.6347 7.82287 15.7728Z" fill="#E2B73C"/>
<path d="M6.68797 16.5345L6.61271 16.8013C6.61271 16.8013 6.94961 16.7895 7.65914 16.83C8.36868 16.8706 9.33174 17.1988 9.33174 17.1988C9.33174 17.1988 9.57628 17.1211 9.5627 16.9558C9.54913 16.7904 7.31665 16.3974 6.68797 16.5345Z" fill="#D2A432"/>
<path d="M6.65905 16.6366L6.51385 16.9151C6.51385 16.9151 6.85073 16.9033 7.56027 16.9439C8.2698 16.9844 9.23287 17.3127 9.23287 17.3127L9.5146 17.086C9.5146 17.086 7.28881 16.4991 6.65905 16.6366Z" fill="#E2B73C"/>
</svg>
