<svg width="17" height="16" viewBox="0 0 17 16" fill="none" xmlns="http://www.w3.org/2000/svg">
<path d="M11.7952 10.25H11.1039L10.8589 10.0138C11.7461 8.98477 12.2336 7.67111 12.2327 6.3125C12.2327 5.18762 11.8991 4.088 11.2742 3.1527C10.6492 2.21739 9.76093 1.48841 8.72168 1.05794C7.68243 0.627464 6.53886 0.514833 5.43559 0.734286C4.33232 0.95374 3.31891 1.49542 2.5235 2.29083C1.72809 3.08624 1.18641 4.09966 0.966952 5.20293C0.747499 6.30619 0.86013 7.44976 1.2906 8.48901C1.72108 9.52827 2.45006 10.4165 3.38536 11.0415C4.32067 11.6664 5.42029 12 6.54517 12C7.95392 12 9.24892 11.4838 10.2464 10.6263L10.4827 10.8713V11.5625L14.8577 15.9288L16.1614 14.625L11.7952 10.25ZM6.54517 10.25C4.36642 10.25 2.60767 8.49125 2.60767 6.3125C2.60767 4.13375 4.36642 2.375 6.54517 2.375C8.72392 2.375 10.4827 4.13375 10.4827 6.3125C10.4827 8.49125 8.72392 10.25 6.54517 10.25Z" fill="#F9832A"/>
</svg>
