<svg width="15" height="14" viewBox="0 0 15 14" fill="none" xmlns="http://www.w3.org/2000/svg">
<path d="M6.29583 0L5.4346 2.04972C5.26235 2.1014 5.10733 2.18752 4.95231 2.27364L2.90258 1.41241L1.66241 2.65258L2.52364 4.70231C2.43752 4.87455 2.36862 5.01235 2.29972 5.1846L0.25 6.04583V7.76828L2.29972 8.62951C2.36862 8.80176 2.43752 8.93955 2.52364 9.1118L1.66241 11.1615L2.90258 12.4017L4.95231 11.5405C5.10733 11.6094 5.26235 11.6955 5.4346 11.7644L6.29583 13.8141H8.01828L8.87951 11.7644C9.03453 11.6955 9.20678 11.6266 9.3618 11.5405L11.4115 12.4017L12.6517 11.1615L11.7905 9.1118C11.8594 8.95678 11.9455 8.78453 12.0144 8.62951L14.0641 7.76828V6.04583L12.0144 5.1846C11.9627 5.02958 11.8766 4.85733 11.7905 4.70231L12.6517 2.65258L11.4115 1.41241L9.3618 2.27364C9.20678 2.20475 9.03453 2.11862 8.87951 2.04972L8.01828 0L6.29583 0ZM7.15705 4.30614C8.58669 4.30614 9.74074 5.46019 9.74074 6.88983C9.74074 8.31947 8.58669 9.47352 7.15705 9.47352C5.72741 9.47352 4.57337 8.31947 4.57337 6.88983C4.57337 5.46019 5.72741 4.30614 7.15705 4.30614Z" fill="#F9832A"/>
</svg>
