<svg width="8" height="10" viewBox="0 0 8 10" fill="none" xmlns="http://www.w3.org/2000/svg">
<path d="M7.99216 3.6371L7.88067 2.57221C7.71921 1.41121 7.19253 0.938354 6.06617 0.938354H5.15886H4.58993H3.42125H2.85226H1.92962C0.799373 0.938354 0.276539 1.41121 0.111232 2.58374L0.00743402 3.64094C-0.0310096 4.05229 0.0804769 4.4521 0.322672 4.7635C0.614843 5.14409 1.06463 5.35937 1.5644 5.35937C2.04879 5.35937 2.51396 5.11718 2.80613 4.7289C3.06755 5.11718 3.51351 5.35937 4.00944 5.35937C4.50532 5.35937 4.93977 5.12871 5.20499 4.74427C5.50105 5.12487 5.95849 5.35937 6.43519 5.35937C6.94649 5.35937 7.40781 5.13256 7.69614 4.73274C7.9268 4.42519 8.03064 4.03691 7.99216 3.6371Z" fill="#787878"/>
<path d="M3.75962 6.86267C3.27139 6.91265 2.90234 7.32784 2.90234 7.81992V8.87327C2.90234 8.97707 2.98692 9.06165 3.09072 9.06165H4.92446C5.02826 9.06165 5.11284 8.97707 5.11284 8.87327V7.95447C5.11668 7.151 4.64383 6.77041 3.75962 6.86267Z" fill="#787878"/>
<path d="M7.61207 5.99289V7.13851C7.61207 8.19955 6.75093 9.06069 5.68988 9.06069C5.58609 9.06069 5.50151 8.97611 5.50151 8.87231V7.95351C5.50151 7.46143 5.35158 7.077 5.05941 6.81558C4.80184 6.58107 4.452 6.46574 4.01759 6.46574C3.92148 6.46574 3.82537 6.46959 3.72157 6.48112C3.03726 6.55032 2.51827 7.12697 2.51827 7.81896V8.87231C2.51827 8.97611 2.43369 9.06069 2.3299 9.06069C1.26885 9.06069 0.407715 8.19955 0.407715 7.13851V6.00058C0.407715 5.73147 0.672976 5.55079 0.922859 5.63921C1.02666 5.6738 1.13046 5.70072 1.2381 5.71609C1.28423 5.72378 1.33421 5.73147 1.38034 5.73147C1.44185 5.73916 1.50336 5.743 1.56487 5.743C2.01081 5.743 2.44907 5.5777 2.79506 5.29321C3.12568 5.5777 3.55626 5.743 4.0099 5.743C4.46738 5.743 4.89026 5.58538 5.22087 5.3009C5.56686 5.58154 5.99743 5.743 6.43569 5.743C6.50489 5.743 6.57409 5.73916 6.63944 5.73147C6.68558 5.72763 6.72786 5.72378 6.77015 5.71609C6.88933 5.70072 6.99697 5.66612 7.10461 5.63152C7.35449 5.54694 7.61207 5.73147 7.61207 5.99289Z" fill="#787878"/>
</svg>
