<svg width="16" height="21" viewBox="0 0 16 21" fill="none" xmlns="http://www.w3.org/2000/svg">
<path d="M11 2.91663H2V18.9166H14V5.91663H11V2.91663ZM2 0.916626H12L16 4.91663V18.9166C16 19.4471 15.7893 19.9558 15.4142 20.3308C15.0391 20.7059 14.5304 20.9166 14 20.9166H2C1.46957 20.9166 0.960859 20.7059 0.585786 20.3308C0.210714 19.9558 0 19.4471 0 18.9166V2.91663C0 2.38619 0.210714 1.87749 0.585786 1.50241C0.960859 1.12734 1.46957 0.916626 2 0.916626ZM4 9.91663H12V11.9166H4V9.91663ZM4 13.9166H12V15.9166H4V13.9166Z" fill="#545454"/>
</svg>
