<svg width="39" height="45" viewBox="0 0 39 45" fill="none" xmlns="http://www.w3.org/2000/svg">
<path d="M27.8547 15.2115C30.8141 17.3259 34.4396 18.57 38.3552 18.57V11.0392C37.6141 11.0393 36.875 10.962 36.15 10.8085V16.7363C32.2347 16.7363 28.6097 15.4924 25.6497 13.3781V28.7465C25.6497 36.4346 19.414 42.6665 11.7225 42.6665C8.85262 42.6665 6.18507 41.7993 3.96924 40.312C6.49831 42.8967 10.0253 44.5 13.9271 44.5C21.6192 44.5 27.855 38.2681 27.855 30.5797V15.2115H27.8547ZM30.5752 7.61378C29.0627 5.96233 28.0696 3.8281 27.8547 1.46856V0.5H25.765C26.291 3.49885 28.0854 6.06088 30.5752 7.61378ZM8.83408 34.4126C7.98909 33.3053 7.53232 31.9505 7.53437 30.5576C7.53437 27.0415 10.3865 24.1904 13.9054 24.1904C14.561 24.1901 15.2129 24.2907 15.8379 24.4888V16.7895C15.1075 16.6896 14.3704 16.6469 13.6336 16.6626V22.6553C13.0083 22.4571 12.3561 22.3565 11.7002 22.3571C8.18145 22.3571 5.32947 25.2078 5.32947 28.7244C5.32947 31.2111 6.75499 33.3638 8.83408 34.4126Z" fill="white"/>
<path d="M25.6497 13.3779C28.6099 15.4922 32.2346 16.7362 36.1501 16.7362V10.8083C33.9645 10.343 32.0298 9.20154 30.5751 7.61378C28.0852 6.06072 26.2911 3.4987 25.7651 0.5H20.2761V30.5793C20.2636 34.086 17.4164 36.9253 13.9051 36.9253C11.8362 36.9253 9.99793 35.9396 8.83384 34.4124C6.75507 33.3638 5.3294 31.2109 5.3294 28.7246C5.3294 25.2083 8.18137 22.3572 11.7001 22.3572C12.3743 22.3572 13.024 22.4621 13.6336 22.6554V16.6628C6.07709 16.8189 0 22.9899 0 30.5795C0 34.3682 1.51329 37.8028 3.96948 40.3123C6.18531 41.7993 8.8527 42.6668 11.7227 42.6668C19.4144 42.6668 25.6499 36.4344 25.6499 28.7465V13.3781L25.6497 13.3779Z" fill="white"/>
</svg>
