<svg width="40" height="47" viewBox="0 0 40 47" fill="none" xmlns="http://www.w3.org/2000/svg">
<path d="M29.6446 17.2162C32.5631 19.3014 36.1385 20.5283 40 20.5283V13.1015C39.2692 13.1017 38.5403 13.0254 37.8253 12.874V18.7199C33.9641 18.7199 30.3891 17.4932 27.47 15.4081V30.5642C27.47 38.1461 21.3205 44.2919 13.7353 44.2919C10.905 44.2919 8.27433 43.4367 6.08911 41.97C8.58324 44.5189 12.0615 46.1001 15.9094 46.1001C23.4952 46.1001 29.6449 39.9543 29.6449 32.372V17.2162H29.6446ZM32.3275 9.72345C30.8359 8.09481 29.8565 5.99007 29.6446 3.66313V2.70795H27.5838C28.1025 5.66537 29.8721 8.192 32.3275 9.72345ZM10.8867 36.152C10.0534 35.06 9.60297 33.7239 9.60499 32.3503C9.60499 28.8827 12.4177 26.0711 15.888 26.0711C16.5346 26.0708 17.1774 26.17 17.7938 26.3653V18.7724C17.0735 18.6739 16.3466 18.6318 15.62 18.6473V24.5571C15.0033 24.3617 14.3602 24.2625 13.7132 24.2631C10.2431 24.2631 7.43055 27.0744 7.43055 30.5425C7.43055 32.9947 8.83637 35.1177 10.8867 36.152Z" fill="#FF004F"/>
<path d="M27.4699 15.408C30.3892 17.493 33.9639 18.7198 37.8252 18.7198V12.8738C35.6699 12.4149 33.7618 11.2893 32.3273 9.72345C29.8717 8.19185 28.1025 5.66522 27.5837 2.70795H22.1706V32.3717C22.1582 35.8299 19.3503 38.63 15.8876 38.63C13.8472 38.63 12.0344 37.658 10.8864 36.1518C8.83631 35.1177 7.43033 32.9946 7.43033 30.5426C7.43033 27.0749 10.2429 24.2632 13.713 24.2632C14.3779 24.2632 15.0187 24.3667 15.6198 24.5573V18.6474C8.16769 18.8014 2.17456 24.8871 2.17456 32.3719C2.17456 36.1082 3.66695 39.4954 6.0892 41.9703C8.27442 43.4367 10.905 44.2922 13.7353 44.2922C21.3207 44.2922 27.4701 38.1459 27.4701 30.5642V15.4081L27.4699 15.408Z" fill="black"/>
<path d="M37.8253 12.8737V11.2933C35.8816 11.2963 33.9763 10.7522 32.3273 9.72343C33.787 11.3207 35.7092 12.4221 37.8253 12.874V12.8737ZM27.5836 2.70776C27.5341 2.4252 27.4962 2.14073 27.4698 1.85508V0.899902H19.9955V30.564C19.9837 34.0219 17.1758 36.822 13.7129 36.822C12.7312 36.8234 11.7629 36.594 10.8862 36.1521C12.0342 37.6579 13.8471 38.6298 15.8875 38.6298C19.3501 38.6298 22.1583 35.8301 22.1705 32.3719V2.70792H27.5836V2.70776ZM15.6201 18.6473V16.9646C14.9956 16.8792 14.3659 16.8365 13.7355 16.8367C6.14939 16.8367 0 22.9829 0 30.564C0 35.3171 2.41679 39.506 6.08939 41.9699C3.66713 39.4952 2.17475 36.1079 2.17475 32.3717C2.17475 24.8871 8.16772 18.8012 15.6201 18.6473Z" fill="#00F2EA"/>
</svg>
