<svg width="96" height="18" viewBox="0 0 96 18" fill="none" xmlns="http://www.w3.org/2000/svg">
<path d="M5.11493 14H0.474309V0.909091H5.15329C6.47005 0.909091 7.60357 1.17116 8.55385 1.69531C9.50414 2.2152 10.235 2.96307 10.7463 3.93892C11.262 4.91477 11.5198 6.08239 11.5198 7.44176C11.5198 8.8054 11.262 9.97727 10.7463 10.9574C10.235 11.9375 9.49988 12.6896 8.54107 13.2138C7.58652 13.7379 6.44448 14 5.11493 14ZM3.24206 11.6286H4.99988C5.81806 11.6286 6.50627 11.4837 7.06451 11.1939C7.62701 10.8999 8.04888 10.446 8.33013 9.83239C8.61564 9.21449 8.7584 8.41761 8.7584 7.44176C8.7584 6.47443 8.61564 5.68395 8.33013 5.07031C8.04888 4.45668 7.62914 4.00497 7.0709 3.7152C6.51266 3.42543 5.82445 3.28054 5.00627 3.28054H3.24206V11.6286ZM18.1862 11.1747L18.1926 7.90838H18.5889L21.7338 4.18182H24.8595L20.6344 9.11648H19.9888L18.1862 11.1747ZM15.7189 14V0.909091H18.4419V14H15.7189ZM21.8552 14L18.966 9.72372L20.7814 7.79972L25.0449 14H21.8552ZM31.1952 14.1854C30.5687 14.1854 30.0105 14.0767 29.5204 13.8594C29.0304 13.6378 28.6426 13.3118 28.3571 12.8814C28.0758 12.4467 27.9352 11.9055 27.9352 11.2578C27.9352 10.7124 28.0354 10.2543 28.2356 9.88352C28.4359 9.51278 28.7086 9.21449 29.0538 8.98864C29.399 8.76278 29.791 8.59233 30.23 8.47727C30.6731 8.36222 31.1376 8.28125 31.6234 8.23438C32.1944 8.17472 32.6547 8.11932 33.0041 8.06818C33.3535 8.01278 33.6071 7.93182 33.7648 7.82528C33.9224 7.71875 34.0013 7.56108 34.0013 7.35227V7.31392C34.0013 6.90909 33.8734 6.59588 33.6177 6.37429C33.3663 6.1527 33.0084 6.0419 32.5439 6.0419C32.0538 6.0419 31.6639 6.15057 31.3741 6.3679C31.0844 6.58097 30.8926 6.84943 30.7988 7.1733L28.2804 6.96875C28.4082 6.37216 28.6596 5.85653 29.0346 5.42188C29.4096 4.98295 29.8933 4.64631 30.4856 4.41193C31.0822 4.1733 31.7726 4.05398 32.5567 4.05398C33.1021 4.05398 33.6241 4.1179 34.1227 4.24574C34.6256 4.37358 35.0709 4.57173 35.4586 4.8402C35.8507 5.10866 36.1596 5.45384 36.3855 5.87571C36.6113 6.29332 36.7243 6.79403 36.7243 7.37784V14H34.1419V12.6385H34.0652C33.9075 12.9453 33.6966 13.2159 33.4324 13.4503C33.1682 13.6804 32.8507 13.8615 32.48 13.9936C32.1092 14.1214 31.6809 14.1854 31.1952 14.1854ZM31.975 12.3061C32.3756 12.3061 32.7292 12.2273 33.0361 12.0696C33.3429 11.9077 33.5836 11.6903 33.7584 11.4176C33.9331 11.1449 34.0204 10.8359 34.0204 10.4908V9.44886C33.9352 9.50426 33.818 9.5554 33.6689 9.60227C33.524 9.64489 33.3599 9.68537 33.1767 9.72372C32.9934 9.75781 32.8102 9.78977 32.627 9.8196C32.4437 9.84517 32.2775 9.86861 32.1284 9.88991C31.8088 9.93679 31.5297 10.0114 31.291 10.1136C31.0524 10.2159 30.867 10.3544 30.7349 10.5291C30.6028 10.6996 30.5368 10.9126 30.5368 11.1683C30.5368 11.5391 30.671 11.8224 30.9395 12.0185C31.2122 12.2102 31.5574 12.3061 31.975 12.3061ZM41.0368 14V4.18182H43.632V5.91406H43.7471C43.9516 5.33878 44.2925 4.88494 44.7698 4.55256C45.2471 4.22017 45.8181 4.05398 46.4829 4.05398C47.1562 4.05398 47.7293 4.2223 48.2023 4.55895C48.6753 4.89133 48.9907 5.34304 49.1483 5.91406H49.2506C49.4509 5.35156 49.8131 4.90199 50.3373 4.56534C50.8657 4.22443 51.49 4.05398 52.2101 4.05398C53.1263 4.05398 53.8699 4.34588 54.441 4.92969C55.0162 5.50923 55.3039 6.33168 55.3039 7.39702V14H52.5873V7.93395C52.5873 7.38849 52.4424 6.9794 52.1526 6.70668C51.8628 6.43395 51.5006 6.29759 51.066 6.29759C50.5716 6.29759 50.186 6.45526 49.909 6.7706C49.632 7.08168 49.4935 7.4929 49.4935 8.00426V14H46.8536V7.87642C46.8536 7.39489 46.7151 7.01136 46.4381 6.72585C46.1654 6.44034 45.8053 6.29759 45.3579 6.29759C45.0553 6.29759 44.7826 6.37429 44.5397 6.5277C44.301 6.67685 44.1114 6.88778 43.9708 7.16051C43.8302 7.42898 43.7599 7.74432 43.7599 8.10653V14H41.0368ZM59.6548 17.6818V4.18182H62.3395V5.83097H62.4609C62.5802 5.56676 62.7528 5.2983 62.9787 5.02557C63.2088 4.74858 63.5071 4.51847 63.8736 4.33523C64.2443 4.14773 64.7045 4.05398 65.2542 4.05398C65.9702 4.05398 66.6307 4.24148 67.2358 4.61648C67.8409 4.98722 68.3246 5.54759 68.6868 6.29759C69.049 7.04332 69.2301 7.97869 69.2301 9.10369C69.2301 10.1989 69.0533 11.1236 68.6996 11.8778C68.3501 12.6278 67.8729 13.1967 67.2677 13.5845C66.6669 13.968 65.9936 14.1598 65.2479 14.1598C64.7194 14.1598 64.2699 14.0724 63.8991 13.8977C63.5327 13.723 63.2322 13.5036 62.9979 13.2393C62.7635 12.9709 62.5845 12.7003 62.4609 12.4276H62.3778V17.6818H59.6548ZM62.3203 9.09091C62.3203 9.67472 62.4013 10.1839 62.5632 10.6186C62.7251 11.0533 62.9595 11.392 63.2663 11.6349C63.5731 11.8736 63.946 11.9929 64.3849 11.9929C64.8281 11.9929 65.2031 11.8714 65.5099 11.6286C65.8167 11.3814 66.049 11.0405 66.2067 10.6058C66.3686 10.1669 66.4496 9.66193 66.4496 9.09091C66.4496 8.52415 66.3707 8.02557 66.2131 7.59517C66.0554 7.16477 65.8231 6.82812 65.5163 6.58523C65.2095 6.34233 64.8324 6.22088 64.3849 6.22088C63.9417 6.22088 63.5667 6.33807 63.2599 6.57244C62.9574 6.80682 62.7251 7.1392 62.5632 7.5696C62.4013 8 62.3203 8.5071 62.3203 9.09091ZM79.5416 9.8196V4.18182H82.2646V14H79.6503V12.2166H79.548C79.3264 12.7919 78.9578 13.2543 78.4422 13.6037C77.9308 13.9531 77.3065 14.1278 76.5693 14.1278C75.9131 14.1278 75.3356 13.9787 74.8371 13.6804C74.3385 13.3821 73.9486 12.9581 73.6673 12.4084C73.3903 11.8587 73.2497 11.2003 73.2454 10.4332V4.18182H75.9684V9.94744C75.9727 10.527 76.1283 10.9851 76.4351 11.3217C76.7419 11.6584 77.1531 11.8267 77.6687 11.8267C77.9969 11.8267 78.3037 11.7521 78.5892 11.603C78.8747 11.4496 79.1048 11.2237 79.2795 10.9254C79.4585 10.6271 79.5459 10.2585 79.5416 9.8196ZM94.8117 6.98153L92.3188 7.13494C92.2762 6.92187 92.1846 6.73011 92.044 6.55966C91.9034 6.38494 91.718 6.24645 91.4879 6.14418C91.262 6.03764 90.9914 5.98438 90.6761 5.98438C90.2542 5.98438 89.8984 6.07386 89.6086 6.25284C89.3188 6.42756 89.174 6.66193 89.174 6.95597C89.174 7.19034 89.2677 7.38849 89.4552 7.55043C89.6427 7.71236 89.9644 7.84233 90.4204 7.94034L92.1974 8.2983C93.1519 8.49432 93.8636 8.80966 94.3323 9.24432C94.8011 9.67898 95.0355 10.25 95.0355 10.9574C95.0355 11.6009 94.8458 12.1655 94.4666 12.6513C94.0916 13.1371 93.5759 13.5163 92.9197 13.7891C92.2677 14.0575 91.5156 14.1918 90.6633 14.1918C89.3636 14.1918 88.3281 13.9212 87.5568 13.38C86.7897 12.8345 86.3401 12.093 86.208 11.1555L88.8863 11.0149C88.9673 11.4112 89.1633 11.7138 89.4744 11.9226C89.7855 12.1271 90.1839 12.2294 90.6697 12.2294C91.147 12.2294 91.5305 12.1378 91.8203 11.9545C92.1143 11.767 92.2634 11.5263 92.2677 11.2322C92.2634 10.9851 92.159 10.7827 91.9545 10.625C91.7499 10.4631 91.4346 10.3395 91.0085 10.2543L89.3082 9.91548C88.3494 9.72372 87.6356 9.39134 87.1668 8.91832C86.7024 8.44531 86.4701 7.84233 86.4701 7.10938C86.4701 6.47869 86.6406 5.93537 86.9815 5.4794C87.3266 5.02344 87.8103 4.67188 88.4325 4.42472C89.0589 4.17756 89.7918 4.05398 90.6313 4.05398C91.8714 4.05398 92.8472 4.31605 93.5589 4.8402C94.2748 5.36435 94.6924 6.07812 94.8117 6.98153Z" fill="#2C2C2C"/>
</svg>
