<svg width="40" height="41" viewBox="0 0 40 41" fill="none" xmlns="http://www.w3.org/2000/svg">
<path d="M30.625 0.5H9.375C4.19733 0.5 0 4.69733 0 9.875V31.125C0 36.3027 4.19733 40.5 9.375 40.5H30.625C35.8027 40.5 40 36.3027 40 31.125V9.875C40 4.69733 35.8027 0.5 30.625 0.5Z" fill="white"/>
<path d="M30.625 0.5H9.375C4.19733 0.5 0 4.69733 0 9.875V31.125C0 36.3027 4.19733 40.5 9.375 40.5H30.625C35.8027 40.5 40 36.3027 40 31.125V9.875C40 4.69733 35.8027 0.5 30.625 0.5Z" fill="#1D9BF0"/>
<path d="M31.1831 14.783C31.2003 15.0309 31.2003 15.2789 31.2003 15.5292C31.2003 23.1537 25.3959 31.9472 14.7823 31.9472V31.9425C11.6469 31.947 8.57641 31.049 5.9375 29.3558C6.39344 29.4106 6.85156 29.438 7.31094 29.4391C9.90968 29.4411 12.4337 28.5695 14.4773 26.9642C13.2732 26.9415 12.1064 26.543 11.1398 25.8246C10.1733 25.1061 9.4554 24.1036 9.08656 22.9572C9.95106 23.1239 10.8423 23.0899 11.6916 22.8578C8.99969 22.3139 7.06297 19.9487 7.06297 17.2019V17.1287C7.86546 17.5757 8.76356 17.8234 9.68172 17.8509C7.14641 16.1564 6.36484 12.7834 7.89578 10.1462C9.34442 11.9289 11.1519 13.3869 13.2007 14.4255C15.2495 15.4641 17.4939 16.06 19.7881 16.1747C19.5594 15.1901 19.5932 14.1626 19.8861 13.1952C20.179 12.2277 20.7208 11.3541 21.4573 10.6617C23.7814 8.47702 27.4366 8.58906 29.6213 10.9119C30.9134 10.6567 32.1526 10.183 33.2855 9.51109C32.8547 10.8471 31.9533 11.9812 30.7489 12.7023C31.8928 12.5676 33.0098 12.2614 34.0625 11.7941C33.2881 12.9537 32.3131 13.9658 31.1831 14.783Z" fill="white"/>
</svg>
