<svg width="44" height="45" viewBox="0 0 44 45" fill="none" xmlns="http://www.w3.org/2000/svg">
<path d="M33.6875 0.5H10.3125C4.61706 0.5 0 5.11706 0 10.8125V34.1875C0 39.8829 4.61706 44.5 10.3125 44.5H33.6875C39.3829 44.5 44 39.8829 44 34.1875V10.8125C44 5.11706 39.3829 0.5 33.6875 0.5Z" fill="#EF6803"/>
<path d="M33.6875 0.5H10.3125C4.61706 0.5 0 5.11706 0 10.8125V34.1875C0 39.8829 4.61706 44.5 10.3125 44.5H33.6875C39.3829 44.5 44 39.8829 44 34.1875V10.8125C44 5.11706 39.3829 0.5 33.6875 0.5Z" fill="white"/>
<path d="M34.3014 16.2113C34.3203 16.484 34.3203 16.7568 34.3203 17.0321C34.3203 25.4191 27.9355 35.0919 16.2606 35.0919V35.0867C12.8116 35.0917 9.43405 34.1039 6.53125 32.2414C7.03278 32.3017 7.53672 32.3318 8.04203 32.333C10.9007 32.3352 13.677 31.3764 15.9251 29.6106C14.6006 29.5856 13.317 29.1473 12.2538 28.357C11.1906 27.5668 10.4009 26.464 9.99522 25.2029C10.9462 25.3863 11.9265 25.3489 12.8607 25.0936C9.89966 24.4953 7.76927 21.8936 7.76927 18.8721V18.7916C8.652 19.2833 9.63992 19.5557 10.6499 19.586C7.86105 17.722 7.00133 14.0118 8.68536 11.1109C10.2789 13.0718 12.267 14.6756 14.5208 15.818C16.7745 16.9605 19.2433 17.616 21.7669 17.7421C21.5153 16.6591 21.5525 15.5289 21.8747 14.4647C22.1969 13.4005 22.7929 12.4395 23.6031 11.6779C26.1595 9.27473 30.1802 9.39796 32.5834 11.9531C34.0048 11.6724 35.3679 11.1513 36.614 10.4122C36.1402 11.8818 35.1486 13.1293 33.8238 13.9226C35.082 13.7743 36.3108 13.4375 37.4688 12.9235C36.6169 14.1991 35.5444 15.3124 34.3014 16.2113Z" fill="#EF6803"/>
</svg>
