<svg width="17" height="18" viewBox="0 0 17 18" fill="none" xmlns="http://www.w3.org/2000/svg">
<g clip-path="url(#clip0_1673_7052)">
<path d="M10.8333 17.2084C10.3028 17.2084 9.79411 16.9977 9.41904 16.6226C9.04397 16.2475 8.83325 15.7388 8.83325 15.2084C8.83325 14.0984 9.72325 13.2084 10.8333 13.2084C11.3637 13.2084 11.8724 13.4191 12.2475 13.7942C12.6225 14.1692 12.8333 14.6779 12.8333 15.2084C12.8333 15.7388 12.6225 16.2475 12.2475 16.6226C11.8724 16.9977 11.3637 17.2084 10.8333 17.2084ZM16.8333 20.2084V10.2084H4.83325V20.2084H16.8333ZM16.8333 8.20837C17.3637 8.20837 17.8724 8.41909 18.2475 8.79416C18.6225 9.16923 18.8333 9.67794 18.8333 10.2084V20.2084C18.8333 20.7388 18.6225 21.2475 18.2475 21.6226C17.8724 21.9977 17.3637 22.2084 16.8333 22.2084H4.83325C4.30282 22.2084 3.79411 21.9977 3.41904 21.6226C3.04397 21.2475 2.83325 20.7388 2.83325 20.2084V10.2084C2.83325 9.09837 3.72325 8.20837 4.83325 8.20837H5.83325V6.20837C5.83325 4.88229 6.36004 3.61052 7.29772 2.67284C8.2354 1.73516 9.50717 1.20837 10.8333 1.20837C11.4899 1.20837 12.14 1.3377 12.7467 1.58898C13.3533 1.84025 13.9045 2.20855 14.3688 2.67284C14.8331 3.13713 15.2014 3.68833 15.4527 4.29496C15.7039 4.90158 15.8333 5.55176 15.8333 6.20837V8.20837H16.8333ZM10.8333 3.20837C10.0376 3.20837 9.27454 3.52444 8.71193 4.08705C8.14932 4.64966 7.83325 5.41272 7.83325 6.20837V8.20837H13.8333V6.20837C13.8333 5.41272 13.5172 4.64966 12.9546 4.08705C12.392 3.52444 11.6289 3.20837 10.8333 3.20837Z" fill="#545454"/>
</g>
<defs>
<clipPath id="clip0_1673_7052">
<rect width="17" height="17" fill="white" transform="translate(0 0.5)"/>
</clipPath>
</defs>
</svg>
