<svg width="15" height="15" viewBox="0 0 15 15" fill="none" xmlns="http://www.w3.org/2000/svg">
<path d="M3.95842 9.41675H5.10946C5.2039 9.41675 5.29551 9.39904 5.38429 9.36362C5.47307 9.32821 5.55264 9.27508 5.623 9.20425L8.95217 5.87508C9.05842 5.76883 9.13822 5.64771 9.19158 5.51171C9.24494 5.37571 9.27139 5.24301 9.27092 5.11362C9.27092 4.98376 9.2414 4.85697 9.18237 4.73325C9.12335 4.60953 9.04661 4.49431 8.95217 4.38758L8.31467 3.71467C8.20842 3.60842 8.09036 3.52861 7.9605 3.47525C7.83064 3.42189 7.69487 3.39544 7.55321 3.39592C7.42335 3.39592 7.29065 3.4226 7.15512 3.47596C7.0196 3.52932 6.89847 3.60889 6.79175 3.71467L3.46258 7.04383C3.39175 7.11467 3.33862 7.19447 3.30321 7.28325C3.26779 7.37203 3.25008 7.4634 3.25008 7.55737V8.70842C3.25008 8.90911 3.31808 9.07746 3.45408 9.21346C3.59008 9.34946 3.75819 9.41722 3.95842 9.41675ZM4.31258 8.35425V7.68133L6.10112 5.89279L6.45529 6.21154L6.77404 6.56571L4.9855 8.35425H4.31258ZM6.45529 6.21154L6.77404 6.56571L6.10112 5.89279L6.45529 6.21154ZM6.91571 9.41675H11.0417C11.2424 9.41675 11.4108 9.34875 11.5468 9.21275C11.6828 9.07675 11.7506 8.90864 11.7501 8.70842C11.7501 8.50772 11.6821 8.33937 11.5461 8.20337C11.4101 8.06737 11.242 7.99961 11.0417 8.00008H8.33237L6.91571 9.41675ZM3.25008 12.2501L1.62092 13.8792C1.39661 14.1036 1.13972 14.1538 0.850249 14.0301C0.560777 13.9064 0.416277 13.6849 0.416749 13.3657V2.33342C0.416749 1.94383 0.555583 1.61021 0.833249 1.33254C1.11092 1.05487 1.4443 0.916277 1.83342 0.916749H13.1667C13.5563 0.916749 13.89 1.05558 14.1676 1.33325C14.4453 1.61092 14.5839 1.9443 14.5834 2.33342V10.8334C14.5834 11.223 14.4446 11.5566 14.1669 11.8343C13.8892 12.112 13.5559 12.2506 13.1667 12.2501H3.25008ZM2.648 10.8334H13.1667V2.33342H1.83342V11.6303L2.648 10.8334Z" fill="#545454"/>
</svg>
