<svg width="30" height="34" viewBox="0 0 30 34" fill="none" xmlns="http://www.w3.org/2000/svg">
<path d="M0 16.8849C0 26.2815 7.065 30.8432 11.4983 32.7782C12.7 33.3032 13.3017 33.5665 15 33.5665V10.2332L0 15.2332V16.8849Z" fill="#EBFF00"/>
<path opacity="0.5" d="M18.5017 32.7782C22.935 30.8415 30 26.2832 30 16.8849V15.2332L15 10.2332V33.5665C16.7 33.5665 17.3 33.3032 18.5017 32.7782ZM9.73 1.57488L8.775 1.89988C3.76333 3.61655 1.25833 4.47488 0.63 5.36988C4.96705e-08 6.26655 0 8.93321 0 14.2615V15.2332L15 10.2332V0.233215C13.6483 0.233215 12.3417 0.679882 9.73 1.57488Z" fill="#EBFF00"/>
<path d="M21.225 1.89988L20.27 1.57488C17.6583 0.679882 16.3533 0.233215 15 0.233215V10.2332L30 15.2332V14.2615C30 8.93155 30 6.26655 29.37 5.36988C28.7417 4.47488 26.2367 3.61488 21.225 1.89988Z" fill="#EBFF00"/>
</svg>
