<svg width="30" height="34" viewBox="0 0 30 34" fill="none" xmlns="http://www.w3.org/2000/svg">
<path d="M0 16.985C0 26.3816 7.065 30.9433 11.4983 32.8783C12.7 33.4033 13.3017 33.6666 15 33.6666V10.3333L0 15.3333V16.985Z" fill="white"/>
<path opacity="0.5" d="M18.5017 32.8783C22.935 30.9416 30 26.3833 30 16.985V15.3333L15 10.3333V33.6666C16.7 33.6666 17.3 33.4033 18.5017 32.8783ZM9.73 1.67498L8.775 1.99998C3.76333 3.71665 1.25833 4.57498 0.63 5.46998C4.96705e-08 6.36665 0 9.03331 0 14.3616V15.3333L15 10.3333V0.333313C13.6483 0.333313 12.3417 0.77998 9.73 1.67498Z" fill="white"/>
<path d="M21.225 1.99998L20.27 1.67498C17.6583 0.77998 16.3533 0.333313 15 0.333313V10.3333L30 15.3333V14.3616C30 9.03165 30 6.36665 29.37 5.46998C28.7417 4.57498 26.2367 3.71498 21.225 1.99998Z" fill="white"/>
</svg>
